<svg width="206" height="192" viewBox="0 0 206 192" fill="none" xmlns="http://www.w3.org/2000/svg">
<path d="M0 64H68.5V0H0V64ZM11.4167 10.6667H57.0833V53.3333H11.4167V10.6667ZM22.8333 21.3333H45.6667V42.6667H22.8333V21.3333ZM137 64H205.5V0H137V64ZM148.417 10.6667H194.083V53.3333H148.417V10.6667ZM159.833 21.3333H182.667V42.6667H159.833V21.3333ZM0 192H68.5V128H0V192ZM11.4167 138.667H57.0833V181.333H11.4167V138.667ZM22.8333 149.333H45.6667V170.667H22.8333V149.333ZM194.083 170.667H205.5V192H182.667V160H194.083V170.667ZM194.083 138.667H205.5V149.333H194.083V138.667ZM194.083 128V138.667H182.667V128H194.083ZM79.9167 149.333H91.3333V192H79.9167V149.333ZM34.25 74.6667V96H11.4167V85.3333H0V74.6667H34.25ZM79.9167 42.6667H91.3333V53.3333H79.9167V42.6667ZM114.167 10.6667V32H102.75V0H125.583V10.6667H114.167ZM79.9167 10.6667H91.3333V21.3333H79.9167V10.6667ZM194.083 96H205.5V117.333H182.667V106.667H194.083V96ZM182.667 74.6667V85.3333H159.833V106.667H137V96H148.417V74.6667H182.667ZM102.75 117.333H91.3333V106.667H79.9167V96H102.75V117.333ZM171.25 138.667H182.667V149.333H171.25V138.667ZM194.083 85.3333V96H182.667V85.3333H194.083ZM91.3333 117.333V128H79.9167V117.333H91.3333ZM159.833 170.667H171.25V192H148.417V170.667H159.833ZM125.583 170.667H137V181.333H125.583V192H102.75V181.333H114.167V170.667H125.583ZM125.583 160V149.333H148.417V160H125.583ZM125.583 106.667H137V138.667H125.583V149.333H114.167V160H102.75V138.667H91.3333V128H125.583V117.333H114.167V106.667H125.583ZM22.8333 106.667V117.333H11.4167V106.667H22.8333ZM159.833 149.333H148.417V138.667H159.833V149.333ZM171.25 128H148.417V117.333H171.25V128ZM57.0833 74.6667H68.5V85.3333H57.0833V96H68.5V117.333H57.0833V106.667H45.6667V117.333H34.25V96H45.6667V74.6667H57.0833ZM91.3333 74.6667V53.3333H125.583V85.3333H102.75V74.6667H114.167V64H102.75V74.6667H91.3333ZM91.3333 32H102.75V42.6667H91.3333V32ZM79.9167 74.6667H91.3333V85.3333H79.9167V74.6667ZM114.167 42.6667V32H125.583V42.6667H114.167Z" fill="black"/>
</svg>
