<svg width="50" height="50" viewBox="0 0 50 50" fill="none" xmlns="http://www.w3.org/2000/svg">
<path fill-rule="evenodd" clip-rule="evenodd" d="M45 43.7508C45 44.4405 44.4411 45 43.75 45H27.5H20H14.5732C14.8496 44.218 15 43.3766 15 42.5V5.83333C15 5.3731 15.3731 5 15.8333 5H43.75C44.4404 5 45 5.55964 45 6.25V25.5714V43.7508ZM43.75 50H27.5H20H7.5C3.35786 50 0 46.6421 0 42.5V12.8465C0 11.2744 1.27445 10 2.84654 10L7.5 10H10V5.83333C10 2.61168 12.6117 0 15.8333 0H43.75C47.2018 0 50 2.79822 50 6.25V25.5714V43.7508C50 47.2034 47.201 50 43.75 50ZM10 15L8.75 15H5V42.5C5 43.8807 6.11928 45 7.5 45C8.88071 45 10 43.8807 10 42.5V15ZM37.5 22.5C38.8807 22.5 40 23.6193 40 25C40 26.3807 38.8807 27.5 37.5 27.5H22.5C21.1193 27.5 20 26.3807 20 25C20 23.6193 21.1193 22.5 22.5 22.5H37.5ZM40 35C40 33.6193 38.8807 32.5 37.5 32.5H22.5C21.1193 32.5 20 33.6193 20 35C20 36.3807 21.1193 37.5 22.5 37.5H37.5C38.8807 37.5 40 36.3807 40 35ZM37.5 12.5C38.8807 12.5 40 13.6193 40 15C40 16.3807 38.8807 17.5 37.5 17.5H22.5C21.1193 17.5 20 16.3807 20 15C20 13.6193 21.1193 12.5 22.5 12.5H37.5Z" fill="white"/>
</svg>
