<svg width="60" height="60" viewBox="0 0 60 60" fill="none" xmlns="http://www.w3.org/2000/svg">
<path fill-rule="evenodd" clip-rule="evenodd" d="M20 5C18.6193 5 17.5 6.11929 17.5 7.5V10H15C10.8579 10 7.5 13.3579 7.5 17.5V22.5V47.5C7.5 51.6421 10.8579 55 15 55H45C49.1421 55 52.5 51.6421 52.5 47.5V22.5V17.5C52.5 13.3579 49.1421 10 45 10H42.5V7.5C42.5 6.11929 41.3807 5 40 5C38.6193 5 37.5 6.11929 37.5 7.5V10H22.5V7.5C22.5 6.11929 21.3807 5 20 5ZM40 15H20H15C13.6193 15 12.5 16.1193 12.5 17.5V20H47.5V17.5C47.5 16.1193 46.3807 15 45 15H40ZM12.5 47.5V25L47.5 25V47.5C47.5 48.8807 46.3807 50 45 50H15C13.6193 50 12.5 48.8807 12.5 47.5Z" fill="white"/>
</svg>
