<svg width="15" height="17" viewBox="0 0 15 17" fill="none" xmlns="http://www.w3.org/2000/svg">
<path fill-rule="evenodd" clip-rule="evenodd" d="M4.16667 0C3.70643 0 3.33333 0.373096 3.33333 0.833333V1.66667H2.5C1.11929 1.66667 0 2.78596 0 4.16667V5.83333V14.1667C0 15.5474 1.11929 16.6667 2.5 16.6667H12.5C13.8807 16.6667 15 15.5474 15 14.1667V5.83333V4.16667C15 2.78595 13.8807 1.66667 12.5 1.66667H11.6667V0.833333C11.6667 0.373096 11.2936 0 10.8333 0C10.3731 0 10 0.373096 10 0.833333V1.66667H5V0.833333C5 0.373096 4.6269 0 4.16667 0ZM10.8333 3.33333H4.16667H2.5C2.03976 3.33333 1.66667 3.70643 1.66667 4.16667V5H13.3333V4.16667C13.3333 3.70643 12.9602 3.33333 12.5 3.33333H10.8333ZM1.66667 14.1667V6.66667L13.3333 6.66667V14.1667C13.3333 14.6269 12.9602 15 12.5 15H2.5C2.03976 15 1.66667 14.6269 1.66667 14.1667Z" fill="#6B6B6B"/>
</svg>
