<svg width="50" height="50" viewBox="0 0 50 50" fill="none" xmlns="http://www.w3.org/2000/svg">
<path fill-rule="evenodd" clip-rule="evenodd" d="M4.16666 25.0013C4.16666 36.5072 13.4941 45.8346 25 45.8346C36.5059 45.8346 45.8333 36.5072 45.8333 25.0013C45.8333 13.4954 36.5059 4.16797 25 4.16797C13.4941 4.16797 4.16666 13.4954 4.16666 25.0013ZM34.8691 20.1591C35.6465 19.3109 35.5893 17.993 34.7411 17.2156C33.8929 16.4381 32.5751 16.4954 31.7976 17.3435L21.9497 28.0867L18.2671 23.6676C17.5305 22.7837 16.2168 22.6643 15.3329 23.4008C14.449 24.1374 14.3296 25.4511 15.0662 26.335L20.2745 32.585C20.6594 33.0468 21.2249 33.3199 21.8258 33.3341C22.4268 33.3482 23.0045 33.1022 23.4107 32.6591L34.8691 20.1591Z" fill="#058D66"/>
</svg>
