<svg width="25" height="25" viewBox="0 0 25 25" fill="none" xmlns="http://www.w3.org/2000/svg">
<path fill-rule="evenodd" clip-rule="evenodd" d="M0 12.5C0 19.4036 5.59644 25 12.5 25C19.4036 25 25 19.4036 25 12.5C25 5.59644 19.4036 0 12.5 0C5.59644 0 0 5.59644 0 12.5ZM18.4214 9.59466C18.8879 9.08576 18.8536 8.29505 18.3447 7.82856C17.8358 7.36207 17.045 7.39645 16.5786 7.90534L10.6698 14.3512L8.46028 11.6998C8.01832 11.1694 7.23012 11.0978 6.69977 11.5397C6.16942 11.9817 6.09777 12.7699 6.53972 13.3002L9.66472 17.0502C9.89562 17.3273 10.2349 17.4911 10.5955 17.4997C10.9561 17.5082 11.3027 17.3605 11.5464 17.0947L18.4214 9.59466Z" fill="#058D66"/>
</svg>
