<svg width="20" height="20" viewBox="0 0 20 20" fill="none" xmlns="http://www.w3.org/2000/svg">
<path fill-rule="evenodd" clip-rule="evenodd" d="M11.4226 14.7559C11.0971 15.0814 10.5695 15.0814 10.2441 14.7559C9.91862 14.4305 9.91862 13.9028 10.2441 13.5774L13.8215 10L10.2441 6.42259C9.91862 6.09715 9.91862 5.56951 10.2441 5.24408C10.5695 4.91864 11.0971 4.91864 11.4226 5.24408L15.5892 9.41074C15.9147 9.73618 15.9147 10.2638 15.5892 10.5893L11.4226 14.7559ZM5.58924 14.7559C5.2638 15.0814 4.73616 15.0814 4.41072 14.7559C4.08529 14.4305 4.08529 13.9028 4.41072 13.5774L7.98814 10L4.41072 6.42259C4.08529 6.09715 4.08529 5.56951 4.41072 5.24408C4.73616 4.91864 5.2638 4.91864 5.58923 5.24408L9.7559 9.41074C10.0813 9.73618 10.0813 10.2638 9.7559 10.5893L5.58924 14.7559Z" fill="black"/>
</svg>
