<svg width="12" height="10" viewBox="0 0 12 10" fill="none" xmlns="http://www.w3.org/2000/svg">
<path fill-rule="evenodd" clip-rule="evenodd" d="M7.25594 9.75592C6.93051 10.0814 6.40287 10.0814 6.07743 9.75592C5.752 9.43049 5.752 8.90285 6.07743 8.57741L9.65484 5L6.07743 1.42259C5.75199 1.09715 5.75199 0.569515 6.07743 0.244078C6.40287 -0.0813593 6.9305 -0.0813594 7.25594 0.244078L11.4226 4.41074C11.748 4.73618 11.748 5.26382 11.4226 5.58925L7.25594 9.75592ZM1.42261 9.75592C1.09717 10.0814 0.569535 10.0814 0.244098 9.75592C-0.081339 9.43049 -0.081339 8.90285 0.244098 8.57741L3.82151 5L0.244098 1.42259C-0.0813398 1.09715 -0.0813398 0.569515 0.244098 0.244078C0.569534 -0.0813593 1.09717 -0.0813594 1.42261 0.244078L5.58928 4.41074C5.91471 4.73618 5.91471 5.26382 5.58928 5.58926L1.42261 9.75592Z" fill="white"/>
</svg>
