<svg width="20" height="20" viewBox="0 0 20 20" fill="none" xmlns="http://www.w3.org/2000/svg">
<path fill-rule="evenodd" clip-rule="evenodd" d="M4.16667 3.33398C2.78596 3.33398 1.66667 4.45327 1.66667 5.83398V14.1673C1.66667 15.548 2.78595 16.6673 4.16667 16.6673H15.8333C17.214 16.6673 18.3333 15.548 18.3333 14.1673V5.83398C18.3333 4.45327 17.214 3.33398 15.8333 3.33398H4.16667ZM3.40943 5.4856C3.54135 5.19935 3.8308 5.00065 4.16667 5.00065H15.8333C16.1692 5.00065 16.4587 5.19935 16.5906 5.4856L10.5116 10.2137C10.2107 10.4477 9.78931 10.4477 9.48838 10.2137L3.40943 5.4856ZM3.33333 7.53785V12.3881L6.34384 9.87936L3.33333 7.53785ZM3.40242 14.5001C3.53087 14.7947 3.82472 15.0007 4.16667 15.0007H15.8333C16.1753 15.0007 16.4691 14.7947 16.5976 14.5001L12.3096 10.9267L11.5349 11.5293C10.6321 12.2314 9.36793 12.2314 8.46515 11.5293L7.69044 10.9267L3.40242 14.5001ZM16.6667 12.3881V7.53785L13.6562 9.87936L16.6667 12.3881Z" fill="white"/>
</svg>
