<svg width="25" height="20" viewBox="0 0 25 20" fill="none" xmlns="http://www.w3.org/2000/svg">
<path fill-rule="evenodd" clip-rule="evenodd" d="M3.75 0C1.67893 0 0 1.67893 0 3.75V16.25C0 18.3211 1.67893 20 3.75 20H21.25C23.3211 20 25 18.3211 25 16.25V3.75C25 1.67893 23.3211 0 21.25 0H3.75ZM2.61414 3.22742C2.81202 2.79804 3.2462 2.5 3.75 2.5H21.25C21.7538 2.5 22.188 2.79804 22.3859 3.22742L13.2674 10.3195C12.816 10.6706 12.184 10.6706 11.7326 10.3195L2.61414 3.22742ZM2.5 6.3058V13.5812L7.01576 9.81806L2.5 6.3058ZM2.60362 16.7491C2.79631 17.1911 3.23708 17.5 3.75 17.5H21.25C21.7629 17.5 22.2037 17.1911 22.3964 16.7491L15.9643 11.3891L14.8023 12.2929C13.4481 13.3462 11.5519 13.3462 10.1977 12.2929L9.03566 11.3891L2.60362 16.7491ZM22.5 13.5812V6.3058L17.9842 9.81806L22.5 13.5812Z" fill="#FF5F00"/>
</svg>
