<svg width="17" height="12" viewBox="0 0 17 12" fill="none" xmlns="http://www.w3.org/2000/svg">
<path fill-rule="evenodd" clip-rule="evenodd" d="M1.96418 5.48457C1.88396 5.61669 1.81734 5.73443 1.76389 5.83333C1.81734 5.93223 1.88396 6.04997 1.96418 6.1821C2.22475 6.61127 2.62382 7.18404 3.17427 7.75489C4.27145 8.8927 5.94291 10 8.33333 10C10.7238 10 12.3952 8.8927 13.4924 7.75489C14.0429 7.18404 14.4419 6.61127 14.7025 6.1821C14.7827 6.04997 14.8493 5.93223 14.9028 5.83333C14.8493 5.73443 14.7827 5.61669 14.7025 5.48457C14.4419 5.0554 14.0429 4.48263 13.4924 3.91178C12.3952 2.77397 10.7238 1.66667 8.33333 1.66667C5.94291 1.66667 4.27145 2.77397 3.17427 3.91178C2.62382 4.48263 2.22475 5.0554 1.96418 5.48457ZM16.599 6.16233C16.5991 6.16196 16.5993 6.1616 15.8333 5.83333L16.5993 6.1616C16.6891 5.95198 16.6891 5.71469 16.5993 5.50507L15.8333 5.83333C16.5993 5.50507 16.5991 5.50471 16.599 5.50433L16.5986 5.50348L16.5977 5.50143L16.5953 5.49597L16.5881 5.47965C16.5822 5.46641 16.5741 5.44851 16.5638 5.42626C16.5431 5.38175 16.5135 5.31976 16.4746 5.24278C16.3969 5.08894 16.2819 4.87448 16.1271 4.6196C15.8185 4.11127 15.347 3.43404 14.6921 2.75489C13.3786 1.39269 11.3 0 8.33333 0C5.36662 0 3.28808 1.39269 1.97453 2.75489C1.31964 3.43404 0.848167 4.11127 0.539537 4.6196C0.38479 4.87448 0.269747 5.08894 0.192041 5.24278C0.153157 5.31976 0.123527 5.38175 0.102866 5.42626C0.0925322 5.44851 0.084433 5.46641 0.0785326 5.47965L0.0713233 5.49597L0.0689449 5.50143L0.0680607 5.50348L0.0676946 5.50433C0.0675327 5.50471 0.0673791 5.50507 0.833304 5.83332L0.0673791 5.50507C-0.0224597 5.71469 -0.0224597 5.95198 0.0673791 6.1616L0.833304 5.83335C0.0673791 6.1616 0.0675327 6.16196 0.0676946 6.16233L0.0680607 6.16319L0.0689449 6.16523L0.0713233 6.1707L0.0785326 6.18702C0.084433 6.20025 0.0925322 6.21816 0.102866 6.24041C0.123527 6.28491 0.153157 6.34691 0.192041 6.42389C0.269747 6.57773 0.38479 6.79219 0.539537 7.04707C0.848167 7.5554 1.31964 8.23263 1.97453 8.91178C3.28808 10.274 5.36662 11.6667 8.33333 11.6667C11.3 11.6667 13.3786 10.274 14.6921 8.91178C15.347 8.23263 15.8185 7.5554 16.1271 7.04707C16.2819 6.79219 16.3969 6.57773 16.4746 6.42389C16.5135 6.34691 16.5431 6.28491 16.5638 6.24041C16.5741 6.21816 16.5822 6.20025 16.5881 6.18702L16.5953 6.1707L16.5977 6.16523L16.5986 6.16319L16.599 6.16233ZM8.33333 7.5C7.41286 7.5 6.66667 6.75381 6.66667 5.83333C6.66667 4.91286 7.41286 4.16667 8.33333 4.16667C9.25381 4.16667 10 4.91286 10 5.83333C10 6.75381 9.25381 7.5 8.33333 7.5ZM5 5.83333C5 3.99238 6.49238 2.5 8.33333 2.5C10.1743 2.5 11.6667 3.99238 11.6667 5.83333C11.6667 7.67428 10.1743 9.16667 8.33333 9.16667C6.49238 9.16667 5 7.67428 5 5.83333Z" fill="#6B6B6B"/>
</svg>
