<svg width="20" height="20" viewBox="0 0 20 20" fill="none" xmlns="http://www.w3.org/2000/svg">
<path fill-rule="evenodd" clip-rule="evenodd" d="M4.33333 10.0833V19.75C4.33333 19.9167 4.5 20 4.83333 20H12.5C12.8333 20 13 19.9167 13 19.75V9.91667H18.6667C19 9.91667 19.1667 9.83333 19.1667 9.66667L19.6667 6.66667C19.6667 6.5 19.5 6.41667 19.1667 6.41667H13V4.33333C13 3.83333 13.8333 3.41667 15 3.41667H19.3333C19.8333 3.41667 20 3.33333 20 3.16667V0.25C20 0.0833335 19.8333 0 19.5 0H12.1667C7.83333 0 4.33333 1.58333 4.33333 3.58333V6.41667H0.5C0.166667 6.41667 0 6.5 0 6.66667V9.66667C0 9.83333 0.166667 9.91667 0.5 9.91667H4.33333V10.0833Z" fill="#FF5F00"/>
</svg>
