<svg width="13" height="13" viewBox="0 0 13 13" fill="none" xmlns="http://www.w3.org/2000/svg">
<path fill-rule="evenodd" clip-rule="evenodd" d="M2.81667 6.55417V12.8375C2.81667 12.9458 2.925 13 3.14167 13H8.125C8.34167 13 8.45 12.9458 8.45 12.8375V6.44583H12.1333C12.35 6.44583 12.4583 6.39167 12.4583 6.28333L12.7833 4.33333C12.7833 4.225 12.675 4.17083 12.4583 4.17083H8.45V2.81667C8.45 2.49167 8.99167 2.22083 9.75 2.22083H12.5667C12.8917 2.22083 13 2.16667 13 2.05833V0.1625C13 0.0541668 12.8917 0 12.675 0H7.90833C5.09167 0 2.81667 1.02917 2.81667 2.32917V4.17083H0.325C0.108334 4.17083 0 4.225 0 4.33333V6.28333C0 6.39167 0.108334 6.44583 0.325 6.44583H2.81667V6.55417Z" fill="white"/>
</svg>
