<svg width="18" height="18" viewBox="0 0 18 18" fill="none" xmlns="http://www.w3.org/2000/svg">
<path fill-rule="evenodd" clip-rule="evenodd" d="M7.07306 17.7216C7.68174 18.0815 8.43522 18.0932 9.05481 17.7524L10.873 16.7524C11.5121 16.4009 11.9092 15.7294 11.9092 15L11.9092 8.70858L17.3863 3.44161C17.9746 2.87597 18.1601 2.00969 17.8552 1.25274C17.5503 0.49579 16.8161 -4.37237e-07 16.0001 -5.08579e-07L2.00007 1.74851e-07C1.18402 1.0351e-07 0.449812 0.495792 0.144912 1.25274C-0.159988 2.00969 0.0255776 2.87597 0.61379 3.44161L6.09098 8.70858L6.09098 16C6.09098 16.7071 6.46437 17.3617 7.07306 17.7216ZM9.90916 15L8.09098 16L8.09098 8.28286C8.09098 8.10262 8.04232 7.92752 7.95244 7.77504C7.90668 7.69742 7.85025 7.62566 7.78412 7.56206L2.00007 2L16.0001 2L10.216 7.56206C10.1499 7.62566 10.0935 7.69742 10.0477 7.77504C9.95782 7.92752 9.90916 8.10262 9.90916 8.28286L9.90916 15Z" fill="#FF5F00"/>
</svg>
