<svg width="16" height="16" viewBox="0 0 16 16" fill="none" xmlns="http://www.w3.org/2000/svg">
<path fill-rule="evenodd" clip-rule="evenodd" d="M6.71537 13.8144C7.12116 14.0543 7.62348 14.0621 8.03654 13.835L9.24866 13.1683C9.67473 12.934 9.93944 12.4863 9.93944 12L9.93944 7.80572L13.5909 4.2944C13.983 3.91731 14.1067 3.3398 13.9035 2.83516C13.7002 2.33053 13.2107 2 12.6667 2L3.33338 2C2.78935 2 2.29987 2.33053 2.09661 2.83516C1.89334 3.3398 2.01705 3.91731 2.40919 4.2944L6.06065 7.80572L6.06065 12.6667C6.06065 13.1381 6.30958 13.5745 6.71537 13.8144ZM8.60611 12L7.39398 12.6667L7.39398 7.52191C7.39398 7.40174 7.36154 7.28501 7.30162 7.18336C7.27112 7.13161 7.2335 7.08377 7.18941 7.04137L3.33338 3.33333L12.6667 3.33333L8.81068 7.04137C8.76659 7.08377 8.72897 7.13161 8.69846 7.18336C8.63854 7.28501 8.60611 7.40174 8.60611 7.52191L8.60611 12Z" fill="#FF5F00"/>
</svg>
