<svg width="16" height="16" viewBox="0 0 16 16" fill="none" xmlns="http://www.w3.org/2000/svg">
<path fill-rule="evenodd" clip-rule="evenodd" d="M2.6665 4.66667C2.6665 4.29848 2.96498 4 3.33317 4H12.6665C13.0347 4 13.3332 4.29848 13.3332 4.66667C13.3332 5.03486 13.0347 5.33333 12.6665 5.33333H3.33317C2.96498 5.33333 2.6665 5.03486 2.6665 4.66667ZM2.6665 8C2.6665 7.63181 2.96498 7.33333 3.33317 7.33333H12.6665C13.0347 7.33333 13.3332 7.63181 13.3332 8C13.3332 8.36819 13.0347 8.66667 12.6665 8.66667H3.33317C2.96498 8.66667 2.6665 8.36819 2.6665 8ZM3.33317 10.6667C2.96498 10.6667 2.6665 10.9651 2.6665 11.3333C2.6665 11.7015 2.96498 12 3.33317 12H12.6665C13.0347 12 13.3332 11.7015 13.3332 11.3333C13.3332 10.9651 13.0347 10.6667 12.6665 10.6667H3.33317Z" fill="#FF5F00"/>
</svg>
