<svg width="32" height="30" viewBox="0 0 32 30" fill="none" xmlns="http://www.w3.org/2000/svg">
<path fill-rule="evenodd" clip-rule="evenodd" d="M15.8333 29.1667C7.08882 29.1667 0 22.6375 0 14.5833C0 6.52918 7.08882 0 15.8333 0C24.5778 0 31.6667 6.52918 31.6667 14.5833C31.6667 22.6375 24.5778 29.1667 15.8333 29.1667ZM15.8333 2.91667C8.83773 2.91667 3.16667 8.14001 3.16667 14.5833C3.16667 21.0267 8.83773 26.25 15.8333 26.25C22.8289 26.25 28.5 21.0267 28.5 14.5833C28.5 8.14001 22.8289 2.91667 15.8333 2.91667ZM15.8333 12.7604C16.9264 12.7604 17.8125 13.5766 17.8125 14.5833V20.4167C17.8125 21.4234 16.9264 22.2396 15.8333 22.2396C14.7403 22.2396 13.8542 21.4234 13.8542 20.4167V14.5833C13.8542 13.5766 14.7403 12.7604 15.8333 12.7604ZM15.8333 7.29167C14.7403 7.29167 13.8542 8.10781 13.8542 9.11458C13.8542 10.1214 14.7403 10.9375 15.8333 10.9375C16.9264 10.9375 17.8125 10.1214 17.8125 9.11458C17.8125 8.10781 16.9264 7.29167 15.8333 7.29167Z" fill="#848282"/>
</svg>
