<svg width="20" height="20" viewBox="0 0 20 20" fill="none" xmlns="http://www.w3.org/2000/svg">
<g clip-path="url(#clip0_267_1635)">
<path fill-rule="evenodd" clip-rule="evenodd" d="M10 15C12.7614 15 15 12.7614 15 10C15 7.23857 12.7614 5 10 5C7.23857 5 5 7.23857 5 10C5 12.7614 7.23857 15 10 15ZM10 13.3333C11.8409 13.3333 13.3333 11.8409 13.3333 10C13.3333 8.15905 11.8409 6.66667 10 6.66667C8.15905 6.66667 6.66667 8.15905 6.66667 10C6.66667 11.8409 8.15905 13.3333 10 13.3333Z" fill="#FF5F00"/>
<path d="M15 4.16797C14.5397 4.16797 14.1666 4.54107 14.1666 5.0013C14.1666 5.46154 14.5397 5.83464 15 5.83464C15.4602 5.83464 15.8333 5.46154 15.8333 5.0013C15.8333 4.54107 15.4602 4.16797 15 4.16797Z" fill="#FF5F00"/>
<path fill-rule="evenodd" clip-rule="evenodd" d="M1.37834 3.56208C0.833374 4.63164 0.833374 6.03177 0.833374 8.83203V11.1654C0.833374 13.9656 0.833374 15.3658 1.37834 16.4353C1.85771 17.3761 2.62261 18.141 3.56342 18.6204C4.63298 19.1654 6.03312 19.1654 8.83337 19.1654H11.1667C13.967 19.1654 15.3671 19.1654 16.4366 18.6204C17.3775 18.141 18.1424 17.3761 18.6217 16.4353C19.1667 15.3658 19.1667 13.9656 19.1667 11.1654V8.83203C19.1667 6.03177 19.1667 4.63164 18.6217 3.56208C18.1424 2.62126 17.3775 1.85636 16.4366 1.377C15.3671 0.832031 13.967 0.832031 11.1667 0.832031H8.83337C6.03312 0.832031 4.63298 0.832031 3.56342 1.377C2.62261 1.85636 1.85771 2.62126 1.37834 3.56208ZM11.1667 2.4987H8.83337C7.40574 2.4987 6.43525 2.5 5.68511 2.56128C4.95441 2.62098 4.58074 2.72919 4.32007 2.86201C3.69287 3.18159 3.18293 3.69152 2.86335 4.31873C2.73053 4.5794 2.62232 4.95306 2.56262 5.68376C2.50134 6.43391 2.50004 7.4044 2.50004 8.83203V11.1654C2.50004 12.593 2.50134 13.5634 2.56262 14.3136C2.62232 15.0444 2.73053 15.418 2.86335 15.6787C3.18293 16.3059 3.69287 16.8158 4.32007 17.1354C4.58074 17.2682 4.95441 17.3764 5.68511 17.4361C6.43525 17.4974 7.40574 17.4987 8.83337 17.4987H11.1667C12.5944 17.4987 13.5648 17.4974 14.315 17.4361C15.0457 17.3764 15.4194 17.2682 15.68 17.1354C16.3072 16.8158 16.8171 16.3059 17.1367 15.6787C17.2695 15.418 17.3778 15.0444 17.4375 14.3136C17.4987 13.5634 17.5 12.593 17.5 11.1654V8.83203C17.5 7.4044 17.4987 6.43391 17.4375 5.68376C17.3778 4.95306 17.2695 4.5794 17.1367 4.31873C16.8171 3.69152 16.3072 3.18159 15.68 2.86201C15.4194 2.72919 15.0457 2.62098 14.315 2.56128C13.5648 2.5 12.5944 2.4987 11.1667 2.4987Z" fill="#FF5F00"/>
</g>
<defs>
<clipPath id="clip0_267_1635">
<rect width="20" height="20" fill="white"/>
</clipPath>
</defs>
</svg>
