<svg width="20" height="20" viewBox="0 0 20 20" fill="none" xmlns="http://www.w3.org/2000/svg">
<g clip-path="url(#clip0_221_2038)">
<path fill-rule="evenodd" clip-rule="evenodd" d="M10 15C12.7614 15 15 12.7614 15 10C15 7.23857 12.7614 5 10 5C7.23857 5 5 7.23857 5 10C5 12.7614 7.23857 15 10 15ZM10 13.3333C11.8409 13.3333 13.3333 11.8409 13.3333 10C13.3333 8.15905 11.8409 6.66667 10 6.66667C8.15905 6.66667 6.66667 8.15905 6.66667 10C6.66667 11.8409 8.15905 13.3333 10 13.3333Z" fill="white"/>
<path d="M15 4.16602C14.5398 4.16602 14.1667 4.53912 14.1667 4.99935C14.1667 5.45958 14.5398 5.83268 15 5.83268C15.4603 5.83268 15.8333 5.45958 15.8333 4.99935C15.8333 4.53912 15.4603 4.16602 15 4.16602Z" fill="white"/>
<path fill-rule="evenodd" clip-rule="evenodd" d="M1.37829 3.56403C0.833328 4.63359 0.833328 6.03373 0.833328 8.83399V11.1673C0.833328 13.9676 0.833328 15.3677 1.37829 16.4372C1.85766 17.3781 2.62256 18.143 3.56338 18.6223C4.63294 19.1673 6.03307 19.1673 8.83333 19.1673H11.1667C13.9669 19.1673 15.3671 19.1673 16.4366 18.6223C17.3774 18.143 18.1423 17.3781 18.6217 16.4372C19.1667 15.3677 19.1667 13.9676 19.1667 11.1673V8.83399C19.1667 6.03373 19.1667 4.63359 18.6217 3.56403C18.1423 2.62322 17.3774 1.85832 16.4366 1.37895C15.3671 0.833984 13.9669 0.833984 11.1667 0.833984H8.83333C6.03307 0.833984 4.63294 0.833984 3.56338 1.37895C2.62256 1.85832 1.85766 2.62322 1.37829 3.56403ZM11.1667 2.50065H8.83333C7.4057 2.50065 6.4352 2.50195 5.68506 2.56323C4.95436 2.62293 4.5807 2.73114 4.32003 2.86396C3.69282 3.18354 3.18289 3.69348 2.8633 4.32068C2.73049 4.58135 2.62228 4.95502 2.56258 5.68572C2.50129 6.43586 2.49999 7.40635 2.49999 8.83399V11.1673C2.49999 12.595 2.50129 13.5654 2.56258 14.3156C2.62228 15.0463 2.73049 15.42 2.8633 15.6807C3.18289 16.3078 3.69282 16.8177 4.32003 17.1373C4.5807 17.2702 4.95436 17.3784 5.68506 17.4381C6.4352 17.4993 7.4057 17.5007 8.83333 17.5007H11.1667C12.5943 17.5007 13.5647 17.4993 14.3149 17.4381C15.0457 17.3784 15.4193 17.2702 15.68 17.1373C16.3072 16.8177 16.8171 16.3078 17.1367 15.6807C17.2695 15.42 17.3777 15.0463 17.4374 14.3156C17.4987 13.5654 17.5 12.595 17.5 11.1673V8.83399C17.5 7.40635 17.4987 6.43586 17.4374 5.68572C17.3777 4.95502 17.2695 4.58135 17.1367 4.32068C16.8171 3.69348 16.3072 3.18354 15.68 2.86396C15.4193 2.73114 15.0457 2.62293 14.3149 2.56323C13.5647 2.50195 12.5943 2.50065 11.1667 2.50065Z" fill="white"/>
</g>
<defs>
<clipPath id="clip0_221_2038">
<rect width="20" height="20" fill="white"/>
</clipPath>
</defs>
</svg>
