<svg width="60" height="60" viewBox="0 0 60 60" fill="none" xmlns="http://www.w3.org/2000/svg">
<path fill-rule="evenodd" clip-rule="evenodd" d="M42.5 17.5777C42.5 15.2166 41.7384 12.1412 39.7941 9.59788C37.7722 6.95314 34.5487 5 30 5C23.8285 5 17.5 9.698 17.5 17.5777C17.5 22.7183 20.3089 26.1143 22.5 27.7623L22.5 29.1134L19.0233 32.6117C17.6722 33.9713 17.5531 36.1356 18.7467 37.637L21.7984 41.4753L18.9607 45.0445C17.5222 46.8539 18.0291 49.5282 20.0285 50.6778L26.6807 54.5027C28.149 55.347 29.9971 55.0979 31.1929 53.8947L36.4016 48.6536C37.1049 47.9459 37.5 46.9862 37.5 45.9854L37.5 35.1865L37.5 27.7421C39.3153 26.3664 42.5 23.1501 42.5 17.5777ZM30 10.0311C32.9513 10.0311 34.7278 11.2224 35.8309 12.6654C37.0116 14.2098 37.5 16.1655 37.5 17.5777C37.5 21.25 35.279 23.1906 34.2458 23.9013C33.2878 24.5604 32.5 25.7222 32.5 27.1594L32.5 35.1865L32.5 45.4645L28.3324 49.6579L23.778 47.0392L26.3275 43.8325C27.4231 42.4544 27.4231 40.4963 26.3275 39.1182L23.35 35.3732L26.4016 32.3026C27.1049 31.5949 27.5 30.6352 27.5 29.6344L27.5 27.1594C27.5 25.6922 26.6774 24.5386 25.725 23.8977C24.4482 23.0385 22.5 20.9332 22.5 17.5777C22.5 12.8797 26.1715 10.0311 30 10.0311ZM32.5 17.5777C32.5 16.1884 31.3807 15.0622 30 15.0622C28.6193 15.0622 27.5 16.1884 27.5 17.5777C27.5 18.967 28.6193 20.0932 30 20.0932C31.3807 20.0932 32.5 18.967 32.5 17.5777Z" fill="white"/>
</svg>
