<svg width="35" height="50" viewBox="0 0 35 50" fill="none" xmlns="http://www.w3.org/2000/svg">
<path fill-rule="evenodd" clip-rule="evenodd" d="M10.2155 1.48465C10.6167 0.581834 11.512 0 12.5 0H27.2826C28.1047 0 28.8742 0.404128 29.3408 1.0809C29.8074 1.75768 29.9115 2.6206 29.6192 3.38893L24.3868 17.1429H32.5C33.5082 17.1429 34.4178 17.7485 34.8066 18.6787C35.1954 19.6089 34.9874 20.6817 34.2791 21.3992L6.77914 49.2563C5.97401 50.0719 4.71744 50.2356 3.73022 49.6535C2.74301 49.0714 2.27801 47.8926 2.60196 46.7933L8.28744 27.5H2.50001C1.65374 27.5 0.86492 27.0719 0.403777 26.3623C-0.0573665 25.6527 -0.128224 24.758 0.215478 23.9847L10.2155 1.48465ZM14.1247 5L6.34691 22.5H11.6304C12.4186 22.5 13.1605 22.8716 13.6325 23.5028C14.1045 24.1339 14.2513 24.9507 14.0285 25.7067L10.2103 38.6635L26.5191 22.1429H20.7609C19.9388 22.1429 19.1693 21.7387 18.7027 21.062C18.2361 20.3852 18.132 19.5223 18.4243 18.7539L23.6567 5H14.1247Z" fill="white"/>
</svg>
