<svg width="18" height="25" viewBox="0 0 18 25" fill="none" xmlns="http://www.w3.org/2000/svg">
<path fill-rule="evenodd" clip-rule="evenodd" d="M14.4128 12.6833L8.78382 20.8791L3.1121 12.7107C2.18232 10.8646 2.08244 8.66338 2.8407 6.72905C5.03757 1.12479 12.4161 1.10542 14.6453 6.71102C15.4113 8.63735 15.3258 10.8351 14.4128 12.6833ZM16.4748 13.8661L10.1198 23.5317L10.1189 23.5335L10.0572 23.6583L9.46113 24.5498C9.16489 25.1495 8.36818 25.1527 8.06737 24.5554L7.53169 23.6685L7.46909 23.5442L7.46818 23.5424L1.05919 13.9101C-0.209305 11.3915 -0.345565 8.38839 0.688917 5.74941C3.68936 -1.90475 13.7543 -1.91852 16.7922 5.72085C17.8367 8.34743 17.7205 11.3443 16.4748 13.8661ZM9.94916 9.20716C9.95086 9.90201 9.42937 10.4666 8.78438 10.4682C8.13939 10.4697 7.61514 9.90773 7.61344 9.21288C7.61174 8.51803 8.13322 7.95346 8.77822 7.95188C9.42321 7.9503 9.94746 8.51231 9.94916 9.20716ZM12.2849 9.20144C12.29 11.286 10.7255 12.9797 8.79054 12.9844C6.85557 12.9892 5.28282 11.3032 5.27771 9.2186C5.27261 7.13405 6.83708 5.44034 8.77205 5.4356C10.707 5.43086 12.2798 7.11688 12.2849 9.20144Z" fill="#848282"/>
</svg>
