<svg width="20" height="20" viewBox="0 0 20 20" fill="none" xmlns="http://www.w3.org/2000/svg">
<path fill-rule="evenodd" clip-rule="evenodd" d="M13.7905 10.1365L10.0379 15.6004L6.25676 10.1548C5.6369 8.92404 5.57032 7.45657 6.07582 6.16703C7.54041 2.43085 12.4594 2.41794 13.9455 6.155C14.4562 7.43922 14.3992 8.90439 13.7905 10.1365ZM15.1652 10.9251L10.9285 17.3688L10.9279 17.37L10.8868 17.4532L10.4894 18.0475C10.292 18.4473 9.76081 18.4494 9.56027 18.0513L9.20315 17.46L9.16142 17.3771L9.16081 17.3759L4.88816 10.9544C4.04249 9.27531 3.95165 7.27325 4.64131 5.51393C6.6416 0.411156 13.3516 0.401974 15.3768 5.49489C16.0732 7.24595 15.9957 9.24388 15.1652 10.9251ZM10.8148 7.8191C10.8159 8.28233 10.4683 8.65871 10.0383 8.65976C9.60829 8.66082 9.25879 8.28614 9.25765 7.82291C9.25652 7.35968 9.60418 6.9833 10.0342 6.98224C10.4642 6.98119 10.8137 7.35586 10.8148 7.8191ZM12.3719 7.81528C12.3754 9.20499 11.3324 10.3341 10.0424 10.3373C8.75241 10.3404 7.70391 9.21643 7.7005 7.82672C7.6971 6.43702 8.74008 5.30788 10.0301 5.30472C11.32 5.30156 12.3685 6.42558 12.3719 7.81528Z" fill="white"/>
</svg>
