<svg width="14" height="20" viewBox="0 0 14 20" fill="none" xmlns="http://www.w3.org/2000/svg">
<path fill-rule="evenodd" clip-rule="evenodd" d="M11.5302 10.1471L7.02705 16.7037L2.48968 10.1689C1.74585 8.69206 1.66595 6.93109 2.27256 5.38363C4.03006 0.900224 9.9329 0.884727 11.7162 5.36921C12.329 6.91027 12.2606 8.66847 11.5302 10.1471ZM13.1798 11.0933L8.09582 18.8257L8.0951 18.8272L8.04578 18.927L7.5689 19.6402C7.33191 20.12 6.69454 20.1225 6.45389 19.6447L6.02535 18.9352L5.97527 18.8357L5.97454 18.8343L0.847354 11.1285C-0.167444 9.11357 -0.276452 6.7111 0.551134 4.59992C2.95149 -1.52341 11.0035 -1.53443 13.4338 4.57707C14.2694 6.67834 14.1764 9.07586 13.1798 11.0933ZM7.95933 7.36612C7.96069 7.922 7.5435 8.37366 7.0275 8.37492C6.51151 8.37618 6.09211 7.92658 6.09075 7.37069C6.08939 6.81481 6.50658 6.36316 7.02257 6.36189C7.53857 6.36063 7.95797 6.81024 7.95933 7.36612ZM9.82791 7.36154C9.83199 9.02919 8.58042 10.3842 7.03244 10.3879C5.48445 10.3917 4.22626 9.04292 4.22217 7.37527C4.21809 5.70763 5.46966 4.35266 7.01764 4.34887C8.56562 4.34508 9.82382 5.6939 9.82791 7.36154Z" fill="#FF5F00"/>
</svg>
