<svg width="60" height="60" viewBox="0 0 60 60" fill="none" xmlns="http://www.w3.org/2000/svg">
<path fill-rule="evenodd" clip-rule="evenodd" d="M20.602 15.0205C20.8758 15.0069 21.1514 15 21.4286 15H31.0714C38.5721 15 44.8687 20.0724 46.8507 26.9453C48.7146 26.0427 50 24.133 50 21.9231V19.4118C50 14.2138 45.7862 10 40.5882 10H28.0882C24.7071 10 21.8105 12.0747 20.602 15.0205ZM47.4928 32.0477C47.2454 40.5046 40.6209 47.4358 32.2372 47.9831L25.7698 53.6966C22.43 56.6471 17.1875 54.264 17.1875 49.7954V47.7259C10.2383 46.3391 5 40.178 5 32.7875V31.509C5 24.6348 9.18097 18.7419 15.1269 16.2581C16.0171 9.89608 21.4809 5 28.0882 5H40.5882C48.5476 5 55 11.4524 55 19.4118V21.9231C55 26.697 51.8373 30.7322 47.4928 32.0477ZM29.6706 43.5605L22.4684 49.9231C22.3591 50.0197 22.1875 49.9417 22.1875 49.7954V45.0347C22.1875 45.0008 22.1867 44.9671 22.185 44.9337C22.165 44.5211 22.0232 44.1408 21.7948 43.8281C21.4252 43.322 20.8289 42.9935 20.1562 42.9935C14.5471 42.9935 10 38.4241 10 32.7875V31.509C10 25.1663 15.1167 20.0245 21.4286 20.0245H31.0714C37.3833 20.0245 42.5 25.2146 42.5 31.5573C42.5 37.8469 37.4261 42.9935 31.1671 42.9935C30.6163 42.9935 30.0843 43.195 29.6706 43.5605Z" fill="white"/>
</svg>
