<svg width="20" height="20" viewBox="0 0 20 20" fill="none" xmlns="http://www.w3.org/2000/svg">
<path fill-rule="evenodd" clip-rule="evenodd" d="M10 0C4.47715 0 0 4.47715 0 10C0 15.5228 4.47715 20 10 20C15.5228 20 20 15.5228 20 10C20 4.47715 15.5228 0 10 0ZM2 10C2 5.58172 5.58172 2 10 2C14.4183 2 18 5.58172 18 10C18 14.4183 14.4183 18 10 18C5.58172 18 2 14.4183 2 10ZM6 7.33333C6 6.59695 6.59696 6 7.33336 6C8.06975 6 8.66671 6.59695 8.66671 7.33333C8.66671 8.06971 8.06975 8.66667 7.33336 8.66667C6.59696 8.66667 6 8.06971 6 7.33333ZM8.14151 13.4748C7.69519 13.9211 6.97156 13.9211 6.52524 13.4748C6.07892 13.0285 6.07892 12.3049 6.52524 11.8586L11.8587 6.52522C12.305 6.0789 13.0286 6.0789 13.4749 6.52522C13.9213 6.97153 13.9213 7.69515 13.4749 8.14146L8.14151 13.4748ZM11.3333 12.6667C11.3333 11.9303 11.9303 11.3333 12.6666 11.3333C13.403 11.3333 14 11.9303 14 12.6667C14 13.403 13.403 14 12.6666 14C11.9303 14 11.3333 13.403 11.3333 12.6667Z" fill="#FF5F00"/>
</svg>
