<svg width="60" height="60" viewBox="0 0 60 60" fill="none" xmlns="http://www.w3.org/2000/svg">
<path fill-rule="evenodd" clip-rule="evenodd" d="M30 41.7385C28.0447 41.7385 26.477 41.8763 25.1394 42.0806C19.6256 42.923 15 48.7767 15 54.782C15 56.2228 13.8807 57.3907 12.5 57.3907C11.1193 57.3907 10 56.2228 10 54.782C10 48.0175 14.0623 41.3731 19.8977 38.3904C15.4217 35.0829 12.5 29.6363 12.5 23.4777C12.5 13.3925 20.335 5.2168 30 5.2168C39.665 5.2168 47.5 13.3925 47.5 23.4777C47.5 29.6363 44.5783 35.0829 40.1023 38.3904C45.9377 41.3731 50 48.0175 50 54.782C50 56.2228 48.8807 57.3907 47.5 57.3907C46.1193 57.3907 45 56.2228 45 54.782C45 48.7767 40.3744 42.923 34.8606 42.0806C33.523 41.8763 31.9553 41.7385 30 41.7385ZM30 36.5211C23.0964 36.5211 17.5 30.6814 17.5 23.4777C17.5 16.274 23.0964 10.4342 30 10.4342C36.9036 10.4342 42.5 16.274 42.5 23.4777C42.5 30.6814 36.9036 36.5211 30 36.5211Z" fill="white"/>
</svg>
