<svg width="20" height="20" viewBox="0 0 20 20" fill="none" xmlns="http://www.w3.org/2000/svg">
<path fill-rule="evenodd" clip-rule="evenodd" d="M5.25314 3.33095C5.25316 3.33094 5.25336 3.33116 5.2537 3.33166ZM5.28903 3.38785L6.96175 6.04938C6.75962 6.24101 6.53914 6.43082 6.30186 6.6351C6.09792 6.81068 5.88157 6.99694 5.65378 7.20423C5.08921 7.718 4.98016 8.5443 5.34555 9.18736C7.27772 12.5878 9.91306 14.1352 11.0923 14.6907C11.8027 15.0254 12.5745 14.7613 13.0042 14.2143L14.1617 12.7409C14.1624 12.74 14.1623 12.7403 14.1619 12.7405C14.1618 12.7406 14.1626 12.7401 14.1644 12.7398C14.1662 12.7395 14.1679 12.7395 14.1693 12.7398C14.1704 12.74 14.1719 12.7404 14.1743 12.7419C14.8488 13.1581 15.7898 13.7239 16.6541 14.2028C16.4989 15.1401 16.1423 15.686 15.7491 16.0198C15.3363 16.3703 14.8023 16.5548 14.2068 16.6214C13.0178 16.7543 11.8107 16.3936 11.543 16.3057C11.2476 16.1547 9.62796 15.3022 7.89764 13.9206C6.11341 12.4961 4.32431 10.5976 3.64007 8.42011C3.14 6.82876 3.32857 5.70894 3.72161 4.9365C4.10156 4.18979 4.71643 3.68297 5.28903 3.38785ZM4.68393 1.81265C5.4722 1.43878 6.28731 1.82859 6.66698 2.4327L8.41688 5.21704C8.77065 5.77993 8.79491 6.6028 8.21978 7.1665C7.9733 7.40808 7.63037 7.70501 7.31126 7.98131C7.1361 8.13298 6.96811 8.27844 6.82718 8.40512C8.49011 11.3007 10.7133 12.6404 11.7245 13.1303L12.8501 11.6975C13.3816 11.021 14.3278 10.8629 15.0484 11.3076C15.715 11.7191 16.6365 12.2728 17.4716 12.7351C18.0286 13.0435 18.427 13.6863 18.3141 14.4122C18.1114 15.7157 17.5818 16.6652 16.8272 17.3058C16.0851 17.9357 15.2012 18.203 14.3915 18.2935C12.7988 18.4717 11.2754 17.9894 10.9972 17.8962C10.9268 17.8726 10.8684 17.8478 10.8055 17.8158C10.5069 17.6641 8.74692 16.7464 6.85847 15.2387C4.98966 13.7466 2.88209 11.5882 2.04595 8.92739C1.43176 6.97287 1.61345 5.38811 2.23343 4.16968C2.84254 2.97261 3.82896 2.21816 4.68393 1.81265Z" fill="white"/>
</svg>
