<svg width="25" height="25" viewBox="0 0 25 25" fill="none" xmlns="http://www.w3.org/2000/svg">
<path fill-rule="evenodd" clip-rule="evenodd" d="M5.37971 2.4974C5.37974 2.49738 5.38005 2.49771 5.38055 2.49847ZM5.43354 2.58276L7.94262 6.57504C7.63943 6.86249 7.30871 7.14721 6.95279 7.45363C6.64688 7.71699 6.32235 7.99638 5.98067 8.30732C5.13382 9.07797 4.97024 10.3174 5.51832 11.282C8.41658 16.3827 12.3696 18.7037 14.1384 19.537C15.204 20.039 16.3618 19.6429 17.0063 18.8225L18.7425 16.6124C18.7436 16.611 18.7435 16.6114 18.7428 16.6118C18.7427 16.6118 18.7439 16.6111 18.7466 16.6107C18.7492 16.6102 18.7519 16.6103 18.754 16.6107C18.7556 16.611 18.7578 16.6115 18.7614 16.6138C19.7731 17.2382 21.1847 18.0868 22.4812 18.8052C22.2484 20.2111 21.7134 21.03 21.1237 21.5307C20.5044 22.0564 19.7035 22.3331 18.8102 22.433C17.0267 22.6325 15.216 22.0914 14.8145 21.9596C14.3714 21.733 11.9419 20.4542 9.34646 18.382C6.67011 16.2451 3.98647 13.3973 2.96011 10.1311C2.21001 7.74411 2.49285 6.06438 3.08241 4.90573C3.65235 3.78565 4.57464 3.02543 5.43354 2.58276ZM4.52589 0.219956C5.70831 -0.340861 6.93096 0.243869 7.50046 1.15003L10.1253 5.32653C10.656 6.17088 10.6924 7.40518 9.82967 8.25073C9.45995 8.6131 8.94556 9.05849 8.46689 9.47295C8.20414 9.70045 7.95216 9.91864 7.74077 10.1087C10.2352 14.4521 13.57 16.4616 15.0867 17.1964L16.7752 15.0472C17.5723 14.0325 18.9917 13.7953 20.0726 14.4624C21.0725 15.0796 22.4548 15.9101 23.7075 16.6037C24.5429 17.0662 25.1405 18.0305 24.9712 19.1192C24.6671 21.0745 23.8727 22.4987 22.7408 23.4597C21.6277 24.4046 20.3018 24.8055 19.0872 24.9413C16.6982 25.2085 14.4131 24.4851 13.9959 24.3453C13.8902 24.3099 13.8025 24.2726 13.7083 24.2247C13.2603 23.9972 10.6204 22.6206 7.7877 20.359C4.98449 18.1209 1.82314 14.8833 0.568922 10.8921C-0.352362 7.96029 -0.0798286 5.58314 0.850141 3.75549C1.76381 1.95989 3.24344 0.828218 4.52589 0.219956Z" fill="#FF5F00"/>
</svg>
