<svg width="60" height="60" viewBox="0 0 60 60" fill="none" xmlns="http://www.w3.org/2000/svg">
<path d="M57.5 10C57.5 5.85788 54.1423 2.5 50 2.5H40C38.6193 2.5 37.5 3.6193 37.5 5C37.5 6.3807 38.6193 7.5 40 7.5H50C51.3807 7.5 52.5 8.6193 52.5 10V20C52.5 21.3807 53.6192 22.5 55 22.5C56.3808 22.5 57.5 21.3807 57.5 20V10Z" fill="white"/>
<path d="M57.5 40C57.5 38.6193 56.3808 37.5 55 37.5C53.6192 37.5 52.5 38.6193 52.5 40V50C52.5 51.3807 51.3807 52.5 50 52.5H40C38.6193 52.5 37.5 53.6192 37.5 55C37.5 56.3808 38.6193 57.5 40 57.5H50C54.1423 57.5 57.5 54.1423 57.5 50V40Z" fill="white"/>
<path d="M10 52.5C8.6193 52.5 7.5 51.3807 7.5 50V40C7.5 38.6193 6.3807 37.5 5 37.5C3.6193 37.5 2.5 38.6193 2.5 40V50C2.5 54.1423 5.85788 57.5 10 57.5H20C21.3807 57.5 22.5 56.3808 22.5 55C22.5 53.6192 21.3807 52.5 20 52.5H10Z" fill="white"/>
<path d="M2.5 20C2.5 21.3807 3.6193 22.5 5 22.5C6.3807 22.5 7.5 21.3807 7.5 20V10C7.5 8.6193 8.6193 7.5 10 7.5H20C21.3807 7.5 22.5 6.3807 22.5 5C22.5 3.6193 21.3807 2.5 20 2.5H10C5.85788 2.5 2.5 5.85788 2.5 10V20Z" fill="white"/>
<path fill-rule="evenodd" clip-rule="evenodd" d="M27.5 15C27.5 13.6193 26.3807 12.5 25 12.5H15C13.6193 12.5 12.5 13.6193 12.5 15V25C12.5 26.3807 13.6193 27.5 15 27.5H25C26.3807 27.5 27.5 26.3807 27.5 25V15ZM22.5 18.75C22.5 18.0596 21.9403 17.5 21.25 17.5H18.75C18.0596 17.5 17.5 18.0596 17.5 18.75V21.25C17.5 21.9403 18.0596 22.5 18.75 22.5H21.25C21.9403 22.5 22.5 21.9403 22.5 21.25V18.75Z" fill="white"/>
<path fill-rule="evenodd" clip-rule="evenodd" d="M45 32.5C46.3807 32.5 47.5 33.6193 47.5 35V45C47.5 46.3807 46.3807 47.5 45 47.5H35C33.6193 47.5 32.5 46.3807 32.5 45V35C32.5 33.6193 33.6193 32.5 35 32.5H45ZM37.5 38.75C37.5 38.0598 38.0598 37.5 38.75 37.5H41.25C41.9403 37.5 42.5 38.0598 42.5 38.75V41.25C42.5 41.9403 41.9403 42.5 41.25 42.5H38.75C38.0598 42.5 37.5 41.9403 37.5 41.25V38.75Z" fill="white"/>
<path d="M35 12.5C33.6193 12.5 32.5 13.6193 32.5 15C32.5 16.3807 33.6193 17.5 35 17.5H41.25C41.9403 17.5 42.5 18.0596 42.5 18.75V25C42.5 26.3807 43.6193 27.5 45 27.5C46.3807 27.5 47.5 26.3807 47.5 25V15C47.5 13.6193 46.3807 12.5 45 12.5H35Z" fill="white"/>
<path d="M35 20C33.6193 20 32.5 21.1193 32.5 22.5V25C32.5 26.3807 33.6193 27.5 35 27.5C36.3807 27.5 37.5 26.3807 37.5 25V22.5C37.5 21.1193 36.3807 20 35 20Z" fill="white"/>
<path d="M15 32.5C13.6193 32.5 12.5 33.6193 12.5 35V40C12.5 41.3807 13.6193 42.5 15 42.5C16.3807 42.5 17.5 41.3807 17.5 40V38.75C17.5 38.0598 18.0596 37.5 18.75 37.5H25C26.3807 37.5 27.5 36.3807 27.5 35C27.5 33.6193 26.3807 32.5 25 32.5H15Z" fill="white"/>
<path d="M25 42.5C23.6193 42.5 22.5 43.6193 22.5 45C22.5 46.3807 23.6193 47.5 25 47.5C26.3807 47.5 27.5 46.3807 27.5 45C27.5 43.6193 26.3807 42.5 25 42.5Z" fill="white"/>
</svg>
