<svg width="16" height="19" viewBox="0 0 16 19" fill="none" xmlns="http://www.w3.org/2000/svg">
<path d="M15.4246 16.9635L11.4054 12.267C12.4495 10.775 12.9628 8.87107 12.8392 6.94918C12.7156 5.02728 11.9646 3.2344 10.7415 1.9414C9.51842 0.648389 7.9168 -0.0458244 6.26795 0.00234944C4.61911 0.0505233 3.04918 0.837399 1.88291 2.20022C0.716631 3.56303 0.043237 5.39752 0.00201061 7.32424C-0.0392157 9.25095 0.55488 11.1225 1.66141 12.5517C2.76795 13.9809 4.30226 14.8585 5.94698 15.0029C7.59171 15.1473 9.22102 14.5475 10.4979 13.3275L14.5171 18.024L15.4246 16.9635ZM6.43891 13.524C5.42337 13.524 4.43063 13.1721 3.58623 12.5128C2.74183 11.8535 2.08371 10.9165 1.69507 9.82011C1.30644 8.72375 1.20476 7.51735 1.40288 6.35346C1.601 5.18958 2.09004 4.12048 2.80814 3.28137C3.52624 2.44225 4.44115 1.87081 5.43718 1.63929C6.43322 1.40778 7.46563 1.5266 8.40388 1.98073C9.34212 2.43485 10.144 3.20389 10.7083 4.19058C11.2725 5.17728 11.5736 6.33732 11.5736 7.52401C11.5721 9.11476 11.0306 10.6398 10.068 11.7647C9.10539 12.8895 7.80025 13.5222 6.43891 13.524Z" fill="#BCB5B5"/>
</svg>
