<svg width="10" height="10" viewBox="0 0 10 10" fill="none" xmlns="http://www.w3.org/2000/svg">
<path fill-rule="evenodd" clip-rule="evenodd" d="M0 3.75C0 5.82107 1.67893 7.5 3.75 7.5C4.61582 7.5 5.4131 7.20657 6.04784 6.71374C6.07175 6.76432 6.10462 6.81172 6.14645 6.85355L9.14645 9.85355C9.34171 10.0488 9.65829 10.0488 9.85355 9.85355C10.0488 9.65829 10.0488 9.34171 9.85355 9.14645L6.85355 6.14645C6.81172 6.10461 6.76432 6.07175 6.71374 6.04784C7.20657 5.4131 7.5 4.61582 7.5 3.75C7.5 1.67893 5.82107 0 3.75 0C1.67893 0 0 1.67893 0 3.75ZM1 3.75C1 2.23122 2.23122 1 3.75 1C5.26878 1 6.5 2.23122 6.5 3.75C6.5 5.26878 5.26878 6.5 3.75 6.5C2.23122 6.5 1 5.26878 1 3.75Z" fill="white"/>
</svg>
