<svg width="16" height="16" viewBox="0 0 16 16" fill="none" xmlns="http://www.w3.org/2000/svg">
<path fill-rule="evenodd" clip-rule="evenodd" d="M7.81017 11.7385C8.06757 11.4752 8.06283 11.0531 7.79957 10.7957C7.53632 10.5383 7.11423 10.5431 6.85682 10.8063L5.3335 12.3643V1.99967C5.3335 1.63148 5.03502 1.33301 4.66683 1.33301C4.29864 1.33301 4.00016 1.63148 4.00016 1.99967L4.00016 12.3643L2.47683 10.8063C2.21943 10.5431 1.79734 10.5383 1.53408 10.7957C1.27083 11.0531 1.26608 11.4752 1.52349 11.7385L4.19016 14.4658C4.31558 14.594 4.48742 14.6663 4.66683 14.6663C4.84624 14.6663 5.01807 14.594 5.1435 14.4658L7.81017 11.7385ZM14.4768 4.26087C14.7342 4.52413 14.7295 4.94621 14.4662 5.20362C14.203 5.46103 13.7809 5.45629 13.5235 5.19303L12.0002 3.63508V13.9997C12.0002 14.3679 11.7017 14.6663 11.3335 14.6663C10.9653 14.6663 10.6668 14.3679 10.6668 13.9997V3.63508L9.1435 5.19303C8.88609 5.45629 8.46401 5.46103 8.20075 5.20362C7.93749 4.94621 7.93275 4.52413 8.19016 4.26087L10.8568 1.5336C10.9823 1.40532 11.1541 1.33301 11.3335 1.33301C11.5129 1.33301 11.6847 1.40532 11.8102 1.5336L14.4768 4.26087Z" fill="#FF5F00"/>
</svg>
