<svg width="50" height="50" viewBox="0 0 50 50" fill="none" xmlns="http://www.w3.org/2000/svg">
<path fill-rule="evenodd" clip-rule="evenodd" d="M15 7.5H5V5H15V7.5ZM20 15V12.5H30V15C30 17.7614 27.7614 20 25 20C22.2386 20 20 17.7614 20 15ZM15 12.5V15C15 17.7614 12.7614 20 10 20C7.23858 20 5 17.7614 5 15V12.5H15ZM25 25C22.0133 25 19.3324 23.6906 17.5 21.6146C15.6676 23.6906 12.9867 25 10 25C9.13675 25 8.29905 24.8906 7.5 24.685V45H17.5V35C17.5 30.8579 20.8579 27.5 25 27.5C29.1421 27.5 32.5 30.8579 32.5 35V45H42.5V24.685C41.7009 24.8906 40.8632 25 40 25C37.0133 25 34.3324 23.6906 32.5 21.6146C30.6676 23.6906 27.9867 25 25 25ZM30 50H42.5C45.2614 50 47.5 47.7614 47.5 45V22.5C47.5 22.2365 47.4592 21.9826 47.3837 21.7441C49.0087 19.9659 50 17.5987 50 15V10V5C50 2.23858 47.7614 0 45 0H30H20H5C2.23858 0 0 2.23858 0 5V10V15C0 17.5987 0.991268 19.9659 2.61632 21.7441C2.54076 21.9826 2.5 22.2365 2.5 22.5V45C2.5 47.7614 4.73858 50 7.5 50H20H30ZM27.5 45V35C27.5 33.6193 26.3807 32.5 25 32.5C23.6193 32.5 22.5 33.6193 22.5 35V45H27.5ZM45 7.5V5H35V7.5H45ZM35 12.5V15C35 17.7614 37.2386 20 40 20C42.7614 20 45 17.7614 45 15V12.5H35ZM30 7.5H20V5L30 5V7.5Z" fill="white"/>
</svg>
