<svg width="50" height="45" viewBox="0 0 50 45" fill="none" xmlns="http://www.w3.org/2000/svg">
<path fill-rule="evenodd" clip-rule="evenodd" d="M50 37.5C50 41.6421 46.6421 45 42.5 45L7.5 45C3.35786 45 0 41.6421 0 37.5V22.5V13.75V7.50001C0 3.35788 3.35785 2.26177e-05 7.49999 1.47521e-05L15 0H25H42.5C46.6421 0 50 3.35787 50 7.5V37.5ZM45 7.5C45 6.11929 43.8807 5 42.5 5L25 5L15 5L7.5 5.00001C6.11928 5.00002 5 6.1193 5 7.50001L5 15H45V7.5ZM5 20H45V37.5C45 38.8807 43.8807 40 42.5 40H7.5C6.11929 40 5 38.8807 5 37.5L5 22.5L5 20Z" fill="white"/>
</svg>
