<svg width="160" height="115" viewBox="0 0 160 115" fill="none" xmlns="http://www.w3.org/2000/svg">
<path fill-rule="evenodd" clip-rule="evenodd" d="M159.167 95.625C159.167 106.187 148.477 114.75 135.292 114.75L23.875 114.75C10.6892 114.75 0 106.187 0 95.625V57.375V35.0625V19.125C0 8.5626 10.6892 5.76751e-05 23.875 3.76179e-05L47.75 0H79.5833H135.292C148.477 0 159.167 8.56256 159.167 19.125V95.625ZM143.25 19.125C143.25 15.6042 139.687 12.75 135.292 12.75L79.5833 12.75L47.75 12.75L23.875 12.75C19.4797 12.75 15.9167 15.6042 15.9167 19.125L15.9167 38.25H143.25V19.125ZM15.9167 51H143.25V95.625C143.25 99.1458 139.687 102 135.292 102H23.875C19.4797 102 15.9167 99.1458 15.9167 95.625L15.9167 57.375L15.9167 51Z" fill="white"/>
</svg>
