<svg width="25" height="25" viewBox="0 0 25 25" fill="none" xmlns="http://www.w3.org/2000/svg">
<path fill-rule="evenodd" clip-rule="evenodd" d="M12.5 25C5.59644 25 0 19.4036 0 12.5C0 5.59644 5.59644 0 12.5 0C19.4036 0 25 5.59644 25 12.5C25 19.4036 19.4036 25 12.5 25ZM12.5 2.5C6.97715 2.5 2.5 6.97715 2.5 12.5C2.5 18.0228 6.97715 22.5 12.5 22.5C18.0228 22.5 22.5 18.0228 22.5 12.5C22.5 6.97715 18.0228 2.5 12.5 2.5ZM17.1339 7.86612C17.622 8.35427 17.622 9.14573 17.1339 9.63388L14.2678 12.5L17.1339 15.3661C17.622 15.8543 17.622 16.6457 17.1339 17.1339C16.6457 17.622 15.8543 17.622 15.3661 17.1339L12.5 14.2678L9.63388 17.1339C9.14573 17.622 8.35427 17.622 7.86612 17.1339C7.37796 16.6457 7.37796 15.8543 7.86612 15.3661L10.7322 12.5L7.86612 9.63388C7.37796 9.14573 7.37796 8.35427 7.86612 7.86612C8.35427 7.37796 9.14573 7.37796 9.63388 7.86612L12.5 10.7322L15.3661 7.86612C15.8543 7.37796 16.6457 7.37796 17.1339 7.86612Z" fill="#BCB5B5"/>
</svg>
