<svg width="20" height="20" viewBox="0 0 20 20" fill="none" xmlns="http://www.w3.org/2000/svg">
<path fill-rule="evenodd" clip-rule="evenodd" d="M7.91341 5.94183C7.65549 5.79445 7.33862 5.7955 7.08168 5.9446C6.82476 6.0937 6.66663 6.3683 6.66663 6.66536V13.332C6.66663 13.6291 6.82476 13.9037 7.08168 14.0528C7.33862 14.2019 7.65549 14.2029 7.91341 14.0555L13.7467 10.7222C14.0064 10.5739 14.1666 10.2978 14.1666 9.9987C14.1666 9.69961 14.0064 9.42353 13.7467 9.2752L7.91341 5.94183ZM11.6536 9.9987L8.33329 11.896V8.10135L11.6536 9.9987Z" fill="#FF5F00"/>
<path fill-rule="evenodd" clip-rule="evenodd" d="M0 10C0 6.87522 0 5.31283 0.795762 4.21756C1.05276 3.86383 1.36383 3.55276 1.71756 3.29576C2.81283 2.5 4.37522 2.5 7.5 2.5H12.5C15.6248 2.5 17.1872 2.5 18.2824 3.29576C18.6362 3.55276 18.9472 3.86383 19.2042 4.21756C20 5.31283 20 6.87522 20 10C20 13.1248 20 14.6872 19.2042 15.7824C18.9472 16.1362 18.6362 16.4472 18.2824 16.7042C17.1872 17.5 15.6248 17.5 12.5 17.5H7.5C4.37522 17.5 2.81283 17.5 1.71756 16.7042C1.36383 16.4472 1.05276 16.1362 0.795762 15.7824C0 14.6872 0 13.1248 0 10ZM7.5 4.16667H12.5C14.0995 4.16667 15.1652 4.16896 15.9727 4.25644C16.7491 4.34055 17.0867 4.48707 17.3028 4.64412C17.515 4.79832 17.7017 4.98497 17.8559 5.1972C18.0129 5.41337 18.1594 5.75094 18.2436 6.52724C18.3311 7.33472 18.3333 8.4005 18.3333 10C18.3333 11.5995 18.3311 12.6652 18.2436 13.4727C18.1594 14.2491 18.0129 14.5867 17.8559 14.8028C17.7017 15.015 17.515 15.2017 17.3028 15.3559C17.0867 15.5129 16.7491 15.6594 15.9727 15.7436C15.1652 15.8311 14.0995 15.8333 12.5 15.8333H7.5C5.90048 15.8333 4.83472 15.8311 4.02724 15.7436C3.25094 15.6594 2.91337 15.5129 2.6972 15.3559C2.48497 15.2017 2.29832 15.015 2.14412 14.8028C1.98707 14.5867 1.84055 14.2491 1.75644 13.4727C1.66896 12.6652 1.66667 11.5995 1.66667 10C1.66667 8.4005 1.66896 7.33472 1.75644 6.52724C1.84055 5.75094 1.98707 5.41337 2.14412 5.1972C2.29832 4.98497 2.48497 4.79832 2.6972 4.64412C2.91337 4.48707 3.25094 4.34055 4.02724 4.25644C4.83472 4.16896 5.90048 4.16667 7.5 4.16667Z" fill="#FF5F00"/>
</svg>
