<svg width="20" height="17" viewBox="0 0 20 17" fill="none" xmlns="http://www.w3.org/2000/svg">
<path fill-rule="evenodd" clip-rule="evenodd" d="M7.91344 3.94378C7.65552 3.7964 7.33865 3.79746 7.08171 3.94656C6.82479 4.09566 6.66666 4.37026 6.66666 4.66732V11.334C6.66666 11.6311 6.82479 11.9056 7.08171 12.0547C7.33865 12.2038 7.65552 12.2049 7.91344 12.0575L13.7467 8.72415C14.0064 8.57582 14.1667 8.29973 14.1667 8.00065C14.1667 7.70157 14.0064 7.42548 13.7467 7.27715L7.91344 3.94378ZM11.6537 8.00065L8.33332 9.89798V6.1033L11.6537 8.00065Z" fill="white"/>
<path fill-rule="evenodd" clip-rule="evenodd" d="M0 8C0 4.87522 0 3.31283 0.795762 2.21756C1.05276 1.86383 1.36383 1.55276 1.71756 1.29576C2.81283 0.5 4.37522 0.5 7.5 0.5H12.5C15.6248 0.5 17.1872 0.5 18.2824 1.29576C18.6362 1.55276 18.9472 1.86383 19.2042 2.21756C20 3.31283 20 4.87522 20 8C20 11.1248 20 12.6872 19.2042 13.7824C18.9472 14.1362 18.6362 14.4472 18.2824 14.7042C17.1872 15.5 15.6248 15.5 12.5 15.5H7.5C4.37522 15.5 2.81283 15.5 1.71756 14.7042C1.36383 14.4472 1.05276 14.1362 0.795762 13.7824C0 12.6872 0 11.1248 0 8ZM7.5 2.16667H12.5C14.0995 2.16667 15.1652 2.16896 15.9727 2.25644C16.7491 2.34055 17.0867 2.48707 17.3028 2.64412C17.515 2.79832 17.7017 2.98497 17.8559 3.1972C18.0129 3.41337 18.1594 3.75094 18.2436 4.52724C18.3311 5.33472 18.3333 6.4005 18.3333 8C18.3333 9.5995 18.3311 10.6652 18.2436 11.4727C18.1594 12.2491 18.0129 12.5867 17.8559 12.8028C17.7017 13.015 17.515 13.2017 17.3028 13.3559C17.0867 13.5129 16.7491 13.6594 15.9727 13.7436C15.1652 13.8311 14.0995 13.8333 12.5 13.8333H7.5C5.90048 13.8333 4.83472 13.8311 4.02724 13.7436C3.25094 13.6594 2.91337 13.5129 2.6972 13.3559C2.48497 13.2017 2.29832 13.015 2.14412 12.8028C1.98707 12.5867 1.84055 12.2491 1.75644 11.4727C1.66896 10.6652 1.66667 9.5995 1.66667 8C1.66667 6.4005 1.66896 5.33472 1.75644 4.52724C1.84055 3.75094 1.98707 3.41337 2.14412 3.1972C2.29832 2.98497 2.48497 2.79832 2.6972 2.64412C2.91337 2.48707 3.25094 2.34055 4.02724 2.25644C4.83472 2.16896 5.90048 2.16667 7.5 2.16667Z" fill="white"/>
</svg>
