<svg width="445" height="500" viewBox="0 0 445 500" fill="none" xmlns="http://www.w3.org/2000/svg">
<path d="M266.077 313.847C265.502 313.847 265.03 313.347 265.02 312.721C265.01 312.088 265.474 311.565 266.058 311.554C267.103 311.533 268.159 311.499 269.197 311.451C269.779 311.427 270.273 311.916 270.298 312.548C270.322 313.181 269.869 313.716 269.286 313.743C268.231 313.791 267.158 313.826 266.096 313.847C266.09 313.847 266.083 313.847 266.077 313.847ZM259.913 313.81C259.902 313.81 259.892 313.81 259.881 313.809C258.818 313.776 257.743 313.728 256.687 313.666C256.104 313.632 255.656 313.092 255.688 312.459C255.719 311.827 256.22 311.342 256.8 311.376C257.84 311.436 258.897 311.484 259.943 311.517C260.527 311.535 260.986 312.064 260.969 312.697C260.952 313.318 260.482 313.81 259.913 313.81ZM275.391 313.302C274.85 313.302 274.389 312.855 274.34 312.259C274.287 311.628 274.716 311.071 275.298 311.014C276.338 310.912 277.391 310.795 278.426 310.666C279.007 310.593 279.531 311.044 279.598 311.674C279.664 312.303 279.248 312.872 278.668 312.944C277.615 313.075 276.545 313.195 275.488 313.298C275.455 313.301 275.423 313.302 275.391 313.302ZM250.599 313.151C250.563 313.151 250.527 313.149 250.491 313.145C249.434 313.029 248.365 312.896 247.314 312.752C246.735 312.673 246.324 312.099 246.398 311.47C246.471 310.842 247 310.396 247.58 310.477C248.614 310.619 249.665 310.749 250.704 310.863C251.285 310.927 251.708 311.49 251.65 312.12C251.594 312.711 251.134 313.151 250.599 313.151ZM284.651 312.029C284.143 312.029 283.694 311.63 283.609 311.067C283.515 310.443 283.905 309.853 284.481 309.75C285.514 309.566 286.556 309.367 287.579 309.156C288.153 309.038 288.706 309.447 288.814 310.069C288.923 310.691 288.546 311.292 287.973 311.409C286.933 311.623 285.873 311.826 284.824 312.013C284.766 312.024 284.708 312.029 284.651 312.029ZM241.352 311.763C241.291 311.763 241.23 311.757 241.168 311.745C240.121 311.545 239.064 311.329 238.026 311.102C237.453 310.977 237.083 310.372 237.198 309.751C237.314 309.13 237.873 308.729 238.444 308.854C239.465 309.077 240.505 309.29 241.534 309.486C242.11 309.596 242.494 310.19 242.393 310.814C242.302 311.371 241.856 311.763 241.352 311.763ZM293.802 310.026C293.324 310.026 292.891 309.673 292.775 309.147C292.638 308.531 292.988 307.912 293.556 307.764C294.571 307.5 295.597 307.218 296.604 306.926C297.168 306.763 297.748 307.127 297.898 307.739C298.049 308.351 297.713 308.979 297.149 309.142C296.125 309.439 295.082 309.725 294.05 309.994C293.967 310.016 293.883 310.026 293.802 310.026ZM232.223 309.646C232.138 309.646 232.051 309.635 231.964 309.611C230.937 309.33 229.897 309.03 228.873 308.721C228.311 308.551 227.982 307.918 228.139 307.308C228.296 306.698 228.879 306.342 229.442 306.512C230.448 306.816 231.471 307.111 232.481 307.388C233.047 307.543 233.391 308.166 233.248 308.78C233.127 309.3 232.696 309.646 232.223 309.646ZM302.793 307.303C302.345 307.303 301.929 306.992 301.786 306.504C301.609 305.901 301.915 305.256 302.472 305.063C303.464 304.72 304.468 304.357 305.456 303.985C306.007 303.778 306.61 304.095 306.801 304.693C306.993 305.291 306.7 305.945 306.149 306.152C305.144 306.53 304.124 306.899 303.115 307.248C303.008 307.285 302.9 307.303 302.793 307.303ZM223.261 306.811C223.151 306.811 223.039 306.793 222.928 306.753C221.916 306.388 220.896 306.005 219.895 305.615C219.346 305.4 219.061 304.743 219.259 304.147C219.457 303.551 220.063 303.243 220.612 303.457C221.595 303.841 222.599 304.217 223.594 304.576C224.149 304.775 224.449 305.424 224.265 306.025C224.117 306.507 223.705 306.811 223.261 306.811ZM311.576 303.872C311.157 303.872 310.761 303.6 310.595 303.153C310.377 302.565 310.64 301.897 311.182 301.661C312.145 301.241 313.119 300.801 314.074 300.354C314.611 300.103 315.233 300.371 315.464 300.953C315.695 301.534 315.448 302.209 314.912 302.46C313.94 302.914 312.95 303.362 311.97 303.789C311.842 303.845 311.708 303.872 311.576 303.872ZM214.492 303.261C214.357 303.261 214.22 303.233 214.087 303.173C213.106 302.731 212.115 302.268 211.142 301.798C210.608 301.54 210.368 300.863 210.606 300.284C210.843 299.705 211.468 299.445 212.002 299.703C212.959 300.165 213.933 300.62 214.899 301.055C215.438 301.298 215.693 301.97 215.469 302.554C215.3 302.995 214.907 303.261 214.492 303.261ZM320.084 299.764C319.692 299.764 319.317 299.528 319.133 299.122C318.876 298.553 319.093 297.866 319.618 297.588C320.554 297.09 321.496 296.574 322.417 296.054C322.935 295.762 323.574 295.98 323.844 296.541C324.113 297.103 323.912 297.796 323.394 298.088C322.458 298.617 321.5 299.142 320.548 299.648C320.398 299.727 320.24 299.764 320.084 299.764ZM205.992 299.026C205.832 299.026 205.669 298.986 205.516 298.903C204.567 298.383 203.611 297.843 202.674 297.299C202.159 296.999 201.966 296.304 202.242 295.746C202.518 295.188 203.158 294.978 203.673 295.278C204.595 295.813 205.535 296.344 206.469 296.855C206.99 297.14 207.2 297.83 206.937 298.395C206.751 298.795 206.378 299.026 205.992 299.026ZM328.297 294.993C327.933 294.993 327.579 294.79 327.383 294.424C327.088 293.877 327.259 293.175 327.763 292.856C328.664 292.286 329.569 291.697 330.455 291.104C330.952 290.772 331.603 290.939 331.91 291.478C332.217 292.017 332.062 292.723 331.565 293.056C330.665 293.658 329.744 294.257 328.829 294.837C328.661 294.943 328.478 294.993 328.297 294.993ZM197.804 294.13C197.619 294.13 197.432 294.078 197.261 293.967C196.349 293.373 195.432 292.76 194.536 292.144C194.043 291.805 193.897 291.096 194.209 290.561C194.522 290.027 195.176 289.868 195.669 290.207C196.55 290.813 197.452 291.416 198.35 292C198.85 292.326 199.013 293.03 198.712 293.573C198.514 293.932 198.164 294.13 197.804 294.13ZM336.174 289.585C335.837 289.585 335.505 289.41 335.3 289.086C334.97 288.563 335.093 287.85 335.575 287.492C336.434 286.854 337.298 286.194 338.144 285.532C338.617 285.161 339.278 285.277 339.62 285.79C339.962 286.304 339.855 287.02 339.382 287.391C338.522 288.064 337.643 288.735 336.77 289.383C336.588 289.519 336.379 289.585 336.174 289.585ZM189.971 288.604C189.76 288.604 189.548 288.536 189.363 288.395C188.495 287.733 187.622 287.049 186.769 286.363C186.299 285.986 186.201 285.268 186.549 284.759C186.896 284.25 187.558 284.143 188.028 284.52C188.867 285.195 189.726 285.868 190.58 286.519C191.058 286.884 191.172 287.599 190.836 288.117C190.63 288.434 190.303 288.604 189.971 288.604ZM343.671 283.568C343.36 283.568 343.052 283.42 342.844 283.136C342.48 282.641 342.555 281.919 343.011 281.525C343.828 280.818 344.647 280.092 345.444 279.367C345.892 278.96 346.559 279.024 346.934 279.509C347.309 279.994 347.25 280.717 346.803 281.124C345.992 281.862 345.16 282.599 344.33 283.318C344.135 283.486 343.902 283.568 343.671 283.568ZM182.53 282.478C182.295 282.478 182.058 282.393 181.861 282.219C181.038 281.489 180.214 280.739 179.41 279.99C178.968 279.577 178.918 278.853 179.298 278.373C179.679 277.892 180.346 277.837 180.789 278.251C181.579 278.987 182.39 279.725 183.2 280.443C183.652 280.844 183.719 281.567 183.349 282.057C183.14 282.334 182.837 282.478 182.53 282.478ZM350.751 276.977C350.466 276.977 350.182 276.853 349.974 276.608C349.578 276.142 349.604 275.417 350.033 274.987C350.801 274.219 351.569 273.43 352.317 272.644C352.736 272.203 353.406 272.214 353.812 272.669C354.219 273.123 354.209 273.849 353.789 274.29C353.029 275.09 352.248 275.891 351.468 276.672C351.265 276.876 351.007 276.977 350.751 276.977ZM175.521 275.787C175.26 275.787 174.999 275.683 174.795 275.473C174.025 274.683 173.253 273.871 172.5 273.058C172.086 272.612 172.084 271.886 172.496 271.437C172.907 270.988 173.577 270.986 173.991 271.432C174.732 272.231 175.491 273.03 176.248 273.807C176.672 274.243 176.691 274.968 176.289 275.428C176.081 275.666 175.802 275.787 175.521 275.787ZM357.375 269.845C357.116 269.845 356.857 269.742 356.653 269.535C356.227 269.102 356.205 268.376 356.604 267.914C357.319 267.086 358.033 266.239 358.727 265.396C359.116 264.924 359.784 264.882 360.22 265.304C360.655 265.726 360.694 266.45 360.305 266.923C359.6 267.78 358.874 268.641 358.147 269.482C357.939 269.723 357.658 269.845 357.375 269.845ZM168.979 268.566C168.692 268.566 168.407 268.44 168.198 268.193C167.483 267.345 166.768 266.475 166.071 265.606C165.688 265.128 165.734 264.404 166.175 263.989C166.616 263.573 167.284 263.623 167.667 264.101C168.352 264.955 169.056 265.811 169.759 266.646C170.153 267.113 170.123 267.839 169.692 268.266C169.489 268.467 169.234 268.566 168.979 268.566ZM363.51 262.21C363.276 262.21 363.041 262.126 362.845 261.955C362.391 261.556 362.321 260.834 362.689 260.342C363.346 259.461 364.002 258.56 364.639 257.663C364.995 257.161 365.659 257.067 366.122 257.453C366.584 257.84 366.671 258.56 366.315 259.061C365.667 259.973 365 260.89 364.332 261.785C364.123 262.065 363.818 262.21 363.51 262.21ZM162.937 260.854C162.624 260.854 162.315 260.705 162.106 260.418C161.45 259.516 160.794 258.592 160.158 257.673C159.808 257.166 159.902 256.448 160.369 256.067C160.837 255.687 161.499 255.79 161.85 256.297C162.475 257.201 163.12 258.11 163.766 258.997C164.128 259.494 164.05 260.215 163.591 260.608C163.397 260.774 163.166 260.854 162.937 260.854ZM369.121 254.11C368.912 254.11 368.702 254.044 368.518 253.905C368.038 253.543 367.92 252.828 368.254 252.309C368.85 251.379 369.445 250.428 370.021 249.482C370.343 248.953 370.999 248.808 371.486 249.156C371.973 249.505 372.107 250.217 371.786 250.745C371.2 251.707 370.596 252.674 369.99 253.619C369.784 253.939 369.455 254.11 369.121 254.11ZM157.427 252.693C157.088 252.693 156.756 252.517 156.551 252.189C155.958 251.241 155.367 250.269 154.792 249.3C154.477 248.768 154.619 248.058 155.11 247.716C155.602 247.373 156.256 247.527 156.571 248.06C157.136 249.013 157.718 249.969 158.302 250.903C158.629 251.427 158.503 252.14 158.02 252.495C157.838 252.629 157.631 252.693 157.427 252.693ZM374.177 245.587C373.994 245.587 373.808 245.535 373.639 245.426C373.137 245.103 372.971 244.4 373.269 243.855C373.803 242.878 374.333 241.882 374.842 240.895C375.127 240.342 375.772 240.145 376.282 240.455C376.791 240.764 376.973 241.463 376.688 242.016C376.169 243.019 375.631 244.031 375.088 245.025C374.89 245.386 374.538 245.587 374.177 245.587ZM152.48 244.124C152.114 244.124 151.759 243.918 151.563 243.55C151.034 242.555 150.509 241.539 150.003 240.532C149.724 239.975 149.914 239.279 150.427 238.976C150.939 238.673 151.582 238.879 151.861 239.435C152.358 240.427 152.875 241.425 153.395 242.404C153.687 242.953 153.513 243.654 153.007 243.97C152.841 244.074 152.659 244.124 152.48 244.124ZM378.65 236.683C378.491 236.683 378.331 236.644 378.179 236.562C377.656 236.28 377.444 235.591 377.704 235.024C378.17 234.011 378.631 232.975 379.075 231.946C379.322 231.372 379.951 231.124 380.481 231.393C381.01 231.661 381.238 232.344 380.991 232.917C380.539 233.964 380.07 235.017 379.597 236.048C379.412 236.45 379.038 236.683 378.65 236.683ZM148.121 235.192C147.728 235.192 147.351 234.954 147.169 234.545C146.708 233.51 146.253 232.457 145.817 231.413C145.576 230.836 145.811 230.157 146.343 229.895C146.875 229.634 147.502 229.89 147.743 230.467C148.172 231.493 148.619 232.529 149.073 233.546C149.327 234.116 149.107 234.802 148.581 235.078C148.433 235.156 148.276 235.192 148.121 235.192ZM382.513 227.444C382.379 227.444 382.243 227.416 382.112 227.358C381.572 227.117 381.313 226.448 381.535 225.862C381.931 224.812 382.322 223.742 382.695 222.68C382.903 222.088 383.514 221.792 384.059 222.017C384.605 222.243 384.879 222.905 384.671 223.497C384.292 224.576 383.895 225.664 383.492 226.732C383.324 227.175 382.929 227.444 382.513 227.444ZM144.377 225.946C143.956 225.946 143.558 225.672 143.393 225.221C143.003 224.153 142.619 223.063 142.252 221.982C142.051 221.387 142.332 220.728 142.88 220.51C143.428 220.291 144.035 220.596 144.237 221.19C144.597 222.253 144.975 223.325 145.359 224.376C145.575 224.965 145.309 225.632 144.766 225.865C144.638 225.92 144.506 225.946 144.377 225.946ZM385.742 217.916C385.633 217.916 385.523 217.898 385.414 217.859C384.859 217.663 384.556 217.015 384.737 216.413C385.06 215.34 385.376 214.244 385.675 213.158C385.843 212.551 386.432 212.206 386.992 212.388C387.551 212.569 387.869 213.208 387.702 213.815C387.397 214.92 387.076 216.034 386.747 217.125C386.602 217.609 386.188 217.916 385.742 217.916ZM141.257 216.404C140.807 216.404 140.39 216.09 140.248 215.6C139.931 214.503 139.622 213.385 139.329 212.279C139.168 211.67 139.493 211.035 140.054 210.86C140.616 210.686 141.201 211.038 141.362 211.646C141.65 212.735 141.954 213.835 142.266 214.914C142.441 215.518 142.131 216.161 141.574 216.351C141.469 216.387 141.362 216.404 141.257 216.404ZM388.312 208.183C388.228 208.183 388.143 208.172 388.058 208.149C387.491 207.997 387.145 207.376 387.285 206.761C387.535 205.663 387.776 204.545 388.001 203.44C388.127 202.821 388.691 202.431 389.262 202.567C389.832 202.704 390.192 203.316 390.066 203.934C389.837 205.059 389.592 206.195 389.338 207.311C389.219 207.834 388.787 208.183 388.312 208.183ZM138.791 206.639C138.311 206.639 137.877 206.283 137.762 205.755C137.519 204.634 137.287 203.495 137.07 202.369C136.95 201.749 137.317 201.142 137.889 201.012C138.459 200.882 139.02 201.28 139.14 201.9C139.353 203.007 139.582 204.128 139.821 205.23C139.954 205.847 139.602 206.464 139.033 206.609C138.952 206.629 138.871 206.639 138.791 206.639ZM390.218 198.272C390.159 198.272 390.099 198.267 390.039 198.256C389.463 198.149 389.076 197.557 389.175 196.933C389.35 195.82 389.515 194.687 389.665 193.564C389.749 192.937 390.286 192.502 390.864 192.594C391.441 192.685 391.842 193.267 391.758 193.893C391.605 195.035 391.437 196.188 391.259 197.319C391.171 197.877 390.724 198.272 390.218 198.272ZM136.989 196.706C136.479 196.706 136.029 196.303 135.947 195.739C135.78 194.605 135.625 193.451 135.484 192.308C135.406 191.68 135.813 191.103 136.392 191.019C136.972 190.935 137.502 191.376 137.58 192.004C137.719 193.128 137.872 194.264 138.035 195.379C138.127 196.004 137.733 196.592 137.157 196.691C137.101 196.701 137.045 196.706 136.989 196.706ZM391.452 188.238C391.418 188.238 391.384 188.236 391.349 188.232C390.768 188.172 390.343 187.611 390.399 186.981C390.499 185.854 390.588 184.71 390.663 183.582C390.704 182.95 391.211 182.476 391.793 182.52C392.375 182.565 392.814 183.114 392.772 183.746C392.696 184.893 392.606 186.056 392.504 187.201C392.451 187.794 391.99 188.238 391.452 188.238ZM135.861 186.657C135.318 186.657 134.856 186.205 134.809 185.607C134.719 184.466 134.641 183.302 134.577 182.149C134.541 181.517 134.985 180.973 135.568 180.935C136.155 180.897 136.652 181.378 136.688 182.01C136.751 183.145 136.828 184.29 136.916 185.413C136.966 186.044 136.534 186.599 135.952 186.653C135.922 186.655 135.891 186.657 135.861 186.657ZM392.013 178.133C392.004 178.133 391.996 178.132 391.987 178.132C391.403 178.117 390.941 177.591 390.955 176.958C390.981 175.826 390.994 174.679 390.994 173.547C390.994 173.505 390.996 173.464 391 173.423C390.996 173.383 390.994 173.342 390.994 173.3C390.992 172.165 390.977 171.017 390.95 169.889C390.935 169.256 391.395 168.729 391.979 168.713C392.563 168.693 393.049 169.196 393.064 169.829C393.091 170.976 393.106 172.143 393.108 173.296C393.108 173.339 393.106 173.381 393.102 173.422C393.106 173.463 393.108 173.505 393.108 173.547C393.108 174.697 393.095 175.864 393.069 177.014C393.056 177.637 392.585 178.133 392.013 178.133ZM135.406 176.544C134.828 176.544 134.356 176.04 134.349 175.412C134.341 174.791 134.338 174.163 134.338 173.547C134.338 173.012 134.34 172.478 134.346 171.944C134.352 171.316 134.824 170.81 135.403 170.81C135.407 170.81 135.411 170.81 135.415 170.811C135.999 170.818 136.467 171.337 136.46 171.97C136.455 172.495 136.452 173.021 136.452 173.547C136.452 174.154 136.456 174.771 136.463 175.382C136.471 176.016 136.003 176.536 135.419 176.544C135.415 176.544 135.41 176.544 135.406 176.544ZM135.619 166.422C135.598 166.422 135.577 166.422 135.556 166.421C134.973 166.384 134.528 165.841 134.562 165.209C134.624 164.059 134.701 162.895 134.789 161.75C134.837 161.119 135.348 160.651 135.93 160.703C136.512 160.755 136.944 161.309 136.896 161.94C136.81 163.067 136.735 164.212 136.674 165.343C136.64 165.952 136.174 166.422 135.619 166.422ZM391.699 164.327C391.151 164.327 390.687 163.868 390.646 163.265C390.569 162.133 390.478 160.99 390.376 159.866C390.319 159.236 390.744 158.675 391.325 158.613C391.909 158.552 392.424 159.012 392.481 159.642C392.584 160.784 392.677 161.946 392.755 163.096C392.798 163.728 392.36 164.278 391.778 164.324C391.752 164.326 391.725 164.327 391.699 164.327ZM136.502 156.344C136.456 156.344 136.409 156.341 136.362 156.335C135.783 156.252 135.376 155.676 135.452 155.048C135.59 153.908 135.744 152.753 135.909 151.616C136 150.99 136.542 150.563 137.117 150.661C137.694 150.759 138.088 151.346 137.998 151.972C137.836 153.09 137.685 154.226 137.549 155.347C137.479 155.924 137.024 156.344 136.502 156.344ZM390.677 154.265C390.161 154.265 389.709 153.855 389.632 153.285C389.48 152.166 389.313 151.033 389.136 149.917C389.037 149.293 389.423 148.7 389.998 148.592C390.573 148.484 391.121 148.903 391.22 149.527C391.4 150.662 391.57 151.814 391.724 152.951C391.809 153.578 391.41 154.161 390.832 154.253C390.78 154.261 390.728 154.265 390.677 154.265ZM138.057 146.362C137.986 146.362 137.914 146.355 137.842 146.339C137.27 146.21 136.902 145.603 137.02 144.983C137.236 143.852 137.467 142.713 137.707 141.596C137.84 140.979 138.408 140.596 138.977 140.74C139.545 140.883 139.899 141.5 139.766 142.117C139.531 143.215 139.303 144.336 139.091 145.448C138.988 145.99 138.548 146.362 138.057 146.362ZM388.983 144.31C388.498 144.31 388.062 143.946 387.952 143.412C387.724 142.305 387.482 141.188 387.23 140.092C387.089 139.478 387.434 138.855 388.001 138.702C388.567 138.549 389.141 138.924 389.282 139.538C389.538 140.652 389.785 141.788 390.016 142.914C390.143 143.532 389.784 144.145 389.214 144.282C389.136 144.301 389.059 144.31 388.983 144.31ZM140.28 136.53C140.184 136.53 140.087 136.516 139.99 136.486C139.429 136.313 139.103 135.678 139.263 135.069C139.553 133.962 139.86 132.843 140.176 131.746C140.35 131.141 140.944 130.804 141.5 130.992C142.058 131.181 142.369 131.823 142.195 132.428C141.884 133.508 141.582 134.608 141.296 135.697C141.164 136.201 140.741 136.53 140.28 136.53ZM386.622 134.515C386.168 134.515 385.748 134.195 385.61 133.699C385.31 132.618 384.993 131.523 384.666 130.445C384.484 129.843 384.786 129.195 385.341 128.998C385.895 128.8 386.493 129.128 386.675 129.73C387.007 130.826 387.33 131.939 387.635 133.038C387.803 133.644 387.486 134.284 386.927 134.466C386.826 134.5 386.723 134.515 386.622 134.515ZM143.167 126.885C143.046 126.885 142.924 126.862 142.804 126.815C142.256 126.597 141.974 125.939 142.174 125.344C142.539 124.262 142.922 123.168 143.314 122.092C143.528 121.502 144.142 121.214 144.685 121.446C145.228 121.678 145.495 122.344 145.281 122.933C144.896 123.991 144.519 125.067 144.16 126.131C144.003 126.596 143.598 126.885 143.167 126.885ZM383.606 124.935C383.181 124.935 382.78 124.654 382.619 124.197C382.246 123.141 381.855 122.075 381.457 121.028C381.235 120.442 381.492 119.772 382.032 119.531C382.572 119.289 383.19 119.569 383.413 120.154C383.817 121.219 384.214 122.303 384.593 123.377C384.802 123.969 384.529 124.632 383.984 124.858C383.86 124.91 383.732 124.935 383.606 124.935ZM146.701 117.488C146.556 117.488 146.408 117.455 146.267 117.386C145.734 117.126 145.498 116.447 145.738 115.869C146.176 114.817 146.632 113.757 147.093 112.719C147.347 112.148 147.979 111.909 148.505 112.184C149.031 112.459 149.252 113.144 148.998 113.715C148.545 114.735 148.096 115.778 147.665 116.813C147.489 117.237 147.104 117.488 146.701 117.488ZM379.957 115.632C379.56 115.632 379.179 115.388 378.999 114.972C378.556 113.948 378.096 112.918 377.632 111.911C377.37 111.345 377.582 110.656 378.105 110.373C378.627 110.09 379.262 110.319 379.523 110.885C379.995 111.909 380.463 112.956 380.913 113.997C381.162 114.571 380.934 115.253 380.406 115.523C380.26 115.597 380.107 115.632 379.957 115.632ZM150.858 108.403C150.688 108.403 150.515 108.358 150.355 108.264C149.841 107.962 149.651 107.266 149.93 106.709C150.436 105.696 150.962 104.676 151.493 103.677C151.784 103.127 152.43 102.939 152.936 103.254C153.442 103.57 153.617 104.271 153.326 104.82C152.804 105.803 152.287 106.807 151.788 107.803C151.597 108.186 151.233 108.403 150.858 108.403ZM375.694 106.648C375.324 106.648 374.965 106.437 374.771 106.062C374.261 105.077 373.733 104.085 373.201 103.115C372.903 102.571 373.068 101.867 373.57 101.543C374.071 101.22 374.72 101.399 375.019 101.943C375.559 102.929 376.097 103.937 376.615 104.939C376.901 105.491 376.72 106.19 376.211 106.501C376.047 106.6 375.869 106.648 375.694 106.648ZM155.613 99.6749C155.418 99.6749 155.22 99.6162 155.044 99.4934C154.552 99.1515 154.409 98.4422 154.724 97.909C155.297 96.9395 155.89 95.9641 156.485 95.0095C156.812 94.485 157.47 94.3476 157.954 94.7023C158.437 95.0573 158.564 95.7701 158.237 96.2947C157.651 97.2335 157.068 98.1931 156.505 99.1468C156.303 99.4885 155.962 99.6749 155.613 99.6749ZM370.838 98.0187C370.495 98.0187 370.158 97.8379 369.955 97.5042C369.381 96.5631 368.787 95.6153 368.191 94.6868C367.856 94.1673 367.974 93.4526 368.453 93.0903C368.932 92.7279 369.591 92.8555 369.925 93.3749C370.532 94.3188 371.136 95.2826 371.719 96.2393C372.041 96.7676 371.907 97.479 371.42 97.8283C371.241 97.957 371.038 98.0187 370.838 98.0187ZM160.94 91.3484C160.719 91.3484 160.497 91.2739 160.307 91.1194C159.839 90.7399 159.744 90.0212 160.094 89.5143C160.731 88.5917 161.387 87.6659 162.044 86.7623C162.405 86.2649 163.07 86.1793 163.528 86.5714C163.987 86.9634 164.066 87.6845 163.704 88.1818C163.059 89.0706 162.413 89.9814 161.787 90.8888C161.579 91.1897 161.261 91.3484 160.94 91.3484ZM365.414 89.7901C365.098 89.7901 364.785 89.6363 364.576 89.3435C363.941 88.4493 363.285 87.55 362.627 86.6703C362.26 86.1784 362.329 85.4563 362.783 85.0574C363.236 84.6585 363.902 84.734 364.27 85.2257C364.938 86.1199 365.605 87.0343 366.251 87.9432C366.608 88.4448 366.522 89.165 366.059 89.5515C365.867 89.7123 365.64 89.7901 365.414 89.7901ZM166.806 83.4655C166.56 83.4655 166.313 83.3731 166.113 83.1844C165.672 82.7691 165.625 82.0447 166.008 81.5667C166.704 80.6979 167.42 79.8264 168.135 78.9764C168.529 78.5087 169.197 78.4754 169.629 78.9026C170.06 79.3295 170.091 80.0547 169.697 80.5226C168.993 81.3588 168.289 82.2162 167.604 83.071C167.396 83.3317 167.101 83.4655 166.806 83.4655ZM359.454 82.0053C359.163 82.0053 358.874 81.8762 358.665 81.6226C357.972 80.7808 357.257 79.9348 356.542 79.1079C356.142 78.6461 356.163 77.9204 356.589 77.487C357.015 77.0536 357.684 77.0765 358.084 77.5383C358.811 78.3789 359.538 79.239 360.242 80.0947C360.631 80.567 360.594 81.2921 360.158 81.7139C359.956 81.9092 359.705 82.0053 359.454 82.0053ZM173.18 76.0664C172.909 76.0664 172.637 75.9538 172.431 75.7287C172.019 75.2799 172.02 74.5538 172.434 74.1069C173.185 73.2962 173.956 72.4835 174.727 71.6913C175.15 71.2554 175.82 71.2749 176.221 71.7347C176.623 72.1942 176.605 72.9201 176.181 73.3558C175.423 74.1351 174.664 74.9348 173.926 75.7325C173.72 75.9551 173.45 76.0664 173.18 76.0664ZM352.987 74.7049C352.723 74.7049 352.457 74.5976 352.252 74.3819C351.503 73.5956 350.734 72.8075 349.966 72.0389C349.536 71.6097 349.509 70.884 349.905 70.4186C350.301 69.953 350.97 69.9235 351.399 70.3527C352.18 71.134 352.962 71.9352 353.723 72.7345C354.143 73.1751 354.153 73.9009 353.747 74.356C353.54 74.5881 353.264 74.7049 352.987 74.7049ZM180.028 69.1884C179.731 69.1884 179.436 69.0533 179.226 68.7899C178.845 68.31 178.895 67.586 179.338 67.1726C180.139 66.4237 180.962 65.6739 181.784 64.944C182.236 64.5423 182.902 64.6143 183.272 65.1043C183.642 65.5941 183.576 66.3167 183.124 66.7181C182.316 67.4362 181.506 68.1738 180.717 68.9107C180.518 69.0969 180.272 69.1884 180.028 69.1884ZM346.049 67.9279C345.81 67.9279 345.569 67.8401 345.371 67.6605C344.571 66.9342 343.751 66.2079 342.933 65.502C342.476 65.1075 342.401 64.3862 342.765 63.8905C343.128 63.395 343.793 63.3132 344.25 63.7077C345.081 64.4254 345.915 65.1637 346.728 65.9019C347.176 66.3087 347.235 67.0318 346.86 67.5174C346.651 67.7882 346.351 67.9279 346.049 67.9279ZM187.313 62.8678C186.99 62.8678 186.671 62.7077 186.464 62.4045C186.116 61.8959 186.214 61.1776 186.683 60.8002C187.533 60.1155 188.404 59.4326 189.27 58.7704C189.747 58.4056 190.407 58.5295 190.743 59.0471C191.08 59.5647 190.965 60.2803 190.488 60.6451C189.636 61.2965 188.78 61.9683 187.943 62.6418C187.753 62.7941 187.532 62.8678 187.313 62.8678ZM338.674 61.7108C338.46 61.7108 338.244 61.6405 338.057 61.4943C337.208 60.8307 336.341 60.1704 335.48 59.5321C334.998 59.1746 334.875 58.4609 335.204 57.9383C335.534 57.4155 336.192 57.2812 336.674 57.6391C337.549 58.2882 338.43 58.9592 339.293 59.6337C339.767 60.004 339.874 60.7206 339.533 61.2344C339.326 61.5454 339.002 61.7108 338.674 61.7108ZM194.998 57.1382C194.648 57.1382 194.306 56.9501 194.104 56.6063C193.791 56.0716 193.937 55.363 194.43 55.0234C195.324 54.4072 196.237 53.7949 197.144 53.2035C197.645 52.8773 198.294 53.0526 198.595 53.5954C198.896 54.1383 198.734 54.8427 198.234 55.169C197.342 55.7508 196.443 56.3532 195.564 56.9593C195.388 57.0803 195.192 57.1382 194.998 57.1382ZM330.9 56.0878C330.711 56.0878 330.519 56.0329 330.347 55.9174C329.457 55.3237 328.548 54.7333 327.644 54.1627C327.139 53.8441 326.968 53.1422 327.262 52.5948C327.556 52.0475 328.203 51.862 328.708 52.1805C329.627 52.7606 330.551 53.3608 331.455 53.9645C331.953 54.2965 332.108 55.0028 331.802 55.5423C331.602 55.8941 331.255 56.0878 330.9 56.0878ZM203.041 52.0307C202.664 52.0307 202.3 51.8119 202.109 51.4266C201.832 50.8689 202.025 50.1735 202.539 49.8737C203.472 49.3298 204.423 48.7916 205.367 48.2736C205.888 47.9872 206.524 48.2138 206.788 48.7788C207.052 49.3439 206.843 50.0338 206.322 50.3197C205.394 50.8293 204.458 51.3589 203.541 51.8937C203.381 51.9865 203.21 52.0307 203.041 52.0307ZM322.766 51.0915C322.602 51.0915 322.435 51.05 322.279 50.9623C321.351 50.4394 320.403 49.9223 319.464 49.4251C318.939 49.1474 318.721 48.4608 318.977 47.8917C319.234 47.3226 319.867 47.0863 320.391 47.364C321.346 47.8694 322.31 48.3952 323.254 48.9269C323.772 49.2187 323.974 49.9109 323.705 50.4729C323.517 50.8661 323.148 51.0915 322.766 51.0915ZM211.4 47.5738C210.996 47.5738 210.61 47.3211 210.435 46.8948C210.196 46.3167 210.435 45.6383 210.968 45.38C211.933 44.912 212.918 44.4506 213.894 44.0086C214.433 43.7641 215.052 44.0403 215.277 44.6248C215.502 45.2093 215.248 45.8809 214.709 46.125C213.749 46.5599 212.781 47.0137 211.831 47.4739C211.691 47.5416 211.544 47.5738 211.4 47.5738ZM314.313 46.7505C314.174 46.7505 314.033 46.7204 313.897 46.6573C312.934 46.2089 311.953 45.7681 310.983 45.3469C310.441 45.1117 310.177 44.4443 310.394 43.8562C310.611 43.2684 311.227 42.9822 311.769 43.2177C312.755 43.6458 313.752 44.0942 314.731 44.5499C315.268 44.7997 315.516 45.474 315.285 46.056C315.113 46.4904 314.723 46.7505 314.313 46.7505ZM220.031 43.7925C219.599 43.7925 219.193 43.5026 219.037 43.0359C218.838 42.4405 219.122 41.783 219.671 41.5673C220.668 41.1757 221.684 40.7922 222.691 40.4273C223.245 40.227 223.844 40.5508 224.029 41.1515C224.214 41.7522 223.915 42.4017 223.361 42.6025C222.371 42.9612 221.372 43.3384 220.391 43.7237C220.272 43.7704 220.151 43.7925 220.031 43.7925ZM305.585 43.091C305.471 43.091 305.355 43.0706 305.24 43.0279C304.25 42.6576 303.242 42.2957 302.244 41.9523C301.687 41.7609 301.379 41.1162 301.556 40.5126C301.732 39.9089 302.326 39.5746 302.883 39.7663C303.898 40.1155 304.923 40.4835 305.93 40.8599C306.482 41.0663 306.775 41.7192 306.585 42.3178C306.434 42.7927 306.024 43.091 305.585 43.091ZM228.919 40.6971C228.457 40.6971 228.033 40.3663 227.901 39.8605C227.743 39.2508 228.071 38.6177 228.633 38.4462C229.654 38.1348 230.693 37.8331 231.722 37.5493C232.289 37.3934 232.863 37.7641 233.007 38.3778C233.151 38.9916 232.809 39.6158 232.243 39.772C231.232 40.0509 230.21 40.3478 229.205 40.6539C229.11 40.683 229.013 40.6971 228.919 40.6971ZM296.645 40.1397C296.555 40.1397 296.464 40.1273 296.373 40.1012C295.365 39.8117 294.338 39.5319 293.323 39.2697C292.755 39.1229 292.404 38.5045 292.539 37.8884C292.675 37.2724 293.244 36.8914 293.813 37.0386C294.845 37.3054 295.889 37.5899 296.914 37.884C297.479 38.046 297.815 38.6737 297.666 39.2859C297.54 39.7999 297.112 40.1397 296.645 40.1397ZM237.991 38.316C237.499 38.316 237.058 37.9413 236.956 37.3978C236.839 36.7773 237.209 36.1718 237.781 36.0453C238.821 35.8156 239.878 35.5972 240.922 35.3958C241.497 35.285 242.046 35.7007 242.148 36.3241C242.251 36.9477 241.867 37.543 241.292 37.6539C240.266 37.8518 239.226 38.0667 238.203 38.2926C238.132 38.3084 238.061 38.316 237.991 38.316ZM287.54 37.9097C287.475 37.9097 287.409 37.9032 287.343 37.8899C286.317 37.681 285.274 37.4834 284.245 37.3025C283.669 37.2011 283.277 36.6122 283.37 35.9871C283.464 35.362 284.006 34.9365 284.583 35.0386C285.629 35.2225 286.689 35.4234 287.733 35.6357C288.307 35.7525 288.685 36.3517 288.577 36.9743C288.482 37.5251 288.038 37.9097 287.54 37.9097ZM247.199 36.6603C246.675 36.6603 246.22 36.2383 246.152 35.6597C246.077 35.0316 246.487 34.4568 247.066 34.3762C248.117 34.2298 249.185 34.0954 250.242 33.9767C250.822 33.9115 251.342 34.3693 251.402 34.9992C251.462 35.6292 251.04 36.1926 250.46 36.2581C249.42 36.3748 248.369 36.5072 247.335 36.6511C247.29 36.6574 247.244 36.6603 247.199 36.6603ZM278.308 36.4064C278.269 36.4064 278.229 36.4039 278.188 36.399C277.151 36.2717 276.098 36.1569 275.059 36.0573C274.477 36.0016 274.047 35.4451 274.098 34.8141C274.15 34.1831 274.663 33.7166 275.245 33.7726C276.301 33.8736 277.371 33.9906 278.426 34.1198C279.006 34.1909 279.424 34.7588 279.358 35.3881C279.297 35.9738 278.839 36.4064 278.308 36.4064ZM256.495 35.7344C255.937 35.7344 255.471 35.2618 255.44 34.6512C255.407 34.019 255.854 33.4778 256.437 33.4427C257.495 33.3789 258.57 33.3284 259.631 33.2927C260.215 33.2712 260.703 33.7703 260.721 34.4032C260.739 35.0363 260.281 35.5654 259.697 35.585C258.653 35.6201 257.595 35.6698 256.554 35.7327C256.534 35.7337 256.514 35.7344 256.495 35.7344ZM269.001 35.633C268.986 35.633 268.972 35.6325 268.957 35.6319C267.915 35.5863 266.857 35.5536 265.813 35.5355C265.229 35.5254 264.764 35.0037 264.773 34.3706C264.782 33.7436 265.254 33.2422 265.83 33.2422C265.836 33.2422 265.842 33.2422 265.847 33.2424C266.908 33.2609 267.983 33.2939 269.043 33.3404C269.627 33.3661 270.08 33.8997 270.057 34.5326C270.034 35.1497 269.565 35.633 269.001 35.633Z" fill="#2E77E6"/>
<path d="M319.986 0H273.898V62.392H319.986V0Z" fill="#296ACC"/>
<path d="M325.963 6.44336H279.875V68.8354H325.963V6.44336Z" fill="white" stroke="#5896FA" stroke-width="7.9165" stroke-miterlimit="10"/>
<path d="M333.553 12.7676H287.465V75.1596H333.553V12.7676Z" fill="white" stroke="#5896FA" stroke-width="7.9165" stroke-miterlimit="10"/>
<path d="M339.076 19.2109H292.988V81.6029H339.076V19.2109Z" fill="#5896FA"/>
<path d="M331.906 29.4551H308.066V33.5131H331.906V29.4551Z" fill="#005CEA"/>
<path d="M331.906 38.9883H301.015V43.0463H331.906V38.9883Z" fill="#005CEA"/>
<path d="M331.906 48.5215H301.015V52.5795H331.906V48.5215Z" fill="#005CEA"/>
<path d="M331.906 58.0547H301.015V62.1127H331.906V58.0547Z" fill="#005CEA"/>
<path d="M331.906 67.5879H301.015V71.6459H331.906V67.5879Z" fill="#005CEA"/>
<path d="M184.297 80.3954C190.654 73.5011 190.654 62.3231 184.297 55.4288C177.94 48.5344 167.633 48.5344 161.276 55.4288C154.919 62.3231 154.919 73.5011 161.276 80.3954C167.633 87.2898 177.94 87.2898 184.297 80.3954Z" fill="#AAE0FF"/>
<path d="M198.471 84.6997C200.582 80.9034 201.901 76.8012 202.46 72.661L203.673 72.8535L206.067 73.2354L206.098 73.2381C206.744 68.5012 206.524 63.7104 205.469 59.1331L201.907 60.09C200.951 55.9489 199.268 52.0029 196.868 48.5254L199.821 46.1451C197.294 42.4257 194.052 39.1744 190.181 36.6428L188.279 40.0633C184.766 37.7659 180.996 36.3428 177.179 35.7366L177.711 31.791C173.343 31.0899 168.919 31.3416 164.706 32.4733L165.588 36.3367C161.769 37.3731 158.131 39.199 154.925 41.8016L152.73 38.5995C149.301 41.3392 146.302 44.8558 143.968 49.0539L147.123 51.1169C145.004 54.9264 143.692 59.0151 143.133 63.1553L140.559 62.7442L139.507 62.586L139.495 62.5782C138.849 67.3147 139.081 72.1135 140.124 76.683L143.686 75.7263C144.642 79.8676 146.337 83.821 148.737 87.2987L145.784 89.679C148.311 93.3984 151.541 96.6422 155.412 99.1737L157.314 95.753C160.827 98.0502 164.609 99.4813 168.426 100.088L168.008 103.154L167.894 104.033C172.262 104.734 176.674 104.475 180.887 103.343L180.006 99.4798C183.824 98.4434 187.469 96.6047 190.688 94.0096L192.882 97.2117C196.3 94.4643 199.291 90.9605 201.625 86.7624L198.471 84.6997ZM164.389 83.0293C156.683 77.9896 154.207 67.147 158.854 58.7897C163.494 50.4455 173.491 47.7608 181.197 52.8005C188.891 57.8324 191.367 68.6748 186.727 77.019C182.08 85.3761 172.083 88.0612 164.389 83.0293Z" fill="#005CEA"/>
<path d="M137.55 82.3575C136.362 80.4108 134.861 78.8034 133.172 77.5797L133.531 76.9977L134.239 75.8489L134.247 75.8336C132.316 74.43 130.166 73.4609 127.921 72.9709L127.535 75.0242C125.504 74.5813 123.393 74.5579 121.326 75.0099L120.949 72.9492C118.747 73.4117 116.589 74.3492 114.604 75.7736L115.675 77.5275C113.873 78.82 112.397 80.443 111.269 82.2748L109.659 81.1087C108.365 83.2031 107.475 85.5417 107.02 87.9705L108.913 88.3886C108.505 90.5923 108.483 92.8813 108.9 95.1233L107 95.5315C107.426 97.9193 108.291 100.26 109.604 102.413L111.222 101.252C112.413 103.206 113.91 104.806 115.599 106.03L114.837 107.264L114.53 107.771L114.524 107.776C116.455 109.179 118.611 110.144 120.85 110.639L121.236 108.585C123.268 109.028 125.384 109.047 127.451 108.595L127.828 110.656C130.03 110.193 132.182 109.26 134.167 107.836L133.097 106.082C134.898 104.789 136.38 103.162 137.508 101.33L138.758 102.238L139.118 102.496C140.412 100.402 141.296 98.0676 141.751 95.6388L139.858 95.2207C140.267 93.0172 140.284 90.7215 139.873 88.4753L141.774 88.0671C141.341 85.6837 140.481 83.3493 139.167 81.1969L137.55 82.3575ZM129.116 99.5579C125.165 102.393 119.851 101.22 117.236 96.9352C114.626 92.6568 115.708 86.8939 119.659 84.0583C123.604 81.2272 128.917 82.4004 131.528 86.6789C134.142 90.9641 133.061 96.7269 129.116 99.5579Z" fill="#1251B3"/>
<path d="M403.776 118.231H364.203C363.37 118.231 362.695 117.499 362.695 116.595V92.2435C362.695 91.3398 363.37 90.6074 364.203 90.6074H403.776C404.609 90.6074 405.285 91.3398 405.285 92.2435V116.595C405.285 117.499 404.61 118.231 403.776 118.231Z" fill="#005CEA"/>
<path d="M405.285 95.8242H362.695V100.591H405.285V95.8242Z" fill="#5896FA"/>
<path d="M372.45 112.932H366.188C365.79 112.932 365.467 113.282 365.467 113.713C365.467 114.145 365.79 114.495 366.188 114.495H372.45C372.848 114.495 373.171 114.145 373.171 113.713C373.171 113.282 372.848 112.932 372.45 112.932Z" fill="#D1F5FF"/>
<path d="M382.08 112.932H375.818C375.42 112.932 375.097 113.282 375.097 113.713C375.097 114.145 375.42 114.495 375.818 114.495H382.08C382.478 114.495 382.801 114.145 382.801 113.713C382.801 113.282 382.478 112.932 382.08 112.932Z" fill="#D1F5FF"/>
<path d="M391.71 112.932H385.448C385.05 112.932 384.727 113.282 384.727 113.713C384.727 114.145 385.05 114.495 385.448 114.495H391.71C392.108 114.495 392.431 114.145 392.431 113.713C392.431 113.282 392.108 112.932 391.71 112.932Z" fill="#D1F5FF"/>
<path d="M401.34 112.932H395.078C394.68 112.932 394.357 113.282 394.357 113.713C394.357 114.145 394.68 114.495 395.078 114.495H401.34C401.738 114.495 402.061 114.145 402.061 113.713C402.061 113.282 401.738 112.932 401.34 112.932Z" fill="#D1F5FF"/>
<path d="M365.9 92.0098C365.46 92.0098 365.104 92.3961 365.104 92.8724V93.1754C365.104 93.6519 365.46 94.038 365.9 94.038C366.339 94.038 366.695 93.6517 366.695 93.1754V92.8724C366.695 92.3961 366.339 92.0098 365.9 92.0098Z" fill="#D1F5FF"/>
<path d="M367.613 93.0241C367.613 93.5842 368.032 94.0384 368.549 94.0384H371.863C372.38 94.0384 372.799 93.5844 372.799 93.0241C372.799 92.464 372.38 92.0098 371.863 92.0098H368.549C368.032 92.0098 367.613 92.4638 367.613 93.0241Z" fill="#D1F5FF"/>
<path d="M367.179 103.154H371.46C372.146 103.154 372.702 103.758 372.702 104.502V108.505C372.702 109.249 372.146 109.852 371.46 109.852H367.179C366.492 109.852 365.936 109.249 365.936 108.505V104.502C365.936 103.758 366.492 103.154 367.179 103.154Z" fill="#5896FA"/>
<path d="M385.043 193.344V190.094C385.043 188.618 383.941 187.422 382.58 187.422H356.354C354.993 187.422 353.89 188.618 353.89 190.094V247.537H421.729V193.344H385.043Z" fill="#1251B3"/>
<path d="M424.551 195.318H358.028L353.89 247.538H421.399L424.551 195.318Z" fill="white"/>
<path d="M421.73 247.537H353.89L361.089 195.967C361.299 194.459 362.495 193.344 363.902 193.344H425.987C427.727 193.344 429.06 195.024 428.799 196.891L421.73 247.537Z" fill="#3383FF"/>
<path d="M428.832 212.175C437.417 212.175 444.376 204.627 444.376 195.317C444.376 186.006 437.417 178.459 428.832 178.459C420.248 178.459 413.288 186.006 413.288 195.317C413.288 204.627 420.248 212.175 428.832 212.175Z" fill="#005CEA"/>
<path d="M428.832 212.792C419.947 212.792 412.717 204.953 412.717 195.317C412.717 185.683 419.947 177.844 428.832 177.844C437.717 177.844 444.947 185.683 444.947 195.317C444.947 204.953 437.717 212.792 428.832 212.792ZM428.832 179.076C420.573 179.076 413.858 186.361 413.858 195.317C413.858 204.272 420.573 211.559 428.832 211.559C437.091 211.559 443.807 204.272 443.807 195.317C443.807 186.361 437.091 179.076 428.832 179.076Z" fill="white"/>
<path d="M421.35 192.268V204.204C421.35 205.533 436.314 205.533 436.314 204.204V192.268H421.35ZM429.589 198.606V201.99C429.589 202.44 429.251 202.814 428.836 202.814C428.413 202.814 428.075 202.44 428.075 201.99V198.599C427.434 198.286 426.984 197.583 426.984 196.774C426.984 195.666 427.815 194.773 428.836 194.773C429.857 194.773 430.681 195.666 430.681 196.774C430.681 197.59 430.237 198.293 429.589 198.606Z" fill="white"/>
<path d="M435.004 191.417H433.49V190.614C433.49 187.829 431.4 185.563 428.833 185.563C426.265 185.563 424.176 187.829 424.176 190.614V191.417H422.661V190.614C422.661 186.923 425.43 183.92 428.833 183.92C432.236 183.92 435.004 186.923 435.004 190.614V191.417Z" fill="white"/>
<path d="M141.063 174.634C141.045 174.612 141.025 174.592 141.007 174.57C133.392 183.417 121.241 190.667 108.238 193.756C108.234 194.698 108.212 199.916 108.114 223.967C107.981 256.051 136.135 271.729 140.506 274.135C127.665 217.761 137.725 183.664 141.063 174.634Z" fill="#2E77E6"/>
<path d="M141.063 174.635C137.725 183.665 127.665 217.762 140.506 274.136C144.741 272.022 173.25 256.368 173.383 224.284C173.482 200.233 173.503 195.015 173.507 194.073C160.561 190.866 148.608 183.526 141.063 174.635Z" fill="#2E77E6"/>
<path d="M141.063 174.634C141.045 174.612 141.025 174.592 141.007 174.57C133.391 183.417 121.241 190.667 108.238 193.756C108.234 194.698 108.213 199.916 108.114 223.967C107.982 256.051 136.136 271.729 140.506 274.135C144.741 272.021 173.25 256.367 173.383 224.283C173.482 200.232 173.503 195.014 173.507 194.072C160.561 190.865 148.608 183.525 141.063 174.634Z" stroke="white" stroke-width="11.8596" stroke-miterlimit="10"/>
<path d="M140.963 268.183L140.048 268.126C136.991 266.403 131.011 262.592 125.301 256.434C116.559 246.996 112.151 236.096 112.202 224.035L112.312 197.47L113.134 197.239C123.654 194.298 133.251 188.893 140.158 182.023L140.935 181.248L141.681 182.057L140.963 182.963L141.713 182.088C148.562 189.002 158.093 194.476 168.55 197.509L169.371 197.744L169.26 224.309C169.21 236.371 164.714 247.227 155.898 256.578C150.325 262.487 144.467 266.208 141.47 267.901L140.963 268.183ZM114.507 199.319L114.404 224.043C114.358 235.444 118.547 245.77 126.854 254.738C132.058 260.355 137.496 263.941 140.562 265.72C143.454 264.08 149.041 260.507 154.357 254.872C162.739 245.983 167.012 235.696 167.058 224.3L167.16 199.572C157.023 196.5 147.761 191.191 140.896 184.516C133.98 191.117 124.677 196.338 114.507 199.319Z" fill="#4D94FF"/>
<path d="M127.774 219.613V240.672C127.774 243.017 154.174 243.017 154.174 240.672V219.613H127.774ZM142.309 230.796V236.765C142.309 237.56 141.713 238.22 140.98 238.22C140.235 238.22 139.639 237.56 139.639 236.765V230.783C138.508 230.23 137.713 228.991 137.713 227.563C137.713 225.609 139.179 224.033 140.98 224.033C142.781 224.033 144.235 225.609 144.235 227.563C144.235 229.004 143.452 230.244 142.309 230.796Z" fill="white"/>
<path d="M151.863 218.112H149.191V216.694C149.191 211.78 145.505 207.783 140.975 207.783C136.445 207.783 132.759 211.78 132.759 216.694V218.112H130.087V216.694C130.087 210.182 134.971 204.885 140.975 204.885C146.978 204.885 151.863 210.182 151.863 216.694V218.112Z" fill="white"/>
<path d="M304.236 147.751C304.375 146.637 304.472 145.508 304.472 144.352C304.472 130.455 294.085 119.189 281.271 119.189C271.658 119.189 263.411 125.53 259.89 134.565C257.025 131.799 253.262 130.104 249.124 130.104C240.17 130.104 232.911 137.976 232.911 147.687H229.885C221.275 147.687 214.231 155.327 214.231 164.664C214.231 174.002 221.275 181.642 229.885 181.642H303.081C311.69 181.642 318.735 174.002 318.735 164.665C318.735 155.75 312.31 148.4 304.236 147.751Z" fill="white"/>
<path d="M266.322 179.687L258.154 169.766L249.985 179.687H254.33V190.514H261.978V179.687H266.322Z" fill="#66B8FF"/>
<path d="M265.079 182.325L273.248 192.246L281.416 182.325H277.072V171.498H269.423V182.325H265.079Z" fill="#66B8FF"/>
<path d="M225.75 293.939L189.378 345.802C184.867 366.006 195.08 384.176 214.315 388.96L298.883 346.918L225.75 293.939Z" fill="#FFA04D"/>
<path d="M198.114 326.269L2.21265 436.501C-11.094 443.399 37.8757 516.435 88.6063 493.104L216.925 387.49C242.13 378.38 223.318 317.159 198.114 326.269Z" fill="#FFA04D"/>
<path d="M229.461 303.297C229.461 303.297 334.775 217.091 344.08 233.867C354.738 253.079 243.512 327.261 243.512 327.261L229.461 303.297Z" fill="#FFA04D"/>
<path d="M234.612 393.766L310.468 393.269C315.202 393.238 319.031 388.86 319.022 383.496L318.738 205.635C318.729 200.463 314.961 196.261 310.319 196.246L235.937 196C231.258 195.985 227.432 200.18 227.393 205.377L226.044 384.06C226.003 389.449 229.84 393.797 234.612 393.766Z" fill="white"/>
<path d="M233.565 392.472C233.88 392.515 234.203 392.535 234.523 392.533L310.356 391.95C314.424 391.919 317.748 388.081 317.741 383.399L317.479 205.733C317.473 201.217 314.201 197.532 310.211 197.514L235.833 197.186C235.717 197.185 235.6 197.188 235.484 197.193C233.612 197.281 231.863 198.147 230.556 199.63C229.219 201.144 228.476 203.152 228.46 205.286L227.13 384.15C227.099 388.389 229.855 391.967 233.565 392.472Z" fill="#33201B"/>
<path d="M231.082 206.582L229.803 384.823L315.232 384.304L315.014 206.582H231.082Z" fill="white"/>
<path d="M289.272 314.312H300.478V302.159H289.272V314.312Z" stroke="#007880" stroke-width="4.9361" stroke-miterlimit="10"/>
<path d="M274.502 314.312H285.708V302.159H274.502V314.312Z" stroke="#007880" stroke-width="4.9361" stroke-miterlimit="10"/>
<path d="M259.733 314.312H270.939V302.159H259.733V314.312Z" stroke="#007880" stroke-width="4.9361" stroke-miterlimit="10"/>
<path d="M244.963 314.312H256.169V302.159H244.963V314.312Z" stroke="#007880" stroke-width="4.9361" stroke-miterlimit="10"/>
<path d="M294.993 310.997C296.275 310.997 297.314 309.87 297.314 308.48C297.314 307.09 296.275 305.963 294.993 305.963C293.711 305.963 292.672 307.09 292.672 308.48C292.672 309.87 293.711 310.997 294.993 310.997Z" fill="#4D4D4D"/>
<path d="M280.192 310.997C281.474 310.997 282.513 309.87 282.513 308.48C282.513 307.09 281.474 305.963 280.192 305.963C278.91 305.963 277.871 307.09 277.871 308.48C277.871 309.87 278.91 310.997 280.192 310.997Z" fill="#4D4D4D"/>
<path d="M265.391 310.997C266.673 310.997 267.712 309.87 267.712 308.48C267.712 307.09 266.673 305.963 265.391 305.963C264.109 305.963 263.07 307.09 263.07 308.48C263.07 309.87 264.109 310.997 265.391 310.997Z" fill="#4D4D4D"/>
<path d="M250.326 310.997C251.608 310.997 252.647 309.87 252.647 308.48C252.647 307.09 251.608 305.963 250.326 305.963C249.044 305.963 248.005 307.09 248.005 308.48C248.005 309.87 249.044 310.997 250.326 310.997Z" fill="#4D4D4D"/>
<path d="M268.004 248.937V246.503C268.004 245.398 267.178 244.502 266.159 244.502H246.517C245.498 244.502 244.672 245.398 244.672 246.503V289.525H295.48V248.937H268.004Z" fill="white"/>
<path d="M268.167 248.937V246.503C268.167 245.398 267.341 244.502 266.322 244.502H246.68C245.661 244.502 244.835 245.398 244.835 246.503V289.525H295.643V248.937H268.167Z" fill="#BFE1FF"/>
<path d="M268.625 248.922V246.488C268.625 245.382 267.8 244.486 266.781 244.486H247.139C246.12 244.486 245.293 245.382 245.293 246.488V289.51H296.102V248.922H268.625Z" fill="#1A5280"/>
<path d="M246.537 250.619V289.526H293.603V250.428L246.537 250.619Z" fill="white"/>
<path d="M248.717 250.619V289.526H296.187V250.428L248.717 250.619Z" fill="#1480CC"/>
<path d="M298.069 248.938H251.263C250.303 248.938 249.595 249.638 249.457 250.606V289.526H300.54V251.594C300.552 250.196 299.381 248.938 298.069 248.938Z" fill="#BFE1FF"/>
<path d="M291.731 238.249L257.186 238.354L257.26 266.826L291.805 266.721L291.731 238.249Z" fill="#CCE7FF"/>
<path d="M290.832 239.18L258.055 239.279L258.122 265.454L290.9 265.355L290.832 239.18Z" fill="#3397FF"/>
<path d="M260.884 263.344L281.948 263.28L270.431 251.297L260.884 263.344Z" fill="#E3EEFF"/>
<path d="M270.462 263.315L288.16 263.261L278.557 253.357L270.462 263.315Z" fill="#E3EEFF"/>
<path d="M278.731 250.502C279.684 249.468 279.684 247.793 278.731 246.76C277.778 245.727 276.234 245.727 275.281 246.76C274.329 247.793 274.329 249.468 275.281 250.502C276.234 251.535 277.778 251.535 278.731 250.502Z" fill="#E3EEFF"/>
<path d="M297.091 231.705L265.065 231.816L265.155 262.021L297.18 261.91L297.091 231.705Z" fill="#CCE7FF"/>
<path d="M296.161 232.7L265.954 232.805L266.036 260.572L296.243 260.468L296.161 232.7Z" fill="#198AFF"/>
<path d="M280.957 236.629H268.926V237.775H280.957V236.629Z" fill="#CCE5FF"/>
<path d="M293.402 239.725H268.926V240.871H293.402V239.725Z" fill="#CCE5FF"/>
<path d="M293.402 242.877H268.926V244.023H293.402V242.877Z" fill="#CCE5FF"/>
<path d="M293.402 246.23H268.926V247.377H293.402V246.23Z" fill="#CCE5FF"/>
<path d="M300.769 251.6V289.529H250.013V250.602C250.156 249.638 250.861 248.939 251.812 248.939H298.306C299.614 248.939 300.779 250.192 300.769 251.6Z" fill="#66B8FF"/>
<path d="M249.95 289.006H244.829V289.527H249.95V289.006Z" fill="#BFE1FF"/>
<path d="M281.801 267.495C282.477 262.975 279.647 258.717 275.48 257.984C271.313 257.25 267.387 260.319 266.711 264.839C266.035 269.358 268.864 273.616 273.031 274.35C277.198 275.083 281.125 272.014 281.801 267.495Z" fill="white"/>
<path d="M274.258 265.866C274.927 265.866 275.546 265.512 275.941 264.972C276.232 264.581 276.405 264.078 276.405 263.519C276.405 262.234 275.443 261.172 274.258 261.172C273.055 261.172 272.093 262.234 272.093 263.519C272.093 264.078 272.265 264.581 272.557 264.972C272.952 265.512 273.57 265.866 274.258 265.866Z" fill="#275880"/>
<path d="M278.06 270.049C278.06 271.53 270.434 271.53 270.434 270.049L270.436 268.323C270.738 265.963 277.44 265.864 278.062 268.323L278.06 270.049Z" fill="#275880"/>
<path d="M286.798 278.746H261.697V280.258H286.798V278.746Z" fill="white"/>
<path d="M283.854 281.887H264.641V283.399H283.854V281.887Z" fill="white"/>
<path d="M283.044 337.072H300.375V325.779H283.044V337.072Z" fill="#AAE0FF"/>
<path d="M263.397 337.072H280.728V325.779H263.397V337.072Z" fill="#AAE0FF"/>
<path d="M243.75 337.072H261.081V325.779H243.75V337.072Z" fill="#AAE0FF"/>
<path d="M283.044 350.361H300.375V339.068H283.044V350.361Z" fill="#AAE0FF"/>
<path d="M263.397 350.361H280.728V339.068H263.397V350.361Z" fill="#AAE0FF"/>
<path d="M243.75 350.361H261.081V339.068H243.75V350.361Z" fill="#AAE0FF"/>
<path d="M283.044 363.504H300.375V352.211H283.044V363.504Z" fill="#AAE0FF"/>
<path d="M263.397 363.504H280.728V352.211H263.397V363.504Z" fill="#AAE0FF"/>
<path d="M263.397 376.793H280.728V365.5H263.397V376.793Z" fill="#AAE0FF"/>
<path d="M243.75 363.504H261.081V352.211H243.75V363.504Z" fill="#AAE0FF"/>
<path d="M319.022 269.391C319.022 269.391 341.494 279.121 327.271 298.713C313.048 318.305 305.713 298.713 314.029 282.858C317.1 277.002 319.022 269.391 319.022 269.391Z" fill="#FFA04D"/>
<path d="M319.022 291.475C319.022 291.475 341.494 301.205 327.271 320.797C313.048 340.389 305.713 320.797 314.029 304.942C317.1 299.086 319.022 291.475 319.022 291.475Z" fill="#FFA04D"/>
<path d="M319.514 330.32C319.514 330.32 337.046 337.912 325.949 353.196C314.853 368.481 309.131 353.196 315.618 340.827C318.015 336.259 319.514 330.32 319.514 330.32Z" fill="#FFA04D"/>
<path d="M191.262 343.135C203.375 311.072 229.803 250.509 229.803 250.509C229.803 250.509 236.787 247.796 239.173 261.972C241.559 276.147 230.154 303.876 230.154 303.876C230.154 303.876 245.437 371.877 212.674 377.118C189.913 380.76 183.827 356.481 191.262 343.135Z" fill="#FFA04D"/>
<path d="M314.437 421.078C314.437 421.078 266.665 339.323 273.6 329.278C280.536 319.232 336.218 410.799 336.218 410.799L314.437 421.078Z" fill="#FFA04D"/>
<path d="M296.424 434.929C300.909 442.595 346.867 476.75 346.867 476.75C384.193 455.947 319.685 418.245 319.685 418.245C319.685 418.245 333.37 388.962 319.475 386.107C309.333 384.019 303.26 392.019 300.724 396.489C300.375 397.099 300.095 397.644 299.877 398.089C299.509 398.845 299.33 399.31 299.33 399.31C299.33 399.31 291.937 427.258 296.424 434.929Z" fill="#FFA04D"/>
<path d="M309.581 425.026L314.387 420.991L347.261 477.299L392.004 447.123C392.004 447.123 378.324 381.523 371.247 373.246C364.171 364.969 354.823 360.984 354.823 360.984C346.335 357.213 343.338 361.709 339.544 361.096C330.88 359.701 326.974 368.09 324.491 367.478C321.658 366.779 318.006 367.558 314.917 369.189C313.583 369.892 312.357 370.756 311.345 371.732L311.337 371.742C310.298 372.736 309.488 373.852 309.028 375.024L295.477 380.227L299.779 393.898L299.335 394.026L300.447 396.018L309.581 425.026Z" fill="#FFA04D"/>
<path d="M307.328 420.993C311.303 433.437 319.921 430.903 316.725 423.594L300.593 396.723C300.244 397.333 300.094 397.646 299.877 398.09C304.643 406.088 307.328 420.993 307.328 420.993Z" fill="#CC6004"/>
<path d="M349.585 478.997C401.987 523.527 432.309 483.989 429.329 470.023L387.319 435.348L337.108 469.419L349.585 478.997Z" fill="#FFA04D"/>
</svg>
