<svg width="480" height="460" viewBox="0 0 480 460" fill="none" xmlns="http://www.w3.org/2000/svg">
<rect width="480" height="460" rx="20" fill="url(#paint0_linear_205_1407)"/>
<ellipse cx="112.5" cy="363.5" rx="70.5" ry="68.5" fill="#FC872F"/>
<ellipse cx="378.5" cy="87" rx="59.5" ry="59" fill="#FD9241"/>
<path fill-rule="evenodd" clip-rule="evenodd" d="M320.083 267.75C320.083 278.312 309.394 286.875 296.208 286.875L184.792 286.875C171.606 286.875 160.917 278.312 160.917 267.75V229.5V207.187V191.25C160.917 180.688 171.606 172.125 184.792 172.125L208.667 172.125H240.5H296.208C309.394 172.125 320.083 180.688 320.083 191.25V267.75ZM304.167 191.25C304.167 187.729 300.604 184.875 296.208 184.875L240.5 184.875L208.667 184.875L184.792 184.875C180.396 184.875 176.833 187.729 176.833 191.25L176.833 210.375H304.167V191.25ZM176.833 223.125H304.167V267.75C304.167 271.271 300.604 274.125 296.208 274.125H184.792C180.396 274.125 176.833 271.271 176.833 267.75L176.833 229.5L176.833 223.125Z" fill="white"/>
<defs>
<linearGradient id="paint0_linear_205_1407" x1="21" y1="19" x2="465" y2="460" gradientUnits="userSpaceOnUse">
<stop stop-color="#FF9019"/>
<stop offset="1" stop-color="#FA6D19"/>
</linearGradient>
</defs>
</svg>
