<svg width="100" height="100" viewBox="0 0 100 100" fill="none" xmlns="http://www.w3.org/2000/svg">
<rect width="100" height="100" rx="20" fill="url(#paint0_linear_437_4396)"/>
<g opacity="0.91">
<path fill-rule="evenodd" clip-rule="evenodd" d="M73.3334 64C73.3334 67.866 70.1994 71 66.3334 71L33.6667 71C29.8007 71 26.6667 67.866 26.6667 64V50V41.8333V36C26.6667 32.134 29.8007 29 33.6667 29L40.6667 29H50.0001H66.3334C70.1994 29 73.3334 32.134 73.3334 36V64ZM68.6668 36C68.6668 34.7113 67.6221 33.6667 66.3334 33.6667L50.0001 33.6667L40.6667 33.6667L33.6667 33.6667C32.3781 33.6667 31.3334 34.7114 31.3334 36L31.3334 43H68.6668V36ZM31.3334 47.6667H68.6668V64C68.6668 65.2887 67.6221 66.3333 66.3334 66.3333H33.6667C32.3781 66.3333 31.3334 65.2887 31.3334 64L31.3334 50L31.3334 47.6667Z" fill="white"/>
</g>
<circle cx="19" cy="81" r="14" fill="#FC872F"/>
<circle cx="82" cy="16" r="9" fill="#FD9241"/>
<defs>
<linearGradient id="paint0_linear_437_4396" x1="4.375" y1="4.13044" x2="100.782" y2="95.8958" gradientUnits="userSpaceOnUse">
<stop stop-color="#FF9019"/>
<stop offset="1" stop-color="#FA6D19"/>
</linearGradient>
</defs>
</svg>
