<svg width="397" height="300" viewBox="0 0 397 300" fill="none" xmlns="http://www.w3.org/2000/svg">
<path d="M364.637 82.5119C362.723 71.2559 358.991 60.4619 351.139 50.6279C336.656 32.3579 310.454 21.3179 283.958 15.7199C261.726 11.0279 237.779 9.67187 215.603 14.5199C191.259 19.8419 170.829 32.0939 148.907 41.6999C132.859 48.6292 116.105 54.5801 98.8054 59.4959C84.8468 63.5339 67.1089 65.7959 55.6356 73.4639C48.6134 78.2008 42.3869 83.5709 37.0957 89.4539C15.6735 113.04 8.73397 143.172 12.0053 171.3C14.3158 190.896 21.4459 210.726 37.4133 226.248C59.8596 248.034 98.3925 258.768 134.75 256.062C176.038 252.99 215.142 234.348 256.176 238.824C276.606 241.05 296.154 248.982 316.703 247.506C336.958 246.054 354.291 235.506 366.51 223.236C376.308 213.378 382.827 201.456 383.431 189.036C384.09 175.602 376.038 163.35 371.997 150.522C364.97 128.1 368.487 105.162 364.637 82.5119Z" fill="#A2D9FE"/>
<path opacity="0.7" d="M364.637 82.5119C362.723 71.2559 358.991 60.4619 351.139 50.6279C336.656 32.3579 310.454 21.3179 283.958 15.7199C261.726 11.0279 237.779 9.67187 215.603 14.5199C191.259 19.8419 170.829 32.0939 148.907 41.6999C132.859 48.6292 116.105 54.5801 98.8054 59.4959C84.8468 63.5339 67.1089 65.7959 55.6356 73.4639C48.6134 78.2008 42.3869 83.5709 37.0957 89.4539C15.6735 113.04 8.73397 143.172 12.0053 171.3C14.3158 190.896 21.4459 210.726 37.4133 226.248C59.8596 248.034 98.3925 258.768 134.75 256.062C176.038 252.99 215.142 234.348 256.176 238.824C276.606 241.05 296.154 248.982 316.703 247.506C336.958 246.054 354.291 235.506 366.51 223.236C376.308 213.378 382.827 201.456 383.431 189.036C384.09 175.602 376.038 163.35 371.997 150.522C364.97 128.1 368.487 105.162 364.637 82.5119Z" fill="white"/>
<path d="M265.934 189.144H381.811V185.844H265.934V189.144Z" stroke="#263238" stroke-linecap="round" stroke-linejoin="round"/>
<path d="M271.31 278.4H376.435V189.24H271.31V278.4Z" stroke="#263238" stroke-linecap="round" stroke-linejoin="round"/>
<path d="M275.097 212.736H372.783V193.392H275.097V212.736Z" stroke="#263238" stroke-linecap="round" stroke-linejoin="round"/>
<path d="M319.22 204.84H328.986V201.276H319.22V204.84Z" fill="#263238" stroke="#263238" stroke-linecap="round" stroke-linejoin="round"/>
<path d="M275.097 237.174H372.783V217.83H275.097V237.174Z" stroke="#263238" stroke-linecap="round" stroke-linejoin="round"/>
<path d="M319.22 229.284H328.986V225.72H319.22V229.284Z" fill="#263238" stroke="#263238" stroke-linecap="round" stroke-linejoin="round"/>
<path d="M275.097 261.72H372.783V242.376H275.097V261.72Z" stroke="#263238" stroke-linecap="round" stroke-linejoin="round"/>
<path d="M319.22 253.83H328.986V250.266H319.22V253.83Z" fill="#263238" stroke="#263238" stroke-linecap="round" stroke-linejoin="round"/>
<path d="M328.716 146.838C329.899 147.228 332.797 147.18 332.797 147.18C332.797 147.18 332.178 145.746 332.122 145.656C331.487 144.654 329.478 142.992 327.843 143.16C327.57 143.193 327.31 143.268 327.078 143.381C326.847 143.495 326.65 143.644 326.5 143.819C326.35 143.994 326.251 144.191 326.209 144.397C326.166 144.603 326.182 144.813 326.255 145.014C326.467 145.434 326.797 145.815 327.221 146.13C327.646 146.444 328.156 146.686 328.716 146.838Z" fill="#263238"/>
<path d="M357.991 147.318C357.991 147.318 358.515 145.866 358.531 145.77C358.737 144.666 358.269 142.446 356.784 141.9C356.533 141.815 356.261 141.771 355.986 141.771C355.71 141.771 355.438 141.815 355.187 141.9C354.936 141.985 354.712 142.109 354.528 142.264C354.345 142.419 354.207 142.602 354.124 142.8C353.992 143.237 353.986 143.691 354.108 144.13C354.23 144.57 354.477 144.984 354.831 145.344C355.537 146.148 357.983 147.318 357.991 147.318Z" fill="#263238"/>
<path d="M366.637 139.386C364.994 139.254 363.041 140.952 362.445 141.966C362.39 142.056 361.794 143.502 361.826 143.502C361.516 143.766 361.183 144.054 360.833 144.378C360.19 144.978 359.476 145.65 358.761 146.43C357.976 147.259 357.258 148.123 356.609 149.016C355.871 150.016 355.254 151.064 354.767 152.148C354.767 152.148 354.767 152.148 354.767 152.184C354.767 151.818 354.767 150.798 354.767 150.72C354.577 149.616 353.354 147.564 351.726 147.336C351.455 147.305 351.179 147.317 350.914 147.372C350.65 147.426 350.404 147.522 350.192 147.654C349.98 147.785 349.807 147.948 349.684 148.134C349.561 148.319 349.492 148.521 349.479 148.728C349.506 149.177 349.662 149.616 349.936 150.015C350.21 150.414 350.596 150.763 351.067 151.038C351.996 151.638 354.561 152.268 354.767 152.316C354.31 153.426 353.946 154.556 353.679 155.7C353.529 156.372 353.394 157.044 353.274 157.722C353.274 157.41 353.274 157.122 353.274 157.086C353.084 155.982 351.861 153.93 350.241 153.708C349.97 153.675 349.693 153.685 349.428 153.739C349.163 153.793 348.915 153.888 348.702 154.019C348.489 154.15 348.315 154.313 348.192 154.499C348.069 154.684 347.999 154.887 347.986 155.094C348.013 155.543 348.169 155.983 348.443 156.382C348.717 156.781 349.103 157.13 349.574 157.404C350.679 157.957 351.889 158.378 353.163 158.652C353.124 158.916 353.076 159.174 353.036 159.438C352.838 160.686 352.647 161.94 352.409 163.158C352.33 163.59 352.226 164.01 352.123 164.436C352.123 164.154 352.123 163.914 352.123 163.878C351.933 162.774 350.71 160.728 349.082 160.5C348.812 160.468 348.535 160.479 348.271 160.533C348.007 160.587 347.76 160.683 347.548 160.813C347.336 160.944 347.163 161.107 347.04 161.292C346.917 161.477 346.847 161.679 346.835 161.886C346.861 162.335 347.017 162.775 347.292 163.174C347.566 163.573 347.952 163.922 348.423 164.196C349.495 164.732 350.671 165.137 351.909 165.396C351.79 165.828 351.671 166.26 351.528 166.674C351.417 166.95 351.345 167.226 351.218 167.502C351.091 167.778 350.98 168.054 350.869 168.324C350.622 168.84 350.368 169.374 350.075 169.872C349.9 170.214 349.725 170.544 349.551 170.874C349.638 170.448 349.789 169.608 349.789 169.536C349.771 168.556 349.421 167.595 348.772 166.746C348.787 166.516 348.733 166.287 348.613 166.075C348.494 165.864 348.314 165.675 348.085 165.523C347.856 165.372 347.585 165.261 347.291 165.2C346.998 165.138 346.69 165.127 346.39 165.168C344.802 165.492 343.786 167.604 343.707 168.72C343.707 168.786 343.762 169.5 343.81 169.95C343.723 169.692 343.651 169.434 343.564 169.164C343.397 168.63 343.207 168.102 343.008 167.538C342.905 167.262 342.794 166.986 342.682 166.71C342.571 166.434 342.42 166.152 342.293 165.87C341.984 165.216 341.619 164.568 341.237 163.92C342.526 163.716 343.766 163.364 344.914 162.876C345.408 162.628 345.825 162.302 346.135 161.919C346.445 161.537 346.64 161.108 346.708 160.662C346.716 160.455 346.665 160.249 346.56 160.057C346.455 159.865 346.298 159.692 346.099 159.55C345.9 159.407 345.663 159.298 345.404 159.229C345.145 159.16 344.87 159.133 344.596 159.15C342.952 159.288 341.531 161.262 341.237 162.354C341.237 162.42 341.118 163.224 341.079 163.662C340.84 163.272 340.61 162.888 340.356 162.498C339.626 161.382 338.832 160.272 338.053 159.156C337.815 158.82 337.585 158.478 337.347 158.136C337.569 158.094 340.181 157.638 341.158 157.068C341.653 156.82 342.069 156.494 342.379 156.111C342.689 155.729 342.885 155.3 342.952 154.854C342.96 154.647 342.91 154.441 342.805 154.249C342.7 154.057 342.543 153.884 342.343 153.742C342.144 153.599 341.907 153.49 341.648 153.421C341.389 153.352 341.114 153.325 340.84 153.342C339.205 153.48 337.776 155.454 337.482 156.546C337.482 156.624 337.323 157.776 337.307 158.07C336.791 157.32 336.283 156.57 335.822 155.808C335.203 154.788 334.672 153.737 334.234 152.664C334.338 152.664 337.069 152.178 338.069 151.596C338.564 151.348 338.981 151.022 339.291 150.639C339.601 150.257 339.796 149.828 339.864 149.382C339.871 149.175 339.821 148.969 339.716 148.777C339.611 148.585 339.454 148.412 339.255 148.27C339.055 148.127 338.819 148.018 338.56 147.949C338.301 147.88 338.025 147.853 337.752 147.87C336.116 148.008 334.687 149.982 334.393 151.068C334.393 151.14 334.266 152.022 334.226 152.442H334.139C333.725 151.354 333.443 150.239 333.297 149.112C333.202 148.512 333.162 147.912 333.139 147.312C334.472 147.219 335.779 146.972 337.013 146.58C337.541 146.373 338.002 146.082 338.366 145.727C338.729 145.371 338.986 144.96 339.117 144.522C339.154 144.317 339.134 144.108 339.057 143.909C338.98 143.71 338.848 143.526 338.671 143.368C338.493 143.21 338.274 143.082 338.026 142.993C337.779 142.903 337.51 142.854 337.236 142.848C335.584 142.848 333.885 144.69 333.432 145.752C333.432 145.806 333.242 146.412 333.131 146.856C333.131 146.598 333.131 146.328 333.131 146.076C333.131 145.128 333.21 144.276 333.289 143.502C333.337 143.07 333.393 142.674 333.448 142.302C334.569 141.757 335.573 141.085 336.426 140.31C336.768 139.943 336.999 139.525 337.105 139.083C337.211 138.642 337.187 138.188 337.037 137.754C336.944 137.559 336.798 137.381 336.609 137.232C336.419 137.082 336.19 136.964 335.936 136.886C335.683 136.807 335.41 136.77 335.136 136.776C334.862 136.781 334.593 136.831 334.345 136.92C332.885 137.52 332.495 139.722 332.757 140.82C332.757 140.916 333.329 142.374 333.353 142.362C333.289 142.716 333.226 143.094 333.162 143.508C333.067 144.27 332.964 145.134 332.932 146.082C332.887 147.103 332.918 148.124 333.027 149.142C333.144 150.281 333.394 151.409 333.774 152.514V152.556C333.512 152.244 332.75 151.404 332.678 151.356C331.717 150.516 329.192 149.316 327.676 149.802C327.427 149.888 327.205 150.013 327.024 150.169C326.844 150.324 326.708 150.506 326.626 150.704C326.545 150.901 326.519 151.109 326.551 151.315C326.582 151.52 326.671 151.718 326.81 151.896C327.157 152.261 327.604 152.564 328.121 152.784C328.638 153.005 329.212 153.138 329.804 153.174C331.035 153.306 333.615 152.742 333.821 152.694C334.255 153.813 334.786 154.91 335.409 155.976C335.767 156.576 336.148 157.212 336.545 157.83L336.061 157.308C335.092 156.462 332.575 155.268 331.058 155.754C330.809 155.84 330.586 155.964 330.404 156.119C330.223 156.275 330.087 156.457 330.005 156.655C329.923 156.852 329.898 157.061 329.93 157.267C329.963 157.472 330.052 157.67 330.193 157.848C330.539 158.213 330.986 158.516 331.503 158.736C332.02 158.957 332.594 159.09 333.186 159.126C334.512 159.126 335.829 158.972 337.093 158.67C337.252 158.904 337.402 159.144 337.553 159.378C338.347 160.506 339.054 161.628 339.753 162.744C339.999 163.134 340.221 163.53 340.443 163.944C340.237 163.71 340.054 163.518 340.023 163.488C339.062 162.648 336.537 161.448 335.02 161.934C334.771 162.021 334.549 162.147 334.368 162.302C334.188 162.458 334.052 162.641 333.97 162.839C333.889 163.037 333.863 163.245 333.895 163.451C333.927 163.657 334.015 163.856 334.155 164.034C334.503 164.397 334.95 164.698 335.467 164.918C335.984 165.138 336.557 165.27 337.148 165.306C338.438 165.31 339.72 165.164 340.952 164.874C341.166 165.282 341.38 165.69 341.563 166.074C341.674 166.35 341.817 166.614 341.912 166.896L342.222 167.724C342.389 168.258 342.563 168.804 342.714 169.332C342.817 169.692 342.913 170.04 343.008 170.388C342.77 169.998 342.285 169.23 342.214 169.188C341.42 168.246 339.181 166.788 337.585 167.082C337.322 167.139 337.077 167.238 336.867 167.371C336.657 167.504 336.487 167.669 336.366 167.855C336.246 168.041 336.178 168.244 336.168 168.451C336.158 168.658 336.205 168.864 336.307 169.056C336.577 169.455 336.96 169.806 337.427 170.082C337.895 170.359 338.436 170.555 339.014 170.658C340.354 170.813 341.716 170.813 343.056 170.658C343.214 171.258 343.357 171.804 343.476 172.338C343.746 173.508 343.953 174.558 344.112 175.452H337.609V185.784H354.712V175.434H348.098C348.526 174.714 348.995 173.898 349.487 172.992C349.789 172.434 350.098 171.834 350.408 171.222C350.718 171.27 353.259 171.66 354.442 171.456C355.027 171.388 355.585 171.223 356.078 170.974C356.57 170.726 356.984 170.399 357.292 170.016C357.415 169.831 357.485 169.628 357.497 169.421C357.509 169.214 357.462 169.007 357.361 168.815C357.26 168.622 357.106 168.448 356.909 168.303C356.713 168.159 356.478 168.047 356.22 167.976C354.632 167.574 352.25 168.918 351.393 169.818C351.337 169.866 350.861 170.49 350.599 170.886C350.726 170.634 350.853 170.388 350.972 170.13C351.226 169.614 351.456 169.092 351.702 168.54C351.814 168.264 351.917 167.988 352.028 167.712C352.139 167.436 352.226 167.112 352.322 166.848C352.536 166.17 352.711 165.48 352.862 164.778C354.083 165.15 355.375 165.375 356.689 165.444C357.282 165.445 357.869 165.347 358.407 165.157C358.944 164.967 359.421 164.69 359.801 164.346C359.959 164.177 360.068 163.984 360.121 163.78C360.174 163.577 360.17 163.367 360.108 163.165C360.047 162.963 359.93 162.773 359.765 162.608C359.6 162.442 359.39 162.305 359.15 162.204C357.681 161.634 355.053 162.69 354.005 163.476C353.941 163.524 353.274 164.148 352.917 164.502C353.005 164.076 353.092 163.656 353.163 163.23C353.37 161.994 353.521 160.734 353.687 159.486C353.735 159.102 353.791 158.718 353.846 158.334C354.053 158.394 356.57 159.102 357.816 159.036C358.912 158.976 360.293 158.676 360.929 157.938C361.085 157.768 361.193 157.575 361.244 157.371C361.296 157.168 361.291 156.958 361.229 156.757C361.167 156.555 361.049 156.365 360.884 156.2C360.719 156.034 360.509 155.897 360.27 155.796C358.809 155.196 356.173 156.276 355.132 157.062C355.053 157.122 354.092 158.028 353.87 158.262C353.989 157.416 354.116 156.576 354.283 155.754C354.506 154.642 354.824 153.541 355.236 152.46C355.331 152.46 357.951 153.234 359.206 153.168C359.799 153.167 360.385 153.068 360.922 152.879C361.46 152.689 361.936 152.413 362.318 152.07C362.476 151.901 362.585 151.708 362.638 151.504C362.691 151.301 362.687 151.091 362.625 150.889C362.564 150.687 362.447 150.497 362.282 150.332C362.117 150.166 361.907 150.029 361.667 149.928C360.198 149.358 357.57 150.408 356.522 151.194C356.45 151.248 355.728 151.938 355.386 152.268H355.307C355.759 151.187 356.338 150.139 357.038 149.136C357.411 148.584 357.832 148.068 358.213 147.576C359.396 148.052 360.668 148.39 361.985 148.578C362.575 148.624 363.172 148.573 363.734 148.428C364.296 148.283 364.81 148.048 365.24 147.738C365.42 147.583 365.555 147.4 365.637 147.203C365.718 147.005 365.743 146.797 365.711 146.592C365.679 146.386 365.59 146.188 365.45 146.011C365.31 145.833 365.122 145.68 364.899 145.56C363.517 144.87 360.754 145.698 359.603 146.394C359.539 146.43 358.959 146.868 358.539 147.192C358.729 146.97 358.912 146.736 359.102 146.532C359.785 145.746 360.484 145.056 361.111 144.45C361.469 144.108 361.802 143.808 362.112 143.526C363.456 143.536 364.794 143.392 366.082 143.1C366.636 142.939 367.136 142.687 367.547 142.364C367.959 142.04 368.272 141.653 368.464 141.228C368.538 141.014 368.547 140.79 368.491 140.573C368.435 140.356 368.314 140.151 368.139 139.974C367.963 139.797 367.737 139.652 367.477 139.55C367.217 139.449 366.93 139.392 366.637 139.386ZM348.463 172.704C347.875 173.736 347.304 174.654 346.811 175.434H345.072C344.89 174.51 344.644 173.412 344.278 172.182C344.128 171.582 343.945 170.982 343.754 170.328C344.525 170.091 345.278 169.823 346.009 169.524C347.005 170.17 348.114 170.709 349.304 171.126C349.05 171.672 348.757 172.2 348.463 172.704Z" fill="#263238"/>
<path d="M22.6052 190.176L31.8156 256.854" stroke="#263238" stroke-width="2" stroke-miterlimit="10"/>
<path d="M30.3308 244.092L26.1544 240.762" stroke="#263238" stroke-width="2" stroke-miterlimit="10"/>
<path d="M27.4247 241.758C27.4144 241.249 27.2612 240.747 26.9751 240.285C26.689 239.824 26.2767 239.414 25.7653 239.082C24.6934 238.362 19.048 236.568 18.516 238.068C17.9364 239.7 23.7088 242.904 27.4247 241.758Z" fill="#92E3A9" stroke="#263238" stroke-miterlimit="10"/>
<path d="M27.4248 241.758L22.0573 239.232" stroke="#263238" stroke-width="0.5" stroke-miterlimit="10"/>
<path d="M31.3788 251.676L27.2024 248.346" stroke="#263238" stroke-width="2" stroke-miterlimit="10"/>
<path d="M28.4728 249.342C28.4625 248.833 28.3093 248.331 28.0232 247.869C27.7371 247.408 27.3248 246.998 26.8133 246.666C25.7414 245.946 20.0961 244.152 19.5641 245.652C18.9845 247.284 24.7569 250.488 28.4728 249.342Z" fill="#92E3A9" stroke="#263238" stroke-miterlimit="10"/>
<path d="M28.4728 249.342L23.1054 246.816" stroke="#263238" stroke-width="0.5" stroke-miterlimit="10"/>
<path d="M27.7741 225.588L23.5977 222.258" stroke="#263238" stroke-width="2" stroke-miterlimit="10"/>
<path d="M24.8681 223.254C24.8578 222.745 24.7045 222.243 24.4185 221.781C24.1324 221.32 23.72 220.91 23.2086 220.578C22.1367 219.852 16.4914 218.064 15.9594 219.564C15.3798 221.196 21.1521 224.4 24.8681 223.254Z" fill="#92E3A9" stroke="#263238" stroke-miterlimit="10"/>
<path d="M24.8681 223.254L19.5006 220.728" stroke="#263238" stroke-width="0.5" stroke-miterlimit="10"/>
<path d="M28.8222 233.172L24.6458 229.842" stroke="#263238" stroke-width="2" stroke-miterlimit="10"/>
<path d="M25.9161 230.838C25.9059 230.329 25.7526 229.827 25.4665 229.365C25.1805 228.904 24.7681 228.494 24.2567 228.162C23.1848 227.436 17.5394 225.648 17.0075 227.148C16.4278 228.78 22.232 231.984 25.9161 230.838Z" fill="#92E3A9" stroke="#263238" stroke-miterlimit="10"/>
<path d="M25.9161 230.838L20.5487 228.312" stroke="#263238" stroke-width="0.5" stroke-miterlimit="10"/>
<path d="M26.0749 213.27L21.8985 209.934" stroke="#263238" stroke-width="2" stroke-miterlimit="10"/>
<path d="M23.1689 210.936C23.1607 210.425 23.0076 209.923 22.7199 209.461C22.4323 208.999 22.0168 208.59 21.5015 208.26C20.4296 207.534 14.7922 205.746 14.2602 207.246C13.6806 208.878 19.453 212.082 23.1689 210.936Z" fill="#92E3A9" stroke="#263238" stroke-miterlimit="10"/>
<path d="M23.1689 210.936L17.8015 208.41" stroke="#263238" stroke-width="0.5" stroke-miterlimit="10"/>
<path d="M24.3678 200.898L20.1914 197.562" stroke="#263238" stroke-width="2" stroke-miterlimit="10"/>
<path d="M21.438 198.564C21.4298 198.054 21.2766 197.551 20.989 197.089C20.7013 196.627 20.2858 196.218 19.7706 195.888C18.6987 195.162 13.0613 193.368 12.5293 194.874C11.9656 196.506 17.7379 199.71 21.438 198.564Z" fill="#92E3A9" stroke="#263238" stroke-miterlimit="10"/>
<path d="M21.4618 198.564L16.0864 196.032" stroke="#263238" stroke-width="0.5" stroke-miterlimit="10"/>
<path d="M29.6321 239.604L32.8001 235.692" stroke="#263238" stroke-width="2" stroke-miterlimit="10"/>
<path d="M31.8314 236.868C31.7048 236.369 31.7192 235.856 31.8739 235.361C32.0285 234.867 32.3198 234.403 32.7287 234C33.5782 233.124 38.6043 230.49 39.5412 231.876C40.5575 233.4 35.7856 237.414 31.8314 236.868Z" fill="#92E3A9" stroke="#263238" stroke-miterlimit="10"/>
<path d="M31.8314 236.868L36.6669 233.376" stroke="#263238" stroke-width="0.5" stroke-miterlimit="10"/>
<path d="M26.869 219.648L30.045 215.736" stroke="#263238" stroke-width="2" stroke-miterlimit="10"/>
<path d="M29.0762 216.912C28.9484 216.412 28.9623 215.898 29.117 215.402C29.2716 214.907 29.5635 214.442 29.9735 214.038C30.823 213.162 35.8491 210.528 36.786 211.914C37.8023 213.42 33.0304 217.458 29.0762 216.912Z" fill="#92E3A9" stroke="#263238" stroke-miterlimit="10"/>
<path d="M29.0762 216.912L33.9117 213.42" stroke="#263238" stroke-width="0.5" stroke-miterlimit="10"/>
<path d="M25.662 210.882L28.838 206.97" stroke="#263238" stroke-width="2" stroke-miterlimit="10"/>
<path d="M27.8694 208.146C27.7393 207.646 27.7513 207.13 27.9046 206.634C28.0579 206.137 28.349 205.671 28.7587 205.266C29.6162 204.39 34.6422 201.756 35.5712 203.142C36.5875 204.648 31.8156 208.686 27.8694 208.146Z" fill="#92E3A9" stroke="#263238" stroke-miterlimit="10"/>
<path d="M27.8694 208.146L32.7048 204.654" stroke="#263238" stroke-width="0.5" stroke-miterlimit="10"/>
<path d="M23.8835 198.024L27.0595 194.112" stroke="#263238" stroke-width="2" stroke-miterlimit="10"/>
<path d="M26.0908 195.288C25.9619 194.787 25.9751 194.272 26.1298 193.775C26.2845 193.279 26.577 192.813 26.9881 192.408C27.8376 191.532 32.8637 188.898 33.8006 190.284C34.8169 191.79 30.045 195.828 26.0908 195.288Z" fill="#92E3A9" stroke="#263238" stroke-miterlimit="10"/>
<path d="M26.0908 195.288L30.9263 191.796" stroke="#263238" stroke-width="0.5" stroke-miterlimit="10"/>
<path d="M22.5258 189.804C22.3968 189.303 22.4101 188.787 22.5648 188.291C22.7194 187.794 23.012 187.328 23.423 186.924C24.2726 186.048 29.2986 183.414 30.2355 184.8C31.2518 186.306 26.4799 190.344 22.5258 189.804Z" fill="#92E3A9" stroke="#263238" stroke-miterlimit="10"/>
<path d="M22.5258 189.804L27.3612 186.312" stroke="#263238" stroke-width="0.5" stroke-miterlimit="10"/>
<path d="M22.8116 189.954C22.1407 190.001 21.4639 189.941 20.8261 189.777C20.1883 189.612 19.6039 189.347 19.1116 189C18.0556 188.268 15.1416 184.2 17.0313 183.654C19.1195 183.03 23.9391 187.044 22.8116 189.954Z" fill="#92E3A9" stroke="#263238" stroke-miterlimit="10"/>
<path d="M22.8116 189.954L18.7225 185.952" stroke="#263238" stroke-width="0.5" stroke-miterlimit="10"/>
<path d="M46.8936 199.356L37.7388 266.04" stroke="#263238" stroke-width="2" stroke-miterlimit="10"/>
<path d="M39.7635 253.32L36.5875 249.414" stroke="#263238" stroke-width="2" stroke-miterlimit="10"/>
<path d="M37.5562 250.584C37.684 250.084 37.6701 249.57 37.5155 249.074C37.3608 248.579 37.0689 248.114 36.659 247.71C35.8015 246.834 30.7754 244.206 29.8385 245.586C28.8301 247.098 33.6021 251.13 37.5562 250.584Z" fill="#92E3A9" stroke="#263238" stroke-miterlimit="10"/>
<path d="M37.5562 250.584L32.9907 247.278" stroke="#263238" stroke-width="0.5" stroke-miterlimit="10"/>
<path d="M42.3043 234.816L39.1283 230.904" stroke="#263238" stroke-width="2" stroke-miterlimit="10"/>
<path d="M40.097 232.08C40.2259 231.579 40.2127 231.064 40.058 230.567C39.9033 230.071 39.6108 229.605 39.1997 229.2C38.3502 228.324 33.3162 225.69 32.3872 227.076C31.3709 228.6 36.1428 232.626 40.097 232.08Z" fill="#92E3A9" stroke="#263238" stroke-miterlimit="10"/>
<path d="M40.097 232.08L35.5315 228.768" stroke="#263238" stroke-width="0.5" stroke-miterlimit="10"/>
<path d="M41.2641 242.4L38.0881 238.488" stroke="#263238" stroke-width="2" stroke-miterlimit="10"/>
<path d="M39.0568 239.664C39.1846 239.164 39.1707 238.65 39.0161 238.154C38.8614 237.659 38.5695 237.194 38.1596 236.79C37.3021 235.914 32.2761 233.28 31.3391 234.666C30.3308 236.172 35.1027 240.21 39.0568 239.664Z" fill="#92E3A9" stroke="#263238" stroke-miterlimit="10"/>
<path d="M39.0568 239.664L34.4913 236.352" stroke="#263238" stroke-width="0.5" stroke-miterlimit="10"/>
<path d="M43.9955 222.498L40.8195 218.586" stroke="#263238" stroke-width="2" stroke-miterlimit="10"/>
<path d="M41.7882 219.762C41.9172 219.261 41.9039 218.745 41.7492 218.249C41.5945 217.752 41.302 217.286 40.891 216.882C40.0414 216.012 35.0074 213.378 34.0784 214.764C33.0621 216.27 37.8341 220.308 41.7882 219.762Z" fill="#92E3A9" stroke="#263238" stroke-miterlimit="10"/>
<path d="M41.7882 219.762L37.2227 216.45" stroke="#263238" stroke-width="0.5" stroke-miterlimit="10"/>
<path d="M45.6947 210.126L42.5187 206.214" stroke="#263238" stroke-width="2" stroke-miterlimit="10"/>
<path d="M43.4873 207.39C43.6163 206.889 43.603 206.373 43.4484 205.877C43.2937 205.38 43.0011 204.914 42.5901 204.51C41.7405 203.634 36.7066 201.006 35.7776 202.392C34.7613 203.898 39.5332 207.93 43.4873 207.39Z" fill="#92E3A9" stroke="#263238" stroke-miterlimit="10"/>
<path d="M43.4874 207.39L38.9219 204.078" stroke="#263238" stroke-width="0.5" stroke-miterlimit="10"/>
<path d="M40.2955 248.82L44.4719 245.49" stroke="#263238" stroke-width="2" stroke-miterlimit="10"/>
<path d="M43.2015 246.486C43.2118 245.977 43.3651 245.475 43.6511 245.013C43.9372 244.552 44.3496 244.142 44.861 243.81C45.9329 243.09 51.5703 241.29 52.1102 242.79C52.6898 244.422 46.9175 247.632 43.2015 246.486Z" fill="#92E3A9" stroke="#263238" stroke-miterlimit="10"/>
<path d="M43.2015 246.486L48.8866 243.822" stroke="#263238" stroke-width="0.5" stroke-miterlimit="10"/>
<path d="M43.0348 228.864L47.2112 225.534" stroke="#263238" stroke-width="2" stroke-miterlimit="10"/>
<path d="M45.9408 226.53C45.956 226.018 46.1154 225.515 46.4084 225.053C46.7014 224.592 47.1213 224.183 47.64 223.854C48.7119 223.128 54.3493 221.334 54.8892 222.834C55.4291 224.466 49.6647 227.676 45.9408 226.53Z" fill="#92E3A9" stroke="#263238" stroke-miterlimit="10"/>
<path d="M45.9408 226.53L51.6258 223.866" stroke="#263238" stroke-width="0.5" stroke-miterlimit="10"/>
<path d="M44.2416 220.092L48.4181 216.762" stroke="#263238" stroke-width="2" stroke-miterlimit="10"/>
<path d="M47.1477 217.758C47.158 217.249 47.3112 216.747 47.5973 216.285C47.8834 215.824 48.2957 215.414 48.8072 215.082C49.8791 214.362 55.5165 212.562 56.0484 214.062C56.636 215.7 50.8636 218.904 47.1477 217.758Z" fill="#92E3A9" stroke="#263238" stroke-miterlimit="10"/>
<path d="M47.1477 217.758L52.8327 215.094" stroke="#263238" stroke-width="0.5" stroke-miterlimit="10"/>
<path d="M46.0043 207.24L50.1808 203.904" stroke="#263238" stroke-width="2" stroke-miterlimit="10"/>
<path d="M48.9104 204.9C48.9162 204.386 49.0673 203.88 49.3535 203.414C49.6397 202.948 50.0544 202.534 50.5699 202.2C51.6418 201.48 57.2792 199.68 57.8191 201.186C58.3987 202.842 52.6343 206.046 48.9104 204.9Z" fill="#92E3A9" stroke="#263238" stroke-miterlimit="10"/>
<path d="M48.9104 204.9L54.5954 202.236" stroke="#263238" stroke-width="0.5" stroke-miterlimit="10"/>
<path d="M46.9174 198.984C46.9277 198.475 47.081 197.973 47.367 197.511C47.6531 197.05 48.0655 196.64 48.5769 196.308C49.6488 195.582 55.2862 193.788 55.8261 195.288C56.374 196.92 50.6413 200.13 46.9174 198.984Z" fill="#92E3A9" stroke="#263238" stroke-miterlimit="10"/>
<path d="M46.9174 198.984L52.6025 196.32" stroke="#263238" stroke-width="0.5" stroke-miterlimit="10"/>
<path d="M47.1557 199.2C46.4854 199.142 45.8395 198.976 45.2614 198.713C44.6834 198.45 44.1868 198.096 43.805 197.676C42.9633 196.794 41.1927 192.372 43.2254 192.126C45.4327 191.826 49.0533 196.5 47.1557 199.2Z" fill="#92E3A9" stroke="#263238" stroke-miterlimit="10"/>
<path d="M47.1556 199.17L44.2416 194.622" stroke="#263238" stroke-width="0.5" stroke-miterlimit="10"/>
<path d="M36.3969 172.2V256.53" stroke="#263238" stroke-width="2" stroke-miterlimit="10"/>
<path d="M36.4922 243.852L32.7922 240.21" stroke="#263238" stroke-width="2" stroke-miterlimit="10"/>
<path d="M33.9197 241.302C33.9798 240.794 33.8962 240.282 33.6744 239.8C33.4527 239.317 33.0978 238.877 32.6334 238.506C31.6647 237.708 26.2814 235.506 25.5668 236.934C24.7649 238.506 30.0608 242.148 33.9197 241.302Z" fill="#92E3A9" stroke="#263238" stroke-miterlimit="10"/>
<path d="M33.9197 241.302L28.9254 238.368" stroke="#263238" stroke-width="0.5" stroke-miterlimit="10"/>
<path d="M36.4922 228L32.7922 224.364" stroke="#263238" stroke-width="2" stroke-miterlimit="10"/>
<path d="M33.9197 225.456C33.9798 224.948 33.8962 224.436 33.6744 223.954C33.4527 223.471 33.0978 223.031 32.6334 222.66C31.6647 221.856 26.2814 219.63 25.5668 221.082C24.7649 222.66 30.0608 226.302 33.9197 225.456Z" fill="#92E3A9" stroke="#263238" stroke-miterlimit="10"/>
<path d="M33.9197 225.456L28.9254 222.516" stroke="#263238" stroke-width="0.5" stroke-miterlimit="10"/>
<path d="M36.4922 209.4L32.7922 205.758" stroke="#263238" stroke-width="2" stroke-miterlimit="10"/>
<path d="M33.9197 206.85C33.9798 206.342 33.8962 205.829 33.6744 205.347C33.4527 204.865 33.0978 204.424 32.6334 204.054C31.6647 203.25 26.2814 201.054 25.5668 202.476C24.7649 204.054 30.0608 207.696 33.9197 206.85Z" fill="#92E3A9" stroke="#263238" stroke-miterlimit="10"/>
<path d="M33.9197 206.85L28.9254 203.91" stroke="#263238" stroke-width="0.5" stroke-miterlimit="10"/>
<path d="M36.4922 197.01L32.7922 193.368" stroke="#263238" stroke-width="2" stroke-miterlimit="10"/>
<path d="M33.9197 194.46C33.9786 193.952 33.8945 193.441 33.6727 192.961C33.451 192.48 33.0968 192.04 32.6334 191.67C31.6647 190.866 26.2814 188.64 25.5668 190.092C24.7649 191.67 30.0608 195.312 33.9197 194.46Z" fill="#92E3A9" stroke="#263238" stroke-miterlimit="10"/>
<path d="M33.9197 194.46L28.9254 191.526" stroke="#263238" stroke-width="0.5" stroke-miterlimit="10"/>
<path d="M36.4922 184.572L32.7922 180.93" stroke="#263238" stroke-width="2" stroke-miterlimit="10"/>
<path d="M33.9197 182.022C33.9786 181.514 33.8945 181.003 33.6727 180.523C33.451 180.042 33.0968 179.602 32.6334 179.232C31.6647 178.428 26.2814 176.202 25.5668 177.654C24.7649 179.232 30.0608 182.874 33.9197 182.022Z" fill="#92E3A9" stroke="#263238" stroke-miterlimit="10"/>
<path d="M33.9197 182.022L28.9254 179.088" stroke="#263238" stroke-width="0.5" stroke-miterlimit="10"/>
<path d="M36.4049 248.688L40.1049 245.046" stroke="#263238" stroke-width="2" stroke-miterlimit="10"/>
<path d="M38.9774 246.138C38.9185 245.631 39.0026 245.12 39.2244 244.639C39.4461 244.158 39.8003 243.718 40.2637 243.348C41.2324 242.544 46.6157 240.318 47.3303 241.77C48.1323 243.348 42.876 246.99 38.9774 246.138Z" fill="#92E3A9" stroke="#263238" stroke-miterlimit="10"/>
<path d="M38.9774 246.138L44.2655 243.048" stroke="#263238" stroke-width="0.5" stroke-miterlimit="10"/>
<path d="M36.4049 223.482L40.1049 219.846" stroke="#263238" stroke-width="2" stroke-miterlimit="10"/>
<path d="M38.9775 220.938C38.9174 220.43 39.001 219.917 39.2227 219.435C39.4445 218.953 39.7993 218.512 40.2637 218.142C41.2324 217.338 46.6157 215.142 47.3303 216.564C48.1323 218.142 42.876 221.784 38.9775 220.938Z" fill="#92E3A9" stroke="#263238" stroke-miterlimit="10"/>
<path d="M38.9774 220.938L44.2655 217.842" stroke="#263238" stroke-width="0.5" stroke-miterlimit="10"/>
<path d="M36.4049 211.044L40.1049 207.402" stroke="#263238" stroke-width="2" stroke-miterlimit="10"/>
<path d="M38.9774 208.494C38.9185 207.986 39.0026 207.475 39.2244 206.995C39.4461 206.514 39.8003 206.074 40.2637 205.704C41.2324 204.9 46.6157 202.704 47.3303 204.126C48.1323 205.704 42.876 209.346 38.9774 208.494Z" fill="#92E3A9" stroke="#263238" stroke-miterlimit="10"/>
<path d="M38.9774 208.494L44.2655 205.404" stroke="#263238" stroke-width="0.5" stroke-miterlimit="10"/>
<path d="M36.4049 194.604L40.1049 190.962" stroke="#263238" stroke-width="2" stroke-miterlimit="10"/>
<path d="M38.9774 192.054C38.9185 191.547 39.0026 191.036 39.2244 190.555C39.4461 190.074 39.8003 189.634 40.2637 189.264C41.2324 188.46 46.6157 186.234 47.3303 187.686C48.1323 189.264 42.876 192.906 38.9774 192.054Z" fill="#92E3A9" stroke="#263238" stroke-miterlimit="10"/>
<path d="M38.9774 192.054L44.2655 188.958" stroke="#263238" stroke-width="0.5" stroke-miterlimit="10"/>
<path d="M36.4049 181.674L40.1049 178.032" stroke="#263238" stroke-width="2" stroke-miterlimit="10"/>
<path d="M38.9775 179.13C38.9174 178.622 39.001 178.109 39.2227 177.627C39.4445 177.145 39.7993 176.704 40.2637 176.334C41.2324 175.53 46.6157 173.304 47.3303 174.756C48.1323 176.334 42.876 180 38.9775 179.13Z" fill="#92E3A9" stroke="#263238" stroke-miterlimit="10"/>
<path d="M38.9774 179.13L44.2655 176.034" stroke="#263238" stroke-width="0.5" stroke-miterlimit="10"/>
<path d="M36.1905 173.4C36.1269 172.893 36.2081 172.381 36.4286 171.9C36.6492 171.419 37.0039 170.979 37.4689 170.61C38.4375 169.806 43.8209 167.61 44.5434 169.032C45.3453 170.604 40.0414 174.246 36.1905 173.4Z" fill="#92E3A9" stroke="#263238" stroke-miterlimit="10"/>
<path d="M36.1905 173.394L41.4785 170.298" stroke="#263238" stroke-width="0.5" stroke-miterlimit="10"/>
<path d="M36.4446 173.568C35.7699 173.559 35.1053 173.443 34.4948 173.225C33.8843 173.008 33.3419 172.695 32.9034 172.308C31.9506 171.498 29.5844 167.232 31.5694 166.83C33.7291 166.392 37.9691 170.76 36.4446 173.568Z" fill="#92E3A9" stroke="#263238" stroke-miterlimit="10"/>
<path d="M36.4446 173.568L32.9272 169.266" stroke="#263238" stroke-width="0.5" stroke-miterlimit="10"/>
<path d="M40.9942 278.4H29.1715L27.6947 255.846H42.471L40.9942 278.4Z" fill="#263238" stroke="#263238" stroke-miterlimit="10"/>
<path d="M91.3735 105.708H20.374V20.2979H108.278V105.708H95.9866" stroke="#263238" stroke-miterlimit="10"/>
<path d="M105.094 23.394H23.5659V102.612H105.094V23.394Z" stroke="#263238" stroke-miterlimit="10"/>
<path d="M39.8985 45.0898C41.3413 46.0988 42.8835 47.0234 44.5116 47.8558C62.9563 57.3118 94.2399 52.8358 104.776 66.2698" stroke="#263238" stroke-miterlimit="10"/>
<path d="M29.0365 23.7178C28.5947 27.2565 29.1271 30.826 30.6002 34.2016C32.0733 37.5772 34.4551 40.6858 37.5959 43.3318" stroke="#263238" stroke-miterlimit="10"/>
<path d="M36.0237 67.356C45.0198 63.756 56.6677 61.218 62.6307 68.508C69.5464 76.974 37.5959 91.908 37.5959 102.6" stroke="#263238" stroke-miterlimit="10"/>
<path d="M23.7723 73.4879C26.8524 71.6073 30.1172 69.9064 33.5385 68.3999" stroke="#263238" stroke-miterlimit="10"/>
<path d="M66.2513 23.7178C66.2513 23.7178 78.1058 37.6558 105.11 33.9178" stroke="#263238" stroke-miterlimit="10"/>
<path d="M69.7926 37.4037C69.8471 37.7341 69.8737 38.0668 69.872 38.3997C69.868 40.4025 68.8945 42.335 67.135 43.8327C65.3755 45.3305 62.9515 46.29 60.3203 46.5303C57.6891 46.7706 55.0325 46.2751 52.8514 45.1372C50.6704 43.9994 49.1156 42.2978 48.4804 40.3534C47.8452 38.409 48.1733 36.3561 49.403 34.582C50.6328 32.8078 52.679 31.435 55.1559 30.7223C57.6328 30.0097 60.3692 30.0065 62.8489 30.7134C65.3287 31.4203 67.3805 32.7884 68.6174 34.5597" stroke="#263238" stroke-miterlimit="10"/>
<path d="M96.868 49.4756C96.8633 50.2381 96.5597 50.9825 95.9955 51.6147C95.4313 52.2469 94.6318 52.7386 93.6981 53.0276C92.7643 53.3167 91.7381 53.3902 90.7491 53.2388C89.7601 53.0874 88.8527 52.718 88.1414 52.1771C87.4301 51.6363 86.9468 50.9483 86.7526 50.2C86.5585 49.4517 86.6621 48.6767 87.0504 47.9729C87.4387 47.2691 88.0943 46.6681 88.9344 46.2457C89.7745 45.8233 90.7615 45.5984 91.7705 45.5996C92.4426 45.5996 93.1081 45.7 93.7286 45.8951C94.3492 46.0902 94.9125 46.3761 95.3863 46.7363C95.86 47.0965 96.2348 47.524 96.4891 47.9941C96.7434 48.4643 96.8722 48.9677 96.868 49.4756Z" stroke="#263238" stroke-miterlimit="10"/>
<path d="M96.9395 75.498C99.815 76.0633 102.498 77.0861 104.808 78.498" stroke="#263238" stroke-miterlimit="10"/>
<path d="M77.3832 102.66C74.2557 100.493 72.0671 97.6622 71.1036 94.5393C70.1402 91.4164 70.4469 88.1464 71.9836 85.1574C73.5204 82.1683 76.2155 79.5995 79.7162 77.7872C83.217 75.9748 87.3603 75.0034 91.6038 75C92.0166 75 92.3978 75 92.8186 75" stroke="#263238" stroke-miterlimit="10"/>
<path d="M255.668 278.4H381.914" stroke="#263238" stroke-miterlimit="10"/>
<path d="M12.704 278.4H249.316" stroke="#263238" stroke-miterlimit="10"/>
<path d="M314.051 25.5H153.798V249.834H314.051V25.5Z" fill="white"/>
<path d="M314.051 211.578H153.798V249.834H314.051V211.578Z" fill="#DEDEDE"/>
<path d="M318.862 69.6362C319.387 69.6362 319.89 69.4788 320.26 69.1987C320.631 68.9185 320.839 68.5385 320.839 68.1422V53.1842C320.839 52.788 320.631 52.408 320.26 52.1278C319.89 51.8476 319.387 51.6902 318.862 51.6902C318.738 51.6811 318.613 51.6811 318.489 51.6902V23.7362C318.489 21.179 317.145 18.7265 314.752 16.9183C312.359 15.1101 309.114 14.0942 305.73 14.0942H165.073C163.396 14.0935 161.736 14.3423 160.187 14.8265C158.638 15.3107 157.231 16.0208 156.045 16.9162C154.859 17.8116 153.919 18.8748 153.277 20.045C152.635 21.2152 152.305 22.4695 152.305 23.7362V249.51C152.305 252.069 153.65 254.523 156.045 256.332C158.439 258.142 161.686 259.158 165.073 259.158H305.73C309.114 259.157 312.36 258.139 314.753 256.33C317.145 254.521 318.489 252.068 318.489 249.51V112.158C318.613 112.167 318.738 112.167 318.862 112.158C319.388 112.157 319.89 111.998 320.261 111.717C320.631 111.436 320.839 111.055 320.839 110.658V95.7302C320.839 95.334 320.631 94.954 320.26 94.6738C319.89 94.3936 319.387 94.2362 318.862 94.2362C318.737 94.237 318.612 94.2471 318.489 94.2662V90.8822C318.612 90.9014 318.737 90.9115 318.862 90.9122C319.386 90.9107 319.888 90.7527 320.258 90.4729C320.628 90.1931 320.837 89.814 320.839 89.4182V74.4542C320.837 74.0585 320.628 73.6794 320.258 73.3996C319.888 73.1197 319.386 72.9618 318.862 72.9602C318.737 72.961 318.612 72.9711 318.489 72.9902V69.6002C318.612 69.6214 318.737 69.6335 318.862 69.6362ZM311.097 244.614H159.697V30.7322H311.097V244.614Z" fill="#263238"/>
<path d="M305.944 32.9521H293.391V38.1542H305.944V32.9521Z" stroke="#263238" stroke-width="0.821067" stroke-linecap="round" stroke-linejoin="round"/>
<path d="M303.181 32.9521H293.391V38.1542H303.181V32.9521Z" fill="#263238" stroke="#263238" stroke-width="0.725073" stroke-linecap="round" stroke-linejoin="round"/>
<path d="M307.691 34.4102H305.92V36.7022H307.691V34.4102Z" fill="#263238" stroke="#263238" stroke-width="0.725073" stroke-linecap="round" stroke-linejoin="round"/>
<path d="M165.406 34.5664H163.103V37.5484H165.406V34.5664Z" fill="#263238" stroke="#263238" stroke-width="0.883086" stroke-linecap="round" stroke-linejoin="round"/>
<path d="M169.027 33.5225H166.724V37.5485H169.027V33.5225Z" fill="#263238" stroke="#263238" stroke-width="0.883086" stroke-linecap="round" stroke-linejoin="round"/>
<path d="M172.639 32.2803H170.337V37.5483H172.639V32.2803Z" fill="#263238" stroke="#263238" stroke-width="0.883086" stroke-linecap="round" stroke-linejoin="round"/>
<path d="M307.524 41.0464H162.135V69.9184H307.524V41.0464Z" fill="#006AB2"/>
<path d="M198.881 45.2041V66.4021" stroke="white" stroke-miterlimit="10"/>
<path d="M235.929 45.2041V66.4021" stroke="white" stroke-miterlimit="10"/>
<path d="M272.985 45.2041V66.4021" stroke="white" stroke-miterlimit="10"/>
<path opacity="0.15" d="M317.179 112.158C317.303 112.167 317.428 112.167 317.552 112.158C318.077 112.157 318.58 111.998 318.951 111.717C319.321 111.436 319.529 111.055 319.529 110.658V105.3L309.787 118.278V244.614H215.007L204.058 259.158H304.412C307.798 259.158 311.045 258.142 313.44 256.332C315.834 254.523 317.179 252.069 317.179 249.51V112.158Z" fill="white"/>
<path d="M228.768 121.802V132.109H234.317V125.252H237.851V132.122H242.424V135.548H265.18V138.979H269.738V141.441H265.204V145.892H269.722V152.779H274.287V158.656H269.77V166.52H274.224V169.958H283.315V172.39H269.722V179.26H266.18V175.828H257.049V172.39H252.507V169.958H261.567V165.52H237.867V168.939H229.751V163.1H234.286V158.649H229.768V156.206H238.859V152.779H242.401V156.188H247.958V149.3H260.615V152.726H266.132V148.3H261.599V144.844H252.492V138.016H237.827V141.448H228.768V149.33H233.278V151.762H228.744V155.2H225.202V151.756H211.553V149.33H225.202V121.802H228.768ZM251.532 159.632H256.049V159.638H256.065V163.058H266.132V158.638H257.065V158.632H257.049V155.218H251.532V159.632ZM242.464 163.04H247.971L247.966 162.535L247.934 159.133L247.929 158.638H242.464V163.04ZM256.074 142.399H261.576V137.992H256.074V142.399Z" fill="#263238" stroke="#006AB2"/>
<path d="M219.605 108.05V131.098H188.789V108.05H219.605ZM192.355 128.666H216.063V110.5H192.355V128.666Z" fill="#263238" stroke="#006AB2"/>
<path d="M283.339 108.062V131.104H252.524V108.062H283.339ZM256.089 128.66H279.797V110.5H256.089V128.66Z" fill="#263238" stroke="#006AB2"/>
<path d="M219.62 156.206V179.254H188.797V156.206H219.62ZM192.355 176.822H216.071V158.656H192.355V176.822Z" fill="#263238" stroke="#006AB2"/>
<path d="M246.919 108.056V113.907H242.464V118.352H246.966V124.216H243.432V120.802H238.859V117.37H233.317V120.79H229.744V113.92H225.202V108.056H246.919ZM233.309 114.896H238.819V110.5H233.309V114.896Z" fill="#263238" stroke="#006AB2"/>
<path d="M210.53 138.992V142.43H219.62V144.862H205.988V151.738H188.805V145.898H192.307V149.299H202.438V138.992H210.53Z" fill="#263238" stroke="#006AB2"/>
<path d="M228.736 169.958V173.39H233.285V176.822H237.819V179.259H225.202V169.958H228.736Z" fill="#263238" stroke="#006AB2"/>
<path d="M201.422 135.578V137.992H192.339V141.417H188.805V135.578H201.422Z" fill="#263238" stroke="#006AB2"/>
<path d="M283.339 135.572V144.862H279.829V138.003H275.287V135.572H283.339Z" fill="#263238" stroke="#006AB2"/>
<path d="M219.612 135.578V137.992H211.537V135.578H219.612Z" fill="#263238" stroke="#006AB2"/>
<path d="M278.789 149.336V151.75H275.272V149.336H278.789Z" fill="#263238" stroke="#006AB2"/>
<path d="M283.339 156.212V158.62H279.837V156.212H283.339Z" fill="#263238" stroke="#006AB2"/>
<path d="M246.927 128.696V131.11H243.4V128.696H246.927Z" fill="#263238" stroke="#006AB2"/>
<path d="M228.72 159.668V162.1H225.202V159.668H228.72Z" fill="#263238" stroke="#006AB2"/>
<path d="M278.789 163.1V165.514H275.272V163.1H278.789Z" fill="#263238" stroke="#006AB2"/>
<path d="M274.224 142.441V144.874H270.706V142.441H274.224Z" fill="#263238" stroke="#006AB2"/>
<path d="M246.926 173.42V175.822H243.416V173.42H246.926Z" fill="#263238" stroke="#006AB2"/>
<path d="M256.049 176.839V179.253H252.531V176.839H256.049Z" fill="#263238" stroke="#006AB2"/>
<path d="M283.339 176.858V179.266H279.837V176.858H283.339Z" fill="#263238" stroke="#006AB2"/>
<path d="M246.989 145.886V148.3H243.464V145.886H246.989Z" fill="#263238" stroke="#006AB2"/>
<path d="M210.506 114.938V124.222H197.896V114.938H210.506Z" fill="#263238" stroke="#006AB2"/>
<path d="M274.224 114.932V124.216H261.623V114.932H274.224Z" fill="#263238" stroke="#006AB2"/>
<path d="M210.506 163.1V172.383L197.896 172.378V163.1H210.506Z" fill="#263238" stroke="#006AB2"/>
<path d="M201.509 99.4019H181.58V116.016" stroke="#006AB2" stroke-width="2" stroke-miterlimit="10"/>
<path d="M273.986 99.4019H293.907V116.016" stroke="#006AB2" stroke-width="2" stroke-miterlimit="10"/>
<path d="M201.509 186.894H181.58V170.28" stroke="#006AB2" stroke-width="2" stroke-miterlimit="10"/>
<path d="M273.986 186.894H293.907V170.28" stroke="#006AB2" stroke-width="2" stroke-miterlimit="10"/>
<path d="M140.871 103.002H134.257C133.087 103.002 132.137 103.719 132.137 104.604V118.602C132.137 119.487 133.087 120.204 134.257 120.204H140.871C142.042 120.204 142.991 119.487 142.991 118.602V104.604C142.991 103.719 142.042 103.002 140.871 103.002Z" fill="#263238" stroke="#263238" stroke-miterlimit="10"/>
<path d="M142.023 104.52H133.09V118.68H142.023V104.52Z" fill="white" stroke="#263238" stroke-miterlimit="10"/>
<path d="M45.782 187.302C48.9677 187.289 52.0856 186.605 54.786 185.328C54.6113 189.156 54.4763 192.054 54.4763 192.054C54.4763 192.054 55.3497 193.206 55.7864 193.704C56.2231 194.202 59.9311 195.846 60.3678 197.334C60.8045 198.822 62.7498 199.644 62.5513 201.786C62.3528 203.928 59.9311 201.618 60.3678 202.116C60.8045 202.614 62.1146 204.258 62.1146 205.746C62.1146 207.234 57.9699 207.228 56.4375 206.238C54.9051 205.248 49.895 202.938 49.4583 200.796L47.7512 195.996L45.782 187.302Z" fill="white" stroke="#263238" stroke-miterlimit="10"/>
<path d="M54.8495 199.2L55.9135 202.8C55.9135 202.8 59.3515 204.798 59.6135 206.202" fill="white"/>
<path d="M54.8495 199.2L55.9135 202.8C55.9135 202.8 59.3515 204.798 59.6135 206.202" stroke="#263238" stroke-miterlimit="10"/>
<path d="M60.3599 202.116L58.8195 199.8" stroke="#263238" stroke-miterlimit="10"/>
<path d="M72.0079 275.262C72.0079 275.262 70.7613 282.984 71.73 283.926C72.2762 284.52 72.9717 285.026 73.7769 285.416C74.582 285.806 75.481 286.073 76.4225 286.2C78.6298 286.41 82.3616 285.468 82.3616 285.468C84.8801 285.979 87.4968 286.156 90.0952 285.99C94.0652 285.678 96.7172 284.532 96.9951 283.068C97.273 281.604 93.8191 280.986 91.8896 279.42C89.9602 277.854 86.8795 275.082 86.8795 275.082L86.0855 273.054C86.0855 273.054 81.393 274.854 78.3599 274.932C76.6445 275.01 74.9232 274.905 73.2465 274.62L72.0079 275.262Z" fill="white" stroke="#263238" stroke-miterlimit="10"/>
<path d="M96.995 283.086C97.0265 282.915 97.0047 282.74 96.9315 282.576C96.0184 282.864 94.8512 283.212 93.4062 283.608C89.2615 284.76 87.1891 283.818 85.1247 283.818C83.0603 283.818 82.9095 285.486 77.1133 284.34C73.3259 283.59 71.9046 282.624 71.3647 282.036C71.2887 282.679 71.4138 283.326 71.73 283.926C72.2761 284.52 72.9717 285.026 73.7768 285.416C74.582 285.806 75.481 286.073 76.4225 286.2C78.6298 286.41 82.3616 285.468 82.3616 285.468C84.8801 285.979 87.4968 286.156 90.0952 285.99C94.0969 285.696 96.7171 284.55 96.995 283.086Z" fill="white" stroke="#263238" stroke-miterlimit="10"/>
<path d="M64.6475 179.4C64.6475 179.4 59.0895 193.5 61.0745 203.4C63.0595 213.3 72.5875 231.9 72.5875 231.9C72.5875 231.9 71.3965 238.8 71.3965 241.2C71.3965 243.6 68.6175 248.1 70.6025 252.9C72.5875 257.7 72.5875 270.3 72.5875 271.2C72.5875 272.1 71.7935 276.9 71.7935 276.9C71.7935 276.9 73.3815 278.7 79.3365 278.7C85.2915 278.7 86.8795 275.1 86.8795 275.1C86.8795 275.1 92.8345 248.4 92.8345 244.2C92.8345 240 99.1865 224.4 101.568 218.1C103.161 213.763 105.469 209.595 108.437 205.692C110.025 203.592 109.111 178.2 109.111 178.2L63.8535 175.2L64.6475 179.4Z" fill="#737373" stroke="#263238" stroke-miterlimit="10"/>
<path d="M95.8914 277.248C95.8914 277.248 101.83 279.018 104.729 280.062C107.627 281.106 109.556 281.208 109.556 282.882C109.556 284.556 104.316 286.218 101.14 286.638C97.9637 287.058 92.8503 286.95 92.3025 287.052C91.7546 287.154 81.3929 288.306 80.1543 286.32C78.9156 284.334 80.2893 277.56 80.2893 277.56C85.4669 278.228 90.7677 278.122 95.8914 277.248Z" fill="white" stroke="#263238" stroke-miterlimit="10"/>
<path d="M92.3025 287.052C92.8504 286.95 97.9637 287.052 101.14 286.638C104.316 286.224 109.556 284.55 109.556 282.882C109.558 282.662 109.515 282.444 109.429 282.234C108.089 282.825 106.702 283.354 105.276 283.818C101.41 285.072 96.3043 285.906 88.6025 285.804C85.6182 285.799 82.6465 285.511 79.7573 284.946C79.8015 285.418 79.9463 285.882 80.1861 286.32C81.393 288.306 91.7467 287.16 92.3025 287.052Z" fill="white" stroke="#263238" stroke-miterlimit="10"/>
<path d="M109.509 180.6C109.509 180.6 111.891 204.9 107.127 223.2C102.363 241.5 94.4225 266.4 94.0255 267.6C93.6285 268.8 96.8045 272.1 96.8045 272.1V276.9C96.8045 276.9 94.0255 279 87.6735 279.6C81.3215 280.2 79.3365 278.7 79.3365 278.7C79.3365 278.7 77.7485 270.6 77.7485 264.9C77.7485 259.2 79.3365 239.7 79.3365 239.7C79.3365 239.7 82.9095 219.9 82.5125 216.9C82.1155 213.9 80.9245 204.6 80.9245 204.6L74.5725 198.9" fill="#737373"/>
<path d="M109.509 180.6C109.509 180.6 111.891 204.9 107.127 223.2C102.363 241.5 94.4225 266.4 94.0255 267.6C93.6285 268.8 96.8045 272.1 96.8045 272.1V276.9C96.8045 276.9 94.0255 279 87.6735 279.6C81.3215 280.2 79.3365 278.7 79.3365 278.7C79.3365 278.7 77.7485 270.6 77.7485 264.9C77.7485 259.2 79.3365 239.7 79.3365 239.7C79.3365 239.7 82.9095 219.9 82.5125 216.9C82.1155 213.9 80.9245 204.6 80.9245 204.6L74.5725 198.9" stroke="#263238" stroke-miterlimit="10"/>
<path d="M42.7728 176.028L55.2624 174.372C55.2068 175.65 55.5641 167.574 55.5641 166.974C55.5641 165.654 59.7088 157.374 59.7088 157.374C59.7088 157.374 62.9801 168.102 62.9801 169.422C62.9801 170.742 61.67 180.822 63.4168 182.124C65.1636 183.426 71.2774 186.084 84.8151 185.754C98.3528 185.424 108.397 184.596 111.017 182.616C113.637 180.636 110.58 174.534 110.358 173.712C110.136 172.89 113.852 151.272 113.852 151.272C113.852 151.272 128.477 162.822 137.211 161.172C145.945 159.522 141.8 133.8 141.8 133.8L142.237 126.378C142.237 126.378 145.072 120.936 145.072 120.108C145.072 119.28 142.237 113.346 142.237 113.346C142.237 113.346 140.49 112.188 139.395 114.996C138.781 116.504 138.342 118.05 138.085 119.616C138.085 119.616 135.464 121.098 135.703 123.246C135.834 124.542 136.2 125.818 136.79 127.038L130.883 141.6C130.883 141.6 124.332 135.99 123.896 135C123.459 134.01 123.673 130.38 118.219 128.232C112.764 126.084 101.624 125.922 101.624 125.922L70.8407 126.09C70.8407 126.09 56.4296 127.05 53.198 129.192C49.9664 131.334 39.8826 158.562 39.8826 162.684C39.8826 163.974 40.7719 167.97 42.0185 172.914L42.7728 176.028Z" fill="white" stroke="#263238" stroke-miterlimit="10"/>
<path d="M142.237 113.358C142.237 113.358 141.578 117.48 142.015 118.308C142.641 119.742 142.791 121.271 142.452 122.76" stroke="#263238" stroke-miterlimit="10"/>
<path d="M137.211 161.202C145.945 159.552 141.8 133.812 141.8 133.812L141.896 132.15C140.941 131.603 139.835 131.228 138.66 131.052C137.485 130.876 136.273 130.905 135.115 131.136L130.883 141.6C130.883 141.6 124.332 135.99 123.896 135C123.459 134.01 123.673 130.38 118.219 128.232C112.764 126.084 101.624 125.922 101.624 125.922L70.8407 126.09C70.8407 126.09 56.4296 127.05 53.198 129.192C49.9664 131.334 39.8826 158.562 39.8826 162.684C39.8826 165.132 43.1063 177.336 45.8217 187.284C48.9916 187.27 52.0946 186.593 54.786 185.328C55.1036 178.194 55.58 167.832 55.58 166.974C55.58 165.654 59.7247 157.374 59.7247 157.374C59.7247 157.374 62.996 168.102 62.996 169.422C62.996 170.742 61.6859 180.822 63.4327 182.124C65.1795 183.426 71.2933 186.084 84.831 185.754C98.3687 185.424 108.413 184.596 111.033 182.616C113.653 180.636 110.596 174.534 110.374 173.712C110.152 172.89 113.868 151.272 113.868 151.272C113.868 151.272 128.477 162.852 137.211 161.202Z" fill="#006AB2" stroke="#263238" stroke-miterlimit="10"/>
<path d="M55.4212 148.326L59.7088 157.404L50.8795 145.998" stroke="#263238" stroke-miterlimit="10"/>
<path d="M52.9995 143.202L54.5161 146.412" stroke="#263238" stroke-miterlimit="10"/>
<path d="M83.235 148.968C85.1645 152.244 87.999 156.354 91.3735 159" stroke="#263238" stroke-miterlimit="10"/>
<path d="M80.5275 143.802C80.5275 143.802 81.123 145.152 82.1869 147.114" stroke="#263238" stroke-miterlimit="10"/>
<path d="M85.2915 154.8C85.2915 154.8 90.0555 162 92.4375 163.398" stroke="#263238" stroke-miterlimit="10"/>
<path d="M121.323 146.07L123.134 144.798" stroke="#263238" stroke-miterlimit="10"/>
<path d="M118.37 144.198L113.852 151.302L119.68 147.222" stroke="#263238" stroke-miterlimit="10"/>
<path d="M139.013 148.2C138.751 146.802 130.883 141.57 130.883 141.57C130.883 141.57 139.013 144 141.133 146.202" stroke="#263238" stroke-miterlimit="10"/>
<path d="M104.681 104.28C104.681 104.28 105.118 108.408 105.777 109.08C106.436 109.752 106.864 114.852 105.777 116.34C104.689 117.828 104.03 119.64 103.395 120.132C102.759 120.624 100.338 120.63 99.4247 120.63C98.5116 120.63 88.7295 120.3 88.7295 120.3L88.9518 109.902C88.9518 109.902 91.3656 102.138 104.681 104.28Z" fill="white" stroke="#263238" stroke-miterlimit="10"/>
<path d="M87.2209 92.736C87.2209 92.736 78.2646 94.878 76.3034 100.8C74.3422 106.722 80.6704 113.502 80.6704 113.502C80.6704 113.502 82.4172 118.302 83.9417 119.28C85.4662 120.258 91.58 119.28 93.5491 118.95C95.5182 118.62 99.9011 109.71 99.9011 109.71C99.9011 109.71 99.9011 111.852 101.211 111.852C102.521 111.852 102.307 109.05 102.307 108.552C102.307 108.054 108.421 104.592 108.421 98.658C108.421 92.724 101.632 90.096 95.28 90.426C88.928 90.756 87.2209 92.736 87.2209 92.736Z" fill="#263238" stroke="#263238" stroke-miterlimit="10"/>
<path d="M105.777 125.562C105.777 125.562 104.467 122.1 103.808 121.608C103.149 121.116 99.0039 119.13 92.239 118.8C85.4741 118.47 75.43 118.638 74.5566 118.968C73.6832 119.298 73.4609 122.1 73.4609 122.1C73.4609 122.1 70.6263 124.08 69.9673 125.238C69.3083 126.396 68.6572 126.882 74.7313 130.68C80.8054 134.478 84.1243 135.96 90.4525 134.802C96.7807 133.644 105.951 126.72 105.951 126.72L105.777 125.562Z" fill="#006AB2" stroke="#263238" stroke-miterlimit="10"/>
<path d="M90.1587 127.902C94.4562 126.792 98.5909 125.35 102.497 123.6" stroke="#263238" stroke-miterlimit="10"/>
<path d="M73.4609 122.76C73.4609 122.76 77.4309 128.7 84.3784 128.7C85.3254 128.691 86.2691 128.615 87.1971 128.472" stroke="#263238" stroke-miterlimit="10"/>
</svg>
