<svg width="100" height="100" viewBox="0 0 100 100" fill="none" xmlns="http://www.w3.org/2000/svg">
<g clip-path="url(#clip0_130_1738)">
<path d="M63.7748 33.542C60.7207 33.0338 52.8488 33.0674 47.6252 34.967C42.4002 36.8664 32.8992 42.8037 30.0494 43.7555C27.1996 44.7045 26.9615 48.5059 33.3736 49.2172C39.7869 49.9309 45.4865 45.8914 46.9113 45.1803C48.3363 44.4666 62.1117 46.6053 62.1117 46.6053L66.4457 47.6732L76.4381 61.1799C78.1914 59.6568 81.6592 56.4242 82.5373 53.9676C82.8578 53.0729 83.3338 52.2504 83.856 51.5199L69.6978 31.9932C67.8916 33.017 65.7117 33.8652 63.7748 33.542Z" fill="#6B7280"/>
<path d="M63.7748 49.6328L61.6748 49.4209C58.9195 48.9941 51.1279 47.8848 48.2031 47.8848C48.0738 47.8848 47.9716 47.8861 47.8953 47.8898C47.7777 47.957 47.6418 48.0348 47.5086 48.1123C45.4334 49.3213 40.5703 52.1516 34.907 52.1516C34.2863 52.1516 33.6644 52.1166 33.0593 52.0494C32.1414 51.9473 31.3343 51.7895 30.6207 51.5904C31.2968 51.8865 31.9201 52.3107 32.4529 52.8551C33.2908 53.7111 33.8091 54.7609 34.0148 55.8588C34.5023 55.7281 35.0078 55.6557 35.525 55.6557C37.1101 55.6557 38.5933 56.2789 39.7 57.4115C40.7914 58.5262 41.3822 60.0002 41.3654 61.5596C41.3654 61.575 41.3629 61.5906 41.3629 61.6061C42.9416 61.6111 44.4183 62.2346 45.5224 63.3619C46.6136 64.4766 47.2047 65.9504 47.1879 67.51C47.1826 68.0479 47.1 68.5727 46.9539 69.0772C48.0736 69.3111 49.099 69.8684 49.9187 70.7063C52.1711 73.0092 52.131 76.7135 49.8295 78.966L48.6775 80.0936C48.6826 80.0936 48.6879 80.0936 48.6929 80.0936C50.6298 79.9539 52.2603 78.7592 52.7168 76.9592C53.5054 77.5811 54.4984 77.9547 55.5808 77.9547C58.1384 77.9547 60.2123 75.882 60.2123 73.3232C60.2123 73.0543 60.1851 72.7932 60.1398 72.5369C60.9545 73.2469 62.016 73.6799 63.181 73.6799C65.7386 73.6799 67.8127 71.6059 67.8127 69.0484C68.3609 69.2773 68.9621 69.4053 69.5931 69.4053C72.1519 69.4053 74.2246 67.3312 74.2246 64.7738C74.2246 62.8316 73.2756 61.5672 71.0179 58.9553L63.7748 49.6328Z" fill="#6B7280"/>
<path d="M30.4168 54.8493C29.2609 53.6688 27.368 53.6481 26.1875 54.8028L21.9141 58.9856C20.7336 60.1403 20.7129 62.0333 21.8676 63.2138C23.0234 64.3942 24.9164 64.4149 26.0969 63.2589L30.3715 59.0772C31.5506 57.9227 31.5713 56.0298 30.4168 54.8493Z" fill="#6B7280"/>
<path d="M37.6627 59.406C36.508 58.2242 34.615 58.2035 33.4346 59.3593L27.7363 64.9347C26.5545 66.0906 26.5351 67.9836 27.6896 69.1629C28.8443 70.3447 30.7387 70.3654 31.9191 69.2095L37.6174 63.6339C38.7978 62.4795 38.8185 60.5865 37.6627 59.406Z" fill="#6B7280"/>
<path d="M43.485 65.3557C42.3303 64.1752 40.4373 64.1531 39.2568 65.3092L33.5586 70.886C32.3781 72.0404 32.3574 73.9334 33.5121 75.1153C34.6668 76.2945 36.5598 76.3153 37.7416 75.1592L43.4398 69.5838C44.6203 68.4278 44.641 66.5348 43.485 65.3557Z" fill="#6B7280"/>
<path d="M47.8824 72.7003C46.7277 71.5199 44.8348 71.498 43.6543 72.6538L40.3301 75.9072C39.1496 77.0617 39.1289 78.9546 40.2836 80.1353C41.4395 81.3158 43.3324 81.3353 44.5129 80.1818L47.8371 76.9287C49.0178 75.774 49.0371 73.881 47.8824 72.7003Z" fill="#6B7280"/>
<path d="M99.7277 45.8962L80.6277 19.5552C80.166 18.9165 79.2752 18.7757 78.6377 19.2372L70.1777 25.3724C69.5402 25.8339 69.398 26.7249 69.8609 27.3622L88.9609 53.7046C89.4225 54.3421 90.3135 54.4843 90.9508 54.0214L99.4123 47.8874C100.048 47.4243 100.191 46.5335 99.7277 45.8962ZM93.2293 48.2624C92.1678 49.0329 90.682 48.795 89.9115 47.7335C89.1422 46.672 89.3787 45.1876 90.4416 44.4171C91.5031 43.6464 92.9875 43.8843 93.7582 44.9447C94.5273 46.0073 94.2908 47.4931 93.2293 48.2624Z" fill="#6B7280"/>
<path d="M28.2781 51.0994C28.7281 51.0994 29.1678 51.1564 29.5943 51.2533C26.0037 49.8764 25.409 47.3576 25.3158 46.4693C25.0623 44.0771 26.6023 41.8986 29.1482 41.0504C30.1723 40.709 32.8564 39.2453 35.4529 37.8309C38.2381 36.3115 41.2947 34.6449 43.9531 33.4189C40.5836 33.1463 37.426 33.2613 35.74 33.5418C33.9246 33.8443 31.8973 33.1191 30.1633 32.1855L15.8937 51.8637C16.3217 52.5063 16.7057 53.2098 16.9758 53.9674C17.3754 55.0846 18.3115 56.3619 19.3781 57.567C19.5449 57.3523 19.7221 57.1428 19.9213 56.9477L24.1945 52.7648C25.2926 51.6916 26.7433 51.0994 28.2781 51.0994Z" fill="#6B7280"/>
<path d="M29.8232 25.3712L21.3617 19.2372C20.7255 18.7757 19.8347 18.9165 19.3718 19.5552L0.271623 45.8964C-0.191267 46.5337 -0.0477126 47.4245 0.58842 47.8876L9.04858 54.0216C9.68608 54.4845 10.5769 54.3423 11.0386 53.7034L30.1388 27.3624C30.6015 26.7251 30.4593 25.8341 29.8232 25.3712ZM24.1689 28.3142C23.3996 29.3743 21.9138 29.6122 20.8523 28.8417C19.7894 28.0722 19.5527 26.5866 20.3234 25.5251C21.0927 24.4636 22.5785 24.2257 23.64 24.9962C24.7029 25.7669 24.9382 27.2513 24.1689 28.3142Z" fill="#6B7280"/>
</g>
<defs>
<clipPath id="clip0_130_1738">
<rect width="100" height="100" fill="white"/>
</clipPath>
</defs>
</svg>
