<svg width="100" height="100" viewBox="0 0 100 100" fill="none" xmlns="http://www.w3.org/2000/svg">
<path d="M16.6667 95.8337C15.5616 95.8337 14.5018 95.3947 13.7204 94.6133C12.939 93.8319 12.5 92.7721 12.5 91.667V79.167C12.5 78.0619 12.939 77.0021 13.7204 76.2207C14.5018 75.4393 15.5616 75.0003 16.6667 75.0003C17.7717 75.0003 18.8315 75.4393 19.6129 76.2207C20.3943 77.0021 20.8333 78.0619 20.8333 79.167V91.667C20.8333 92.7721 20.3943 93.8319 19.6129 94.6133C18.8315 95.3947 17.7717 95.8337 16.6667 95.8337ZM54.1667 91.667V62.5003C54.1667 61.3953 53.7277 60.3354 52.9463 59.554C52.1649 58.7726 51.1051 58.3337 50 58.3337C48.8949 58.3337 47.8351 58.7726 47.0537 59.554C46.2723 60.3354 45.8333 61.3953 45.8333 62.5003V91.667C45.8333 92.7721 46.2723 93.8319 47.0537 94.6133C47.8351 95.3947 48.8949 95.8337 50 95.8337C51.1051 95.8337 52.1649 95.3947 52.9463 94.6133C53.7277 93.8319 54.1667 92.7721 54.1667 91.667ZM83.3333 45.8337C82.2283 45.8337 81.1684 46.2726 80.387 47.054C79.6056 47.8354 79.1667 48.8953 79.1667 50.0003V91.667C79.1667 92.7721 79.6056 93.8319 80.387 94.6133C81.1684 95.3947 82.2283 95.8337 83.3333 95.8337C84.4384 95.8337 85.4982 95.3947 86.2796 94.6133C87.061 93.8319 87.5 92.7721 87.5 91.667V50.0003C87.5 48.8953 87.061 47.8354 86.2796 47.054C85.4982 46.2726 84.4384 45.8337 83.3333 45.8337ZM84.925 4.48783C84.4209 4.27659 83.8799 4.16754 83.3333 4.16699H66.6667C65.5616 4.16699 64.5018 4.60598 63.7204 5.38738C62.939 6.16878 62.5 7.22859 62.5 8.33366C62.5 9.43873 62.939 10.4985 63.7204 11.2799C64.5018 12.0613 65.5616 12.5003 66.6667 12.5003H73.275L50 35.7753L36.2792 22.0545C35.4978 21.2734 34.4382 20.8345 33.3333 20.8345C32.2285 20.8345 31.1689 21.2734 30.3875 22.0545L13.7208 38.7212C12.9618 39.507 12.5419 40.5595 12.5514 41.652C12.5609 42.7445 12.9991 43.7895 13.7716 44.5621C14.5441 45.3346 15.5892 45.7728 16.6817 45.7823C17.7741 45.7918 18.8267 45.3718 19.6125 44.6128L33.3333 30.892L47.0542 44.6128C47.8355 45.394 48.8951 45.8328 50 45.8328C51.1049 45.8328 52.1645 45.394 52.9458 44.6128L79.1667 18.392V25.0003C79.1667 26.1054 79.6056 27.1652 80.387 27.9466C81.1684 28.728 82.2283 29.167 83.3333 29.167C84.4384 29.167 85.4982 28.728 86.2796 27.9466C87.061 27.1652 87.5 26.1054 87.5 25.0003V8.33366C87.499 7.50987 87.2539 6.70485 86.7956 6.02033C86.3373 5.33581 85.6863 4.80251 84.925 4.48783Z" fill="#6B7280"/>
</svg>
