<svg width="100" height="100" viewBox="0 0 100 100" fill="none" xmlns="http://www.w3.org/2000/svg">
<g clip-path="url(#clip0_129_1727)">
<path d="M49.9994 31.1367C57.1231 31.1367 62.9184 25.3412 62.9184 18.2178C62.9184 11.0943 57.1229 5.29883 49.9994 5.29883C42.8758 5.29883 37.0805 11.0943 37.0805 18.2178C37.0805 25.3412 42.8758 31.1367 49.9994 31.1367Z" fill="#6B7280"/>
<path d="M29.1654 62.2537H70.8336C72.5559 62.2537 73.9521 60.8574 73.9521 59.1352C73.9521 45.9275 63.207 35.1826 49.9996 35.1826C36.7922 35.1826 26.0469 45.9275 26.0469 59.1352C26.0469 60.8574 27.4432 62.2537 29.1654 62.2537Z" fill="#6B7280"/>
<path d="M62.5855 74.2245L55.8215 73.2415L52.7965 67.1124C51.6543 64.7977 48.3451 64.7993 47.2035 67.1124L44.1785 73.2415L37.4144 74.2245C34.8603 74.5956 33.8391 77.7432 35.6861 79.5436L40.5805 84.3145L39.425 91.0512C38.9887 93.5952 41.6666 95.5389 43.9498 94.3387L49.9998 91.1583L56.0498 94.3387C58.3144 95.5294 61.0143 93.6141 60.5746 91.0512L59.4191 84.3145L64.3135 79.5436C66.1619 77.7418 65.1381 74.5954 62.5855 74.2245Z" fill="#6B7280"/>
<path d="M27.8419 74.2243L21.0778 73.2413L18.0528 67.1122C16.9106 64.7979 13.6014 64.7991 12.4598 67.1122L9.43501 73.2413L2.67095 74.2243C0.116851 74.5954 -0.904243 77.7431 0.942632 79.5435L5.83697 84.3144L4.6815 91.0511C4.24517 93.595 6.9231 95.5388 9.2063 94.3386L15.2563 91.1579L21.3063 94.3386C23.571 95.5292 26.2708 93.614 25.8311 91.0511L24.6756 84.3144L29.5702 79.5435C31.4184 77.7417 30.3944 74.5952 27.8419 74.2243Z" fill="#6B7280"/>
<path d="M97.3289 74.224L90.5648 73.241L87.54 67.1119C86.6031 65.2133 84.5354 65.3735 84.7436 65.3735C83.5566 65.3735 82.4725 66.0475 81.9471 67.1119L78.9221 73.241L72.158 74.224C69.6039 74.5951 68.5828 77.7428 70.4297 79.5432L75.3244 84.3141L74.1689 91.0508C73.7326 93.5947 76.4104 95.5385 78.6938 94.3383L84.7438 91.1576L90.7938 94.3383C93.0584 95.5289 95.7582 93.6137 95.3186 91.0508L94.1631 84.3141L99.0576 79.5432C100.905 77.7418 99.8818 74.5949 97.3289 74.224Z" fill="#6B7280"/>
</g>
<defs>
<clipPath id="clip0_129_1727">
<rect width="100" height="100" fill="white"/>
</clipPath>
</defs>
</svg>
