<svg width="100" height="100" viewBox="0 0 100 100" fill="none" xmlns="http://www.w3.org/2000/svg">
<path d="M27.7407 97.7664C27.7407 98.9949 29.4168 100 31.4654 100H86.5165C88.5651 100 90.2412 98.9949 90.2412 97.7664V92.6514H27.7407V97.7664Z" fill="#6B7280"/>
<path d="M26.493 36.0621L26.5118 19.7231C26.5118 17.8356 27.7035 16.0711 29.8827 14.7532C32.3037 13.3013 35.7677 12.4749 39.4179 12.4749C42.2673 12.4749 45.005 12.9998 47.1279 13.9379C49.6981 15.0771 51.2996 16.797 51.6348 18.7626C51.6348 18.8073 53.1061 27.3286 54.4283 34.9565C63.6843 31.6954 69.9232 25.6645 69.9232 18.7626C69.9232 8.39849 55.9182 0 38.6356 0C21.3529 0 7.34793 8.39849 7.34793 18.7626C7.32931 26.5357 15.2257 33.2143 26.493 36.0621Z" fill="#6B7280"/>
<path d="M100 57.3826C100 55.2048 97.6721 53.2726 94.2081 52.6025C83.872 50.5811 63.0136 46.5494 59.8288 46.1696C58.8417 46.058 57.8733 46.0021 56.9421 46.0021C54.4279 46.0021 52.2303 46.4153 50.9082 47.1189H50.8894C50.8894 47.1189 50.8894 47.1189 50.8894 47.1078C50.8708 47.0183 46.0661 19.1537 46.0661 19.1091C45.6748 16.8754 42.5835 15.8145 39.3987 15.8145C35.7859 15.8145 32.0612 17.177 32.0796 19.7122L32.0424 64.8653C32.0424 65.4013 31.3905 65.848 30.4966 65.9263C30.478 65.9263 30.478 65.9263 30.4594 65.9263C30.3851 65.9375 30.2919 65.9375 30.2173 65.9375C30.1986 65.9375 30.18 65.9375 30.1614 65.9375C27.6286 65.8928 21.9111 65.848 16.3427 61.0123C15.5977 60.3756 14.9273 59.795 14.3127 59.2588C12.3759 57.5947 9.78719 56.8801 7.3475 56.8801C3.06408 56.8801 -0.791002 59.1023 0.140177 62.4195C1.48107 67.2552 10.3087 78.5239 27.7031 89.0891H90.2038L96.517 82.6898C98.7707 80.4225 99.9624 77.8316 99.9624 75.1846L100 57.3826Z" fill="#6B7280"/>
</svg>
