<svg width="357" height="303" viewBox="0 0 357 303" fill="none" xmlns="http://www.w3.org/2000/svg">
<path d="M142.064 246.286L109.095 252.664C109.095 252.664 71.1172 260.381 68.7111 260.625C66.305 260.87 58.9189 259.735 54.7669 246.286C51.5028 247.039 21.4315 253.666 19.3189 253.757C17.2063 253.848 12.5231 251.935 10.173 245.684C18.2417 243.498 29.64 241.003 29.64 241.003C29.64 241.003 31.6377 231.332 31.0109 218.269C30.3841 205.207 28.3146 179.43 37.5325 177.82C46.7505 176.209 83.0078 168.009 83.0078 168.009C83.0078 168.009 81.9502 149.004 82.0285 141.323C82.1069 133.642 80.4619 97.6498 97.644 85.0169C104.015 80.2327 116.079 78.663 121.772 77.5416C127.465 76.4203 158.529 71.9722 167.887 71.711C177.245 71.4498 195.11 69.3377 206.547 69.7301C217.984 70.1225 223.586 74.8317 226.837 77.8031C230.088 80.7745 236.433 94.9024 238.705 102.975C240.977 111.048 244.211 126.363 244.826 129.015C245.442 131.666 247.322 147.022 247.688 149.452C248.053 151.881 251.554 176.07 254.372 185.952C257.191 195.834 259.885 210.091 269.075 224.155C278.265 238.218 287 243.477 295.657 247.117C304.313 250.758 329.003 251.612 329.003 251.612L329.342 254.755L297.413 264.222C297.413 264.222 240.64 281.223 239.195 281.564C237.751 281.905 226.07 282.496 219.592 281.714C213.115 280.931 201.925 279.013 191.898 271.949C181.871 264.885 175.431 259.845 163.296 234.839C151.162 209.832 145.274 155.207 141.67 141.453C138.067 127.699 137.1 121.573 136.343 120.581C133.444 120.897 111.053 123.719 109.995 124.111C108.938 124.503 105.608 130.502 105.413 132.184C105.217 133.866 104.472 135.556 107.371 143.681C110.269 151.806 142.064 246.286 142.064 246.286Z" fill="white"/>
<path d="M148.511 234.07L152.585 245.78L161.515 222.633L157.807 211.047L148.511 234.07Z" fill="white"/>
<path d="M131.799 183.688L136.384 196.587L150.182 162.159L146.753 147.957L131.799 183.688Z" fill="white"/>
<path d="M123.13 155.133L127.39 168.841L144.125 131.811L136.384 125.383L123.13 155.133Z" fill="white"/>
<path d="M181.451 51.9164C181.451 51.9164 186.363 43.1965 186.465 42.5538C186.567 41.9112 185.681 42.1615 184.506 41.9372C183.331 41.713 179.179 39.5264 179.219 33.9203C179.258 28.3139 179.127 11.4391 179.179 10.1308C179.232 8.82257 179.78 1.19825 185.786 1.01131C191.792 0.824373 210.906 0.450778 212.369 0.525328C213.831 0.600159 218.14 1.01131 218.401 9.12161C218.662 17.2322 218.636 31.061 218.636 32.8177C218.636 34.5744 218.401 40.9333 212.499 41.6382C206.597 42.3433 198.425 41.6755 197.537 41.9745C196.649 42.2736 188.058 47.8424 185.081 49.8982C182.104 51.9536 181.451 51.9164 181.451 51.9164Z" fill="white"/>
<path d="M249.337 64.5627C250.98 64.4436 306.211 64.5627 306.211 64.5627C306.211 64.5627 306.25 91.0814 306.211 92.7545C306.171 94.4277 305.623 95.5578 303.782 95.6418C301.941 95.7259 275.698 95.2775 275.267 95.3055C274.836 95.3335 274.464 95.5017 273.603 96.7912C272.741 98.0807 265.475 109.209 265.475 109.209C265.475 109.209 267.629 97.2957 267.825 96.3708C268.021 95.4459 267.492 95.1934 266.513 95.2775C265.534 95.3616 250.199 95.1654 249.455 95.1934C248.71 95.2214 244.48 95.6979 244.598 87.6249C244.715 79.5518 244.657 71.675 244.715 70.4415C244.774 69.2081 245.362 64.8511 249.337 64.5627Z" fill="white"/>
<path d="M291.666 144.544C292.261 143.587 292.912 142.688 293.435 141.655C293.893 140.751 294.45 140.376 295.19 140.382C295.722 140.386 309.941 139.986 310.937 139.566C311.38 139.379 311.887 139.483 312.366 139.481C316.091 139.464 319.816 139.454 323.541 139.439C324.178 139.436 324.804 139.41 325.437 139.172C325.939 138.983 326.491 139.031 327.021 139.029C332.982 139.01 346.477 138.911 347.272 138.679C348.651 138.276 350.008 138.3 351.329 138.906C351.681 139.067 352.014 139.821 352.372 139.916C353.264 140.153 353.698 140.985 354.023 142.117C355.134 145.993 354.955 160.282 354.959 161.491C354.964 162.938 354.933 170.361 354.971 171.265C354.185 175.3 354.36 176.996 350.742 177.764C349.178 178.096 347.6 178.553 345.994 178.313C345.889 178.297 345.776 178.338 345.676 178.303C344.031 177.732 334.02 178.791 331.093 178.802C330.506 178.804 320.782 178.765 320.464 178.779C319.563 178.819 318.675 178.87 317.775 179.124C316.902 179.369 315.974 179.244 315.07 179.227C314.259 179.211 313.557 179.446 312.818 180.06C309.328 182.959 305.88 185.948 302.47 189.039C299.243 191.963 296.013 194.893 292.674 197.567C291.514 198.496 290.324 199.337 289.17 200.271C288.108 201.129 287.106 202.137 286.068 203.055C285.709 203.372 285.332 203.661 284.94 203.879C284.697 204.015 284.4 203.986 284.2 203.671C283.958 203.29 283.969 202.814 284.124 202.398C284.246 202.073 284.434 201.776 284.634 201.541C284.92 201.205 285.239 200.921 285.555 200.642C287.432 198.99 294.407 189.295 294.514 189.126C294.616 188.964 296.34 187.036 297.064 186.058C297.908 184.917 301.271 180.55 301.167 180.076C301.034 179.471 300.666 179.329 300.283 179.306C299.968 179.287 299.628 179.249 299.337 179.383C298.349 179.84 297.341 179.679 296.337 179.716C295.561 179.744 294.861 179.39 294.235 178.805C293.077 177.722 292.396 176.121 291.995 174.256C291.258 170.823 291.189 167.329 291.338 163.721C291.391 162.434 291.067 149.622 291.186 148.556C291.335 147.216 291.741 145.937 291.666 144.544Z" fill="#C4E9F2"/>
<path d="M50.9134 42.428C53.1805 42.4975 55.4762 42.5342 57.7351 43.0836C58.2559 43.2102 58.7958 43.1752 59.327 43.2175C61.3904 43.3815 63.045 45.1729 63.7006 47.6925C64.3824 50.3121 64.7043 53.1218 64.1954 55.9746C64.0799 56.6226 64.128 63.3506 64.1151 66.0159C64.11 67.0787 64.0423 72.309 63.9784 72.8631C63.7255 75.0606 64.001 77.1721 63.0493 78.9984C62.8566 79.3683 61.6276 80.5336 61.0184 81.1404C59.9191 82.2354 55.1964 82.5075 54.6125 82.5353C54.4055 82.5451 54.1703 82.5308 54.0558 82.845C53.8948 83.2864 64.0299 96.2809 65.7386 98.326C66.9982 99.8335 68.2998 101.272 69.6048 102.699C70.4137 103.584 71.093 104.652 71.8005 105.682C71.8727 105.787 71.9395 105.929 71.9602 106.069C71.9794 106.198 71.9636 106.384 71.9076 106.476C71.8516 106.568 71.6975 106.652 71.6364 106.605C70.8418 105.998 70.0531 105.374 69.2684 104.74C66.9569 102.872 64.6499 100.993 62.337 99.1281C61.2727 98.2702 60.1997 97.4342 59.1292 96.5923C55.7311 93.9197 52.3264 91.2647 48.9361 88.5719C46.6152 86.7283 44.3095 84.8452 42.0066 82.956C40.8801 82.0319 39.7372 81.4703 38.3839 81.5549C36.0467 81.7009 33.7019 81.6096 31.3604 81.5944C30.3019 81.5874 27.2427 81.1777 26.7644 81.1766C20.5911 81.1637 5.39271 80.7769 4.02615 80.1699C2.64432 79.5561 1.57872 78.3495 1.06883 76.3179C0.997364 76.0331 0.545241 75.7501 0.534863 75.46C0.432846 72.5828 0.778252 61.0768 0.824072 58.1954C0.843261 56.9827 0.966623 47.7275 1.18045 45.7833C1.1969 45.6345 1.20218 45.4568 1.2619 45.3478C2.08039 43.8534 2.83719 42.1466 4.2858 41.8924C5.91219 41.6071 7.53918 41.1957 9.19671 41.3798C10.0403 41.4734 46.8803 42.3044 50.9134 42.428Z" fill="#ED7372"/>
<path d="M284.944 56.4239C287.658 56.4239 290.372 56.4203 293.085 56.4264C293.829 56.4281 294.565 56.4727 295.308 56.6461C295.98 56.8031 296.7 56.8109 297.371 56.6481C298.114 56.4679 298.849 56.4357 299.592 56.4233C301.88 56.3849 304.176 56.5088 306.454 56.2672C308.364 56.0643 310.269 55.9413 312.181 55.9337C314.415 55.925 316.664 55.728 318.882 56.0133C323.079 56.5534 327.28 56.1899 331.476 56.4138C332.803 56.4847 334.135 56.4141 335.465 56.3802C336.673 56.3494 337.769 56.8502 338.794 57.7252C339.315 58.1697 339.675 58.7787 339.872 59.6256C340.158 60.8571 340.441 62.0785 340.434 63.398C340.421 65.7556 340.896 68.0807 340.7 70.4464C340.444 73.5408 340.903 77.1495 340.544 80.2358C340.441 81.1278 340.133 81.5847 340.161 82.4953C340.208 83.9916 339.668 84.9501 338.815 85.5967C337.911 86.283 336.939 86.593 335.9 86.579C333.239 86.5431 330.579 86.5571 327.918 86.5731C326.857 86.5795 325.796 86.5355 324.739 86.8413C324.284 86.973 323.785 86.8803 323.314 86.7945C321.353 86.4369 319.384 86.6636 317.419 86.6022C316.951 86.5877 317.119 87.0005 317.237 87.681C317.25 87.7547 317.268 87.827 317.286 87.8987C318.028 90.9009 318.155 94.0637 319.412 96.7739C319.471 96.8994 319.514 97.0416 319.554 97.1822C319.682 97.6396 319.664 98.0749 319.429 98.458C319.19 98.8493 318.738 99.0009 318.406 98.8109C318.046 98.6054 317.794 98.2117 317.568 97.7859C316.988 96.6974 316.398 95.6184 315.84 94.506C314.685 92.2014 313.217 90.3144 311.847 88.2964C311.211 87.3609 310.419 87.132 309.546 86.9627C305.995 86.2729 302.43 86.6126 298.872 86.5874C292.168 86.5397 285.463 87.0591 278.759 87.0694C277.75 87.0708 276.75 86.6334 275.742 86.871C274.806 87.0913 273.833 86.9784 272.876 87.024C271.763 87.0773 271.076 86.2135 270.672 84.8467C270.193 83.2276 269.877 81.5337 269.864 79.7629C269.846 77.1814 269.456 74.6159 269.729 72.024C269.957 69.862 269.803 67.6171 269.814 65.4089C269.819 64.2668 270.146 63.1245 270.148 61.9824C270.152 59.5463 271.117 58.0539 272.54 57.0228C272.679 56.9225 272.845 56.8513 272.998 56.8488C274.222 56.8283 275.409 56.3378 276.644 56.3684C279.41 56.4365 282.177 56.3897 284.944 56.3897C284.944 56.4009 284.944 56.4124 284.944 56.4239Z" fill="#F9DC88"/>
<path d="M222.491 130.572C222.931 130.572 223.092 130.552 223.25 130.576C223.766 130.654 224.039 130.972 224.141 131.667C224.747 135.767 225.832 139.649 226.798 143.584C226.869 143.87 226.973 144.143 227.018 144.436C227.22 145.747 226.831 146.581 225.878 146.514C224.271 146.401 222.698 146.842 221.131 147.111C219.773 147.344 218.396 147.41 217.038 147.807C215.647 148.213 214.196 148.184 212.775 148.393C211.303 148.61 209.836 148.884 208.367 149.138C208.209 149.165 208.051 149.273 207.898 149.255C206.295 149.07 204.746 149.9 203.146 149.766C201.558 150.507 199.858 149.872 198.265 150.576C198.116 150.642 197.947 150.66 197.791 150.641C196.187 150.442 194.603 150.911 193.047 151.234C191.58 151.538 190.091 151.409 188.631 151.921C187.461 152.333 186.202 152.205 185.012 152.536C183.604 152.927 182.162 152.791 180.764 153.297C179.895 153.612 178.977 153.568 178.086 153.722C176.882 153.931 175.68 154.241 174.463 154.363C173.201 154.489 171.944 154.783 170.695 155.094C169.861 155.302 169.018 155.313 168.179 155.583C166.792 156.028 165.359 156.174 163.945 156.456C163.649 156.515 163.437 156.316 163.233 156.062C162.524 155.175 162.139 153.034 161.889 151.795C161.287 148.816 161.208 146.791 160.566 143.652C160.572 142.757 160.343 141.862 160.306 140.96C160.26 139.884 160.506 139.481 161.189 139.048C161.649 138.756 162.125 138.819 162.6 138.786C164.503 138.65 166.398 138.402 168.278 137.954C168.383 137.929 168.491 137.888 168.594 137.901C170.304 138.107 171.99 137.604 173.658 137.303C175.286 137.01 176.953 137.259 178.546 136.57C178.596 136.548 178.652 136.532 178.703 136.537C180.358 136.708 181.976 136.142 183.611 135.952C185.183 135.77 186.787 135.79 188.337 135.229C188.44 135.192 188.549 135.15 188.652 135.161C190.308 135.347 191.929 134.783 193.559 134.571C195.13 134.366 196.74 134.462 198.285 133.844C198.386 133.803 198.497 133.774 198.6 133.787C200.257 133.991 201.888 133.494 203.506 133.205C205.186 132.905 206.903 133.112 208.552 132.459C208.603 132.439 208.658 132.421 208.71 132.426C210.364 132.587 211.968 131.802 213.622 131.895C214.039 131.918 214.475 131.839 214.878 131.68C215.351 131.493 215.822 131.482 216.299 131.464C216.988 131.436 217.674 131.477 218.35 131.145C218.689 130.978 219.085 131.033 219.456 131.014C220.303 130.969 221.156 131.074 221.981 130.642C222.22 130.515 222.506 130.57 222.491 130.572Z" fill="#C4E9F2"/>
<path d="M149.765 234.834C148.859 232.759 148.316 230.44 147.637 228.217C143.886 215.95 140.172 203.661 136.449 191.377C136.407 191.242 136.907 190.522 137.069 190.097C139.771 183.035 142.821 176.267 145.629 169.294C146.246 167.036 146.401 167.789 146.467 167.671C146.594 167.446 146.274 168.757 146.351 169.033C146.508 169.595 146.679 170.155 146.786 170.737C147.635 175.362 148.566 179.949 149.665 184.467C149.924 185.534 150.027 186.676 150.234 187.771C150.746 190.479 151.232 193.199 151.81 195.878C152.828 200.592 153.9 205.283 154.968 209.975C155.247 211.2 155.591 212.396 155.92 213.597C156.076 214.164 156.27 214.708 156.59 215.135C157.199 215.948 157.163 216.847 156.789 217.822C156.482 218.622 151.321 231.628 150.4 233.848C150.235 234.247 150.069 234.626 149.765 234.834Z" fill="#C4E9F2"/>
<path d="M222.496 229.27C223.381 229.134 223.968 229.637 224.517 230.678C225.509 232.561 226.239 234.688 227.296 236.511C227.843 237.454 227.589 238.368 226.781 238.845C226.439 239.047 226.078 239.223 225.715 239.305C224.147 239.658 222.573 239.953 221.005 240.304C219.386 240.667 198.859 246.794 196.346 247.641C194.489 248.268 192.64 248.945 190.787 249.599C190.427 249.726 190.05 249.788 189.708 249.982C188.44 250.704 187.828 249.784 187.086 248.579C185.862 246.591 184.432 244.442 183.293 242.348C182.902 241.629 183.115 240.604 183.732 240.362C184.6 240.023 185.483 239.765 186.365 239.506C191.654 237.957 196.943 236.407 202.234 234.877C207.525 233.346 212.82 231.839 218.112 230.322C219.15 230.025 220.187 229.713 221.228 229.444C221.644 229.336 222.073 229.325 222.496 229.27Z" fill="#C4E9F2"/>
<path d="M134.187 185.494C134.008 185.035 133.802 184.594 133.654 184.115C131.862 178.306 130.076 172.491 128.295 166.674C128.17 166.265 128.094 165.825 127.995 165.4C129.723 162.124 139.471 138.313 140.011 137.008C140.162 136.642 140.539 136.693 140.64 137.1C141.188 139.314 141.753 141.525 142.049 143.843C142.6 148.164 143.239 152.453 144.142 156.655C144.189 156.872 144.22 157.098 144.276 157.31C144.911 159.721 145.192 160.209 143.525 163.915C142.121 166.849 135.334 183.406 134.849 184.582C134.686 184.978 134.543 185.39 134.187 185.494Z" fill="#C4E9F2"/>
<path d="M174.255 254.168C172.776 253.783 171.311 253.965 169.831 254.249C167.047 254.783 164.348 255.932 161.571 256.503C160.261 256.772 158.964 257.121 157.683 257.61C157.134 257.82 156.922 257.657 156.674 256.899C155.22 252.441 153.781 247.973 152.338 243.508C152.519 243.237 158.46 227.988 159.142 226.269C159.386 225.655 159.754 225.671 159.992 226.283C160.638 227.945 161.289 229.603 161.904 231.288C163.431 235.471 165.141 239.021 166.963 242.95C167.489 244.084 168.121 245.119 168.723 246.177C169.07 246.786 169.494 247.691 170.092 247.633C170.422 247.6 170.744 248.681 170.939 249.093C171.87 251.05 172.672 251.671 174.126 253.529C174.205 253.708 174.214 253.953 174.255 254.168Z" fill="#C4E9F2"/>
<path d="M275.662 229.823C274.851 226.765 274.067 223.692 273.29 220.616C272.098 215.892 267.739 200.439 267.705 200.306C266.796 196.739 263.065 181.176 262.17 178.001C261.991 177.365 261.847 176.711 261.468 176.245C261.335 176.235 259.387 166.94 258.712 164.17C258.642 163.25 258.435 162.386 258.18 161.537C256 154.273 254.336 146.727 252.279 139.391C250.62 133.476 249.287 127.371 247.871 121.321C247.059 117.856 246.107 114.487 245.063 111.154C244.284 108.668 242.752 107.954 241.167 107.285C240.629 107.058 240.094 107.82 240.175 108.632C240.241 109.301 240.394 109.958 240.544 110.604C242.184 117.672 243.834 124.735 245.473 131.803C245.656 132.592 245.788 133.406 245.944 134.208C246.315 134.8 246.367 135.582 246.531 136.289C248.923 146.588 251.305 156.892 253.689 167.195C253.739 167.411 253.809 167.62 253.846 167.84C253.975 168.611 254.244 169.083 254.632 169.304C255.655 173.083 257.816 182.81 258.088 184.033C258.7 186.782 263.921 208.671 264.278 210.074C265.01 212.954 265.697 215.858 266.402 218.751C266.484 218.941 266.587 219.12 266.646 219.324C267.201 221.241 268.058 222.812 269.126 224.223C270.828 226.47 272.6 228.635 273.952 231.371C274.013 231.494 274.08 231.613 274.153 231.721C274.751 232.605 275.008 232.617 275.913 231.815C275.966 231.115 275.836 230.48 275.662 229.823Z" fill="#646464"/>
<path d="M193.88 13.5394C194.643 13.4935 195.361 13.751 196.04 14.2185C196.518 14.5475 197.035 14.8393 197.428 15.3239C198.425 16.5523 199.304 16.2852 200.287 15.2549C201.691 13.7833 203.272 12.9862 205.053 13.0728C206.032 13.1204 206.928 13.4985 207.821 14.0184C208.495 14.4111 208.475 15.1145 208.564 16.0904C208.678 17.3401 208.793 18.5175 208.456 19.6425C207.74 22.0306 206.85 24.2828 205.61 26.199C204.091 28.5465 202.385 30.6109 200.675 32.6653C200.281 33.1386 199.964 33.3368 199.41 32.9038C197.499 31.4102 195.529 30.0678 193.742 28.2693C192.289 26.8072 191.061 25.051 190.254 22.7377C189.865 21.6209 189.679 20.4365 189.635 19.224C189.534 16.4455 191.069 13.9817 193.085 13.6C193.348 13.5506 193.615 13.5582 193.88 13.5394Z" fill="#ED7372"/>
<path d="M125.318 156.78C124.18 153.174 123.035 149.574 121.909 145.962C120.782 142.346 119.676 138.717 118.561 135.094C118.432 134.676 118.296 134.261 118.183 133.834C118.073 133.418 118.207 133.008 118.484 132.953C119.483 132.757 120.482 132.524 121.487 132.422C122.601 132.31 123.721 132.34 124.838 132.282C125.953 132.224 127.07 132.224 128.068 131.291C128.311 131.064 128.678 131.069 128.991 131.047C129.735 130.994 130.481 131.009 131.225 130.962C133.029 130.846 134.832 130.71 136.636 130.582C135.695 131.016 127.134 151.882 125.318 156.78Z" fill="#C4E9F2"/>
<path d="M260.309 193.6C260.308 193.614 260.31 193.629 260.309 193.643C260.314 193.646 260.317 193.651 260.322 193.654L260.309 193.6Z" fill="#C4E9F2"/>
<path d="M264.278 210.075C263.921 208.671 263.481 207.311 263.078 205.931C263.001 205.715 262.924 205.5 262.846 205.284L262.878 205.126C262.475 204.754 262.799 204.08 262.667 203.535C262.043 200.973 261.485 198.378 260.865 195.813C260.692 195.093 260.273 194.391 260.308 193.642C259.902 193.332 260.022 192.752 259.97 192.259C259.341 189.518 258.7 186.782 258.088 184.034C257.794 182.71 257.451 181.424 256.947 180.238C256.038 175.901 253.997 168.739 253.847 167.841C253.81 167.62 253.74 167.412 253.69 167.196C251.305 156.893 248.924 146.589 246.532 136.29C246.368 135.583 246.316 134.8 245.945 134.209C245.609 134.278 245.659 134.446 245.613 135.004C245.549 135.773 245.664 136.491 245.834 137.23C246.611 140.613 246.686 144.013 247.438 147.408C247.55 147.914 247.691 148.413 247.758 148.932C248.205 152.423 249.031 155.905 249.388 159.416C249.738 162.864 250.38 166.219 250.817 169.638C250.892 170.226 251.065 170.798 251.236 171.351C251.428 171.97 252.141 177.417 253.708 183.47C253.704 184.602 254.05 185.71 254.399 186.809C254.795 188.054 255.142 189.33 255.554 190.563C256.768 194.199 257.72 197.784 258.892 201.452C260.129 205.325 261.509 209.106 262.875 212.892C263.458 214.508 264.163 216.035 264.814 217.601C265.173 218.463 265.674 218.931 266.403 218.753C265.697 215.858 265.01 212.955 264.278 210.075Z" fill="#C4E9F2"/>
<path d="M174.605 254.517C174.433 254.494 174.297 254.4 174.247 254.139C174.45 254.101 174.566 254.235 174.605 254.517Z" fill="#C4E9F2"/>
<path d="M146.608 261.768C146.625 261.742 146.634 261.716 146.648 261.689C146.618 261.711 146.587 261.736 146.558 261.766C146.558 261.766 146.608 261.768 146.608 261.768Z" fill="#646464"/>
<path d="M351.96 258.398C351.842 257.662 352.013 256.703 350.694 255.992C350.053 255.647 302.562 242.314 301.413 242.029C299.219 241.483 297.025 240.909 294.851 240.221C293.403 239.762 282.297 236.109 281.209 235.568C280.559 235.245 280.088 235.387 279.705 236.187C279.707 236.955 279.996 237.276 280.465 237.729C281.542 238.771 287.547 243.237 289.491 244.234C289.84 244.413 293.394 246.183 294.895 246.889C298.335 248.509 301.971 248.722 305.47 249.91C305.522 249.927 305.576 249.926 305.629 249.931C310.484 251.537 328.985 251.367 329.003 251.611C329.046 252.206 330.178 254.486 329.003 254.854C322.624 256.851 306.68 261.416 305.786 261.735C305.271 261.918 304.761 262.139 304.24 262.287C298.294 263.975 292.346 265.648 286.4 267.335C282.488 268.445 278.569 269.508 274.672 270.712C270.983 271.853 267.327 273.219 263.638 274.36C260.832 275.228 257.989 275.845 255.177 276.668C250.749 277.964 246.324 279.284 241.915 280.706C239.837 281.377 237.782 282.142 235.631 282.093C235.367 282.087 235.103 282.191 234.837 282.217C232.82 282.412 230.802 282.246 228.779 282.089C223.487 282.136 218.47 281.722 213.334 280.963C210.957 280.611 208.597 280.115 206.252 279.349C202.919 278.26 199.738 276.539 196.509 275.023C194.644 274.148 192.799 273.134 191.051 271.823C187.178 268.917 183.54 265.475 179.997 261.823C179.526 261.337 179.029 260.798 178.716 260.12C177.641 257.79 176.268 255.945 174.606 254.515C174.434 254.492 174.298 254.398 174.248 254.137C174.247 254.138 174.256 254.166 174.256 254.166C172.777 253.781 171.312 253.963 169.832 254.247C167.048 254.781 164.349 255.93 161.572 256.501C160.262 256.77 158.965 257.119 157.684 257.608C157.134 257.818 156.923 257.656 156.675 256.897C155.22 252.439 153.782 247.971 152.338 243.506C151.586 241.113 150.827 238.724 150.085 236.323C149.939 235.85 149.731 235.391 149.766 234.833C148.86 232.758 148.317 230.439 147.638 228.216C143.887 215.95 140.173 203.66 136.449 191.376C136.408 191.241 136.399 191.086 136.375 190.94C136.175 190.341 135.987 189.732 135.769 189.145C135.626 188.759 135.497 188.266 135.261 188.065C134.557 187.467 134.362 186.503 134.188 185.491C134.009 185.033 133.803 184.591 133.655 184.113C131.863 178.303 130.077 172.489 128.296 166.672C128.171 166.263 128.095 165.823 127.996 165.398C126.939 162.63 126.117 159.712 125.318 156.779C124.181 153.173 123.036 149.573 121.91 145.96C120.783 142.344 119.677 138.716 118.562 135.092C118.433 134.674 118.297 134.26 118.184 133.833C118.074 133.416 118.208 133.007 118.485 132.952C119.484 132.755 120.483 132.522 121.488 132.421C122.602 132.308 123.722 132.339 124.839 132.281C125.953 132.223 127.071 132.223 128.069 131.29C128.312 131.063 128.679 131.068 128.992 131.045C129.736 130.993 130.482 131.008 131.226 130.96C133.03 130.844 134.833 130.709 136.637 130.581C137.007 130.538 137.382 130.532 137.747 130.444C138.52 130.257 138.808 129.551 138.563 128.448C138.16 126.637 137.721 124.84 137.335 123.021C137.174 122.265 136.892 121.646 136.539 121.07C136.266 120.625 135.929 120.439 135.541 120.699C134.698 121.263 133.789 121.28 132.891 121.399C130.72 121.685 128.55 121.987 126.377 122.244C124.417 122.476 122.469 122.943 120.49 122.829C118.141 122.693 115.814 122.957 113.522 123.742C113.007 123.918 112.503 123.971 111.952 123.832C110.471 123.457 109.239 124.214 108.262 125.845C107.916 126.422 107.583 127.025 107.193 127.538C105.284 130.052 104.555 135.761 106.075 138.93C106.284 139.364 106.408 139.881 106.569 140.362C113.068 159.877 119.568 179.393 126.066 198.909C130.459 212.103 134.85 225.299 139.248 238.49C139.499 239.24 139.748 240.025 140.116 240.654C140.468 241.255 140.703 241.907 140.919 242.602C142.196 246.704 143.472 250.807 144.756 254.905C145.343 256.78 145.955 258.639 146.538 260.517C146.65 260.879 146.862 261.27 146.649 261.69C146.758 261.611 146.87 261.606 146.944 261.793C147.203 262.447 147.431 263.126 147.687 263.782C147.945 264.439 148.196 265.105 148.497 265.719C148.846 266.432 149.295 266.874 149.972 266.725C150.381 266.636 150.811 266.737 151.231 266.745C151.984 266.758 151.984 266.756 151.962 268.06C152.083 268.256 152.203 268.453 152.323 268.65C153.02 268.912 153.694 268.785 154.364 268.36C154.716 268.994 154.529 269.696 154.519 270.329C154.491 271.998 155.025 273.073 156.077 273.679C157.457 274.475 158.856 275.187 160.334 275.518C161.437 275.766 162.505 276.197 163.581 276.623C166.292 277.695 169.027 278.642 171.756 279.614C174.333 280.532 176.925 281.832 179.544 282.473C181.227 282.885 182.812 283.321 184.426 284.074C187.814 285.656 191.291 286.725 194.757 287.87C195.525 288.124 196.337 288.165 197.043 288.755C197.202 288.772 197.367 288.756 197.519 288.809C200.771 289.959 204.019 291.128 207.273 292.27C210.577 293.429 213.875 294.637 217.196 295.69C221.402 297.023 225.639 298.201 229.731 300.127C232.425 301.394 235.215 301.4 237.95 302.304C238.506 302.488 239.119 302.431 239.696 302.344C240.647 302.2 241.6 302.009 242.534 301.72C247.678 300.128 252.802 298.89 257.918 297.11C263.961 295.006 270.037 293.087 276.098 291.088C278.378 290.336 280.644 289.485 282.94 288.851C288.789 287.236 294.604 285.416 300.382 283.343C301.464 282.955 302.561 282.656 303.65 282.302C304.48 282.032 305.314 281.783 306.131 281.446C306.487 281.299 306.727 281.089 306.881 280.795C315.522 278.325 339.181 270.791 339.523 270.645C340.483 270.235 341.426 269.761 342.418 269.475C345.005 268.729 347.571 267.823 350.093 266.702C351.676 265.998 352.322 265.597 352.264 263.243C352.259 263.092 352.183 259.796 351.96 258.398Z" fill="#646464"/>
<path d="M132.296 238.363C132.266 238.369 132.235 238.376 132.205 238.382C132.218 238.355 132.231 238.328 132.244 238.301C132.265 238.33 132.283 238.353 132.296 238.363Z" fill="#303030"/>
<path d="M105.913 219.03C105.905 219.014 105.897 218.997 105.89 218.981C105.894 218.98 105.898 218.978 105.903 218.977C105.906 218.993 105.907 219.007 105.913 219.03Z" fill="#303030"/>
<path d="M296.37 219.37C296.361 219.371 296.356 219.369 296.345 219.371C296.289 219.378 296.297 219.293 296.37 219.297C296.367 219.329 296.367 219.353 296.37 219.37Z" fill="#303030"/>
<path d="M356.993 247.975L357 247.981C356.998 247.98 356.994 247.976 356.993 247.975L356.993 247.975Z" fill="#303030"/>
<path d="M267.411 96.3178C267.195 95.9773 266.926 95.9616 266.661 95.9489C265.81 95.908 264.959 95.8495 264.107 95.8411C259.264 95.7934 254.421 95.7623 249.578 95.7132C248.994 95.7074 248.401 95.7054 247.828 95.5686C246.209 95.1824 245.133 93.8447 244.67 91.5782C244.431 90.4084 244.279 89.2131 244.284 87.9779C244.307 82.4932 244.308 77.0084 244.334 71.5239C244.337 70.8459 244.415 70.1615 244.504 69.4925C244.919 66.3698 246.544 64.5851 248.749 64.2025C249.538 64.0658 250.344 64.1011 251.141 64.1042C256.517 64.1246 261.892 64.158 267.268 64.1866C267.64 64.1885 268.013 64.2011 268.385 64.1871C269.346 64.1515 269.388 64.0969 269.497 62.827C269.517 62.6003 269.518 62.3704 269.538 62.144C269.868 58.4019 271.731 56.0115 274.399 55.9392C275.41 55.9117 276.422 55.956 277.433 55.9479C295.581 55.7999 313.73 55.6483 331.878 55.5006C333.155 55.4902 334.433 55.4997 335.71 55.5096C336.627 55.5168 337.491 55.8249 338.328 56.3801C339.579 57.2088 340.337 58.5927 340.688 60.4551C340.868 61.4111 340.957 62.3903 340.958 63.3912C340.964 68.5713 340.979 73.7512 341.009 78.931C341.017 80.3194 340.864 81.67 340.594 82.9842C340.111 85.3345 339.01 86.7153 337.289 86.9942C336.709 87.0881 336.123 87.15 335.539 87.1576C330.271 87.2271 325.002 87.2742 319.733 87.349C319.111 87.3577 318.466 87.2142 317.867 87.6007C317.76 88.4479 318.023 89.145 318.173 89.8585C318.815 92.9201 319.486 95.9691 320.14 99.0257C320.279 99.6782 320.399 100.34 320.513 101.003C320.556 101.253 320.446 101.475 320.297 101.542C320.163 101.603 319.952 101.612 319.858 101.501C319.533 101.115 319.232 100.683 318.943 100.24C316.585 96.6163 314.234 92.9846 311.878 89.3585C310.446 87.154 310.786 87.3981 308.728 87.4068C306.39 87.4166 306.548 87.0357 306.647 90.458C306.673 91.3798 306.667 92.2918 306.52 93.183C306.22 94.9941 305.323 96.0468 304.028 96.146C303.657 96.1746 303.283 96.1499 302.911 96.1479C294.235 96.0989 285.56 96.0423 276.885 96.0044C274.234 95.993 274.814 95.7696 273.184 98.2552C270.926 101.699 268.69 105.172 266.443 108.631C266.19 109.022 265.937 109.414 265.676 109.793C265.488 110.064 265.281 110.365 264.987 110.176C264.676 109.976 264.742 109.539 264.797 109.188C264.891 108.595 265.029 108.016 265.154 107.434C265.793 104.451 266.431 101.467 267.075 98.4856C267.231 97.7665 267.438 97.0664 267.411 96.3178ZM318.921 98.6762C318.951 98.6311 318.98 98.5857 319.01 98.5403C318.992 98.5442 318.966 98.5389 318.958 98.5537C318.931 98.6028 318.91 98.6594 318.887 98.7129C319.202 98.0501 319.008 97.4055 318.863 96.7502C318.22 93.8481 317.581 90.9448 316.948 88.0385C316.718 86.9852 316.943 86.4449 317.72 86.2978C318.245 86.1985 318.781 86.2109 319.313 86.2075C324.529 86.1758 329.745 86.1526 334.961 86.1223C335.546 86.119 336.132 86.1178 336.716 86.0615C338.397 85.8992 339.454 84.6534 339.939 82.3244C340.203 81.0532 340.212 79.7662 340.213 78.4773C340.216 73.5255 340.195 68.5738 340.178 63.6221C340.176 63.0131 340.175 62.3999 340.127 61.7962C339.906 58.9532 338.621 57.0622 336.626 56.7186C335.784 56.5734 334.928 56.5353 334.078 56.535C332.269 56.5348 330.46 56.609 328.65 56.6219C312.204 56.7385 295.758 56.845 279.311 56.965C277.608 56.9773 275.904 57.005 274.203 57.1188C272.189 57.2536 270.955 58.7385 270.43 61.4991C270.218 62.612 270.169 63.7485 270.17 64.8951C270.174 69.999 270.166 75.1031 270.186 80.207C270.189 81.0372 270.254 81.8858 270.389 82.6922C270.754 84.8819 271.987 86.3631 273.561 86.5618C274.037 86.6217 274.519 86.5979 274.998 86.596C278.936 86.5806 282.875 86.5755 286.814 86.5402C294.212 86.4738 301.61 86.4149 309.007 86.2863C310.267 86.2644 311.245 86.7204 312.105 88.1021C314.335 91.6839 316.636 95.1749 318.921 98.6762ZM266.089 106.882C266.18 106.948 266.271 107.014 266.362 107.08C266.658 106.659 266.965 106.252 267.249 105.815C269.098 102.973 270.938 100.117 272.791 97.2783C274.589 94.5219 274.468 94.861 276.645 94.8831C285.106 94.9692 293.567 95.0726 302.027 95.1667C302.613 95.1732 303.2 95.2063 303.783 95.1426C305.046 95.0047 305.765 94.1149 305.883 92.3108C305.972 90.9572 305.877 89.5766 305.841 88.2092C305.83 87.7876 305.623 87.5147 305.329 87.4709C305.013 87.4239 304.692 87.4239 304.373 87.4261C294.529 87.5009 284.684 87.4412 274.841 87.728C274.261 87.7448 273.67 87.6655 273.098 87.518C270.793 86.9247 269.582 84.8945 269.521 81.5274C269.49 79.7766 269.509 78.0241 269.501 76.2721C269.499 75.7393 269.496 75.2054 269.474 74.6738C269.451 74.157 269.265 73.8125 268.886 73.78C268.514 73.7481 268.141 73.7469 267.769 73.7467C266.013 73.745 264.256 73.7483 262.5 73.7495C259.467 73.7514 256.434 73.7567 253.401 73.7503C252.977 73.7495 252.55 73.7198 252.13 73.6455C251.906 73.606 251.759 73.3187 251.738 73.0098C251.716 72.6825 251.869 72.4555 252.089 72.3439C252.606 72.0822 253.143 72.1733 253.672 72.1707C258.248 72.1494 262.824 72.1396 267.401 72.1225C267.879 72.1208 268.359 72.1155 268.836 72.0726C269.195 72.0404 269.442 71.7481 269.446 71.2142C269.456 69.5402 269.452 67.8653 269.434 66.1913C269.428 65.6577 269.19 65.3757 268.822 65.3334C268.61 65.309 268.398 65.2928 268.185 65.29C262.225 65.2151 256.266 65.1417 250.306 65.0705C249.558 65.0615 248.818 65.154 248.091 65.4183C246.488 66.0007 245.405 67.6927 245.189 70.0334C245.112 70.8611 245.102 71.7047 245.095 72.5412C245.061 77.1872 245.028 81.8331 245.017 86.4791C245.015 87.5424 245.101 88.6066 245.152 89.6696C245.194 90.5191 245.385 91.3128 245.652 92.0622C246.111 93.3554 246.807 94.1951 247.842 94.4599C248.634 94.6625 249.425 94.7293 250.224 94.7332C255.492 94.7601 260.76 94.7892 266.028 94.8198C266.507 94.8226 266.988 94.8016 267.464 94.861C268.326 94.9689 268.551 95.4907 268.291 96.6827C267.687 99.4422 267.08 102.2 266.478 104.96C266.339 105.597 266.218 106.241 266.089 106.882Z" fill="#303030"/>
<path d="M32.4665 41.4079C40.3964 41.6982 48.3261 41.9897 56.256 42.2778C57.2141 42.3125 58.173 42.3053 59.1303 42.3594C62.4963 42.5494 64.07 45.0754 64.641 49.4105C64.7681 50.3752 64.7849 51.3842 64.77 52.3701C64.6641 59.3787 64.5292 66.3864 64.423 73.395C64.4042 74.631 64.2703 75.8258 63.9911 76.9819C63.0477 80.8888 61.2529 82.6244 58.5252 82.9002C57.7837 82.975 57.0348 82.8803 56.2901 82.9111C55.9476 82.9254 55.4442 82.6278 55.3153 83.2587C55.2031 83.8074 55.694 84.0849 55.9421 84.4459C56.2777 84.9341 56.6449 85.3778 56.9993 85.8394C62.4726 92.9687 67.9472 100.096 73.4168 107.231C73.8074 107.741 74.1675 108.3 74.5253 108.858C74.5775 108.939 74.5754 109.176 74.5302 109.278C74.4839 109.383 74.3553 109.458 74.2594 109.466C73.7994 109.503 73.4706 109.056 73.108 108.762C69.4969 105.834 65.8916 102.89 62.284 99.9521C55.9014 94.7546 49.5297 89.5288 43.1299 84.3753C40.4309 82.2018 41.2525 82.3257 37.5556 82.1853C29.9452 81.8966 22.3333 81.6987 14.7222 81.4515C11.795 81.3565 8.86865 81.2139 5.94129 81.1236C5.1326 81.0987 4.34466 80.9061 3.58648 80.5648C1.82655 79.7727 0.674006 78.0984 0.272204 75.4836C0.101066 74.3701 -0.0185717 73.2406 0.00238 72.0851C0.137097 64.6199 0.259479 57.1545 0.389888 49.6891C0.401833 49.0039 0.45235 48.3203 0.469385 47.6351C0.558087 44.0659 2.61957 41.4463 4.53968 40.8406C5.38323 40.5746 6.22855 40.5211 7.07895 40.55C10.1659 40.6551 13.252 40.7997 16.339 40.9059C21.7146 41.0906 27.0903 41.2579 32.4659 41.4325C32.4663 41.4244 32.4663 41.4163 32.4665 41.4079ZM70.248 105.171C70.2997 105.039 70.3514 104.907 70.4029 104.775C69.4655 103.545 68.5309 102.31 67.5907 101.085C63.341 95.5477 59.0882 90.0156 54.8419 84.4731C54.4518 83.9641 53.9958 83.5361 53.7438 82.8371C53.6277 82.5154 53.7052 82.2584 53.9131 82.0782C54.3474 81.7021 54.8331 81.7461 55.3106 81.7483C56.4804 81.7539 57.6527 81.8428 58.8195 81.7649C60.9664 81.6214 62.3688 79.9305 63.1585 77.1537C63.5838 75.6585 63.7234 74.071 63.7422 72.4578C63.7963 67.8127 63.8581 63.1676 63.9241 58.5225C63.9543 56.3911 64.0326 54.26 64.0267 52.1291C64.0238 51.0705 63.9421 49.9941 63.788 48.9585C63.3189 45.8077 61.846 43.9258 59.604 43.5889C58.5468 43.43 57.4824 43.3338 56.4197 43.2954C47.5368 42.9754 38.6537 42.6758 29.7708 42.3689C24.8771 42.1999 19.9836 42.0118 15.0897 41.8652C12.0576 41.7744 9.02393 41.6629 5.99201 41.7117C3.04781 41.759 1.23676 44.3705 1.15472 48.5944C1.00238 56.4357 0.897232 64.2786 0.778963 72.121C0.768585 72.8048 0.772694 73.4959 0.827521 74.1742C1.07052 77.1752 2.36992 79.2184 4.43356 79.7994C5.05643 79.9748 5.70025 80.046 6.33624 80.0687C10.0598 80.2007 13.7841 80.2887 17.5076 80.4204C24.3694 80.6629 31.2301 80.9824 38.0929 81.1404C39.8577 81.1811 41.4543 81.6858 42.948 82.9857C43.4021 83.3809 43.8769 83.7273 44.3392 84.1037C52.4285 90.6921 60.517 97.282 68.6067 103.87C69.1501 104.313 69.7007 104.738 70.248 105.171Z" fill="#303030"/>
<path d="M323.008 138.698C329.874 138.482 336.74 138.269 343.606 138.046C344.99 138.001 346.373 137.923 347.756 137.842C348.664 137.788 349.565 137.843 350.463 138.033C353.001 138.571 354.782 141.247 354.991 144.931C355.09 146.677 355.115 148.432 355.146 150.183C355.255 156.277 355.345 162.372 355.46 168.465C355.486 169.845 355.429 171.207 355.234 172.555C354.842 175.26 353.715 177.005 351.881 177.856C351.006 178.262 350.109 178.343 349.202 178.375C344.785 178.528 340.368 178.674 335.951 178.837C329.724 179.067 323.499 179.359 317.272 179.513C315.621 179.554 314.171 180.113 312.743 181.295C306.754 186.248 300.728 191.111 294.715 196.006C290.644 199.32 286.578 202.643 282.498 205.931C282.031 206.307 281.594 207.091 280.934 206.524C280.91 205.589 281.485 205.276 281.855 204.792C287.554 197.338 293.265 189.905 298.973 182.466C299.327 182.004 299.684 181.545 300.018 181.055C300.114 180.915 300.18 180.669 300.177 180.474C300.174 180.181 299.967 180.164 299.818 180.162C299.02 180.149 298.221 180.159 297.422 180.158C296.729 180.157 296.051 180.077 295.37 179.816C293.772 179.203 292.639 177.811 291.912 175.734C291.408 174.294 291.089 172.765 291.062 171.132C290.939 163.819 290.801 156.507 290.695 149.194C290.664 147.033 290.927 144.947 291.746 143.065C292.49 141.355 293.517 140.236 294.925 139.938C295.713 139.771 296.508 139.604 297.302 139.577C305.871 139.281 314.44 139.013 323.009 138.738C323.009 138.725 323.009 138.712 323.008 138.698ZM285.285 202.078C285.934 202.197 286.374 201.545 286.866 201.145C292.56 196.532 298.244 191.894 303.931 187.262C306.751 184.966 309.579 182.689 312.388 180.366C313.992 179.039 315.671 178.372 317.55 178.382C320.795 178.398 324.04 178.182 327.286 178.078C334.521 177.844 341.757 177.613 348.994 177.401C349.744 177.379 350.48 177.285 351.206 177.029C353.212 176.32 354.422 174.384 354.642 171.44C354.716 170.46 354.7 169.461 354.685 168.473C354.571 161.01 354.448 153.547 354.326 146.084C354.32 145.704 354.315 145.321 354.282 144.944C354.034 142.196 353.004 140.345 351.185 139.368C350.52 139.011 349.842 138.923 349.147 138.946C345.689 139.056 342.231 139.166 338.773 139.282C334.517 139.425 330.261 139.581 326.005 139.719C319.088 139.943 312.171 140.143 305.255 140.379C302.276 140.48 299.296 140.581 296.32 140.8C293.588 141.001 292.058 143.086 291.586 146.949C291.402 148.463 291.406 149.984 291.429 151.506C291.522 157.674 291.629 163.842 291.734 170.01C291.76 171.543 291.916 173.051 292.32 174.477C293.033 176.992 294.296 178.565 296.2 179.031C297.048 179.239 297.896 179.171 298.747 179.157C299.544 179.144 300.341 179.158 301.138 179.19C301.407 179.201 301.709 179.326 301.75 179.756C301.774 180.005 301.651 180.359 301.515 180.551C300.909 181.405 300.277 182.224 299.648 183.044C295.201 188.839 290.75 194.628 286.31 200.434C285.932 200.928 285.418 201.287 285.318 202.126C285.272 202.137 285.22 202.133 285.181 202.164C285.161 202.18 285.155 202.299 285.159 202.3C285.254 202.344 285.297 202.266 285.285 202.078Z" fill="#303030"/>
<path d="M185.746 43.0168C185.445 42.4552 184.981 42.5701 184.579 42.4866C183.836 42.3316 183.114 42.0841 182.444 41.5998C180.321 40.0654 179.129 37.6069 178.982 34.1966C178.914 32.6016 178.951 30.9977 178.934 29.3979C178.873 23.7604 178.818 18.1229 178.74 12.4859C178.723 11.2584 178.806 10.0574 178.94 8.85004C179.485 3.92859 181.96 0.617538 185.808 0.430882C187.031 0.371466 188.256 0.420232 189.481 0.398372C196.613 0.270291 203.745 0.134086 210.878 0.00516465C211.942 -0.0141736 212.998 0.010208 214.059 0.264688C216.426 0.832785 217.828 2.86975 218.525 6.03702C218.767 7.1337 218.825 8.27157 218.83 9.42346C218.856 14.8328 218.894 20.2425 218.937 25.6516C218.953 27.556 219.011 29.4599 219.02 31.3643C219.029 33.3558 218.907 35.3194 218.257 37.1397C217.351 39.6755 215.916 41.2335 213.992 41.8792C213.161 42.1581 212.319 42.287 211.46 42.2929C207.202 42.3215 202.943 42.4103 198.685 42.4106C197.481 42.4106 196.39 42.7865 195.311 43.5387C191.054 46.5042 186.779 49.4122 182.509 52.3379C182.078 52.6336 181.642 52.9166 181.2 53.1815C181.053 53.27 180.882 53.258 180.766 53.0523C180.661 52.8656 180.62 52.6406 180.723 52.434C180.969 51.9382 181.219 51.4458 181.484 50.9702C182.712 48.7659 183.948 46.5714 185.174 44.3646C185.401 43.9554 185.709 43.6074 185.746 43.0168ZM182.818 50.3057C182.894 50.4259 182.97 50.5462 183.046 50.6664C183.523 50.3749 184.007 50.1075 184.474 49.7878C187.976 47.3895 191.472 44.9753 194.975 42.5793C195.886 41.956 196.796 41.4241 197.859 41.4252C200.786 41.428 203.713 41.31 206.639 41.2405C208.661 41.1926 210.686 41.2105 212.705 41.0827C215.503 40.9056 217.475 38.4129 218.066 34.4943C218.282 33.0627 218.265 31.6148 218.254 30.172C218.204 23.5452 218.132 16.9186 218.062 10.292C218.052 9.45485 218.03 8.61462 217.97 7.78223C217.692 3.9611 215.785 1.38238 213.117 1.19797C212.852 1.17947 212.585 1.18339 212.319 1.1862C205.826 1.2557 199.333 1.31316 192.84 1.40368C190.286 1.43928 187.73 1.47459 185.18 1.64808C182.609 1.82296 180.664 4.09731 179.882 7.58408C179.585 8.90945 179.516 10.2662 179.524 11.6448C179.568 18.5007 179.602 25.3565 179.649 32.2123C179.655 33.0481 179.731 33.8827 179.765 34.7188C179.844 36.6697 180.499 38.1926 181.505 39.4295C182.5 40.6542 183.669 41.3411 184.974 41.5404C185.396 41.6049 185.826 41.6032 186.241 41.7145C186.739 41.8479 186.95 42.4709 186.699 43.0903C186.433 43.7447 186.125 44.3691 185.797 44.9647C184.814 46.7561 183.812 48.5271 182.818 50.3057Z" fill="#303030"/>
<path d="M163.317 156.998C162.83 157.03 162.588 156.708 162.485 156.108C162.143 154.112 161.791 152.12 161.451 150.123C160.921 147.018 160.398 143.91 159.874 140.802C159.799 140.359 159.711 139.917 159.667 139.466C159.605 138.843 159.815 138.47 160.285 138.399C161.395 138.23 162.508 138.096 163.62 137.941C166.638 137.521 169.655 137.089 172.674 136.676C175.375 136.306 178.077 135.963 180.778 135.591C183.532 135.211 186.284 134.805 189.037 134.422C191.684 134.053 194.333 133.702 196.981 133.337C199.841 132.942 202.699 132.538 205.559 132.141C208.153 131.781 210.749 131.43 213.344 131.069C216.309 130.657 219.273 130.239 222.238 129.824C222.45 129.794 222.661 129.755 222.874 129.734C224.031 129.62 224.079 129.636 224.443 131.287C225.437 135.787 226.41 140.296 227.39 144.802C227.453 145.093 227.525 145.383 227.559 145.681C227.609 146.119 227.462 146.427 227.16 146.511C226.639 146.658 226.115 146.8 225.587 146.885C220.459 147.709 215.329 148.506 210.203 149.342C205.076 150.178 199.954 151.064 194.828 151.901C190.599 152.591 186.367 153.224 182.139 153.914C177.012 154.75 171.889 155.623 166.763 156.473C165.601 156.665 164.437 156.828 163.317 156.998ZM226.591 145.525C226.591 145.203 226.629 144.963 226.585 144.76C225.665 140.469 224.741 136.179 223.801 131.896C223.601 130.983 223.45 130.844 222.737 130.917C221.358 131.06 219.982 131.252 218.605 131.436C215.958 131.79 213.311 132.149 210.665 132.514C207.754 132.916 204.843 133.33 201.933 133.732C199.339 134.091 196.745 134.437 194.151 134.796C191.24 135.2 188.33 135.616 185.42 136.019C182.826 136.377 180.232 136.722 177.638 137.079C174.674 137.487 171.711 137.907 168.747 138.314C166.365 138.642 163.982 138.955 161.6 139.284C161.391 139.313 161.18 139.382 160.978 139.473C160.698 139.6 160.539 139.883 160.576 140.323C160.602 140.624 160.64 140.925 160.69 141.22C161.419 145.508 162.15 149.795 162.883 154.082C162.946 154.451 163.032 154.812 163.108 155.177C163.195 155.598 163.41 155.79 163.7 155.783C164.072 155.774 164.445 155.753 164.814 155.695C166.928 155.363 169.042 155.026 171.155 154.676C175.327 153.985 179.498 153.271 183.671 152.592C187.844 151.912 192.021 151.279 196.195 150.597C201.319 149.759 206.439 148.877 211.563 148.041C215.789 147.352 220.019 146.71 224.246 146.029C225.032 145.903 225.812 145.694 226.591 145.525Z" fill="#303030"/>
<path d="M249.49 202.297C249.965 202.291 250.223 202.49 250.35 202.987C251.06 205.778 251.778 208.564 252.477 211.36C252.63 211.973 252.475 212.37 251.99 212.54C250.854 212.937 249.71 213.291 248.566 213.634C234.615 217.82 220.664 222.001 206.713 226.183C205.099 226.667 203.487 227.167 201.871 227.629C201.099 227.849 200.975 227.771 200.618 226.742C199.598 223.81 198.594 220.867 197.601 217.916C197.21 216.754 197.331 216.41 198.179 216.175C200.477 215.541 202.779 214.931 205.078 214.305C212.185 212.371 219.29 210.432 226.397 208.497C233.765 206.492 241.133 204.488 248.502 202.489C248.867 202.39 249.239 202.345 249.49 202.297ZM249.266 203.436C248.794 203.542 248.32 203.632 247.85 203.759C243.308 204.988 238.766 206.224 234.225 207.459C223.628 210.34 213.03 213.223 202.434 216.106C201.39 216.39 200.346 216.678 199.304 216.971C198.331 217.243 198.266 217.418 198.726 218.785C199.465 220.978 200.215 223.164 200.977 225.341C201.444 226.678 201.465 226.679 202.441 226.388C206.446 225.192 210.45 223.994 214.454 222.791C224.438 219.789 234.421 216.784 244.405 213.78C246.537 213.139 248.671 212.512 250.8 211.853C251.6 211.605 251.675 211.392 251.414 210.315C251.084 208.949 250.74 207.59 250.394 206.232C250.193 205.446 249.984 204.665 249.765 203.89C249.68 203.586 249.503 203.429 249.266 203.436Z" fill="#303030"/>
<path d="M152.302 113.643C152.085 113.621 151.712 113.618 151.35 113.525C151.238 113.496 151.097 113.231 151.079 113.052C151.062 112.868 151.144 112.543 151.245 112.48C151.529 112.301 151.84 112.167 152.148 112.117C153.522 111.896 154.897 111.694 156.274 111.514C159.133 111.142 161.995 110.8 164.854 110.422C167.714 110.044 170.57 109.626 173.429 109.245C176.235 108.871 179.044 108.53 181.85 108.159C184.762 107.774 187.673 107.366 190.585 106.978C193.338 106.611 196.093 106.263 198.846 105.898C201.864 105.498 204.881 105.083 207.899 104.683C210.599 104.325 213.3 103.982 216.001 103.623C219.072 103.216 222.141 102.786 225.213 102.398C226.111 102.284 227.015 102.262 227.917 102.242C228.143 102.237 228.305 102.52 228.269 102.863C228.249 103.063 228.151 103.347 228.039 103.406C227.745 103.562 227.427 103.654 227.113 103.702C225.686 103.924 224.258 104.138 222.828 104.324C218.803 104.847 214.777 105.341 210.752 105.873C206.781 106.398 202.813 106.964 198.842 107.496C196.036 107.871 193.227 108.21 190.421 108.581C187.509 108.966 184.598 109.374 181.686 109.764C178.986 110.125 176.285 110.471 173.584 110.828C170.513 111.235 167.443 111.653 164.372 112.058C161.618 112.421 158.864 112.773 156.11 113.133C154.892 113.292 153.675 113.459 152.302 113.643Z" fill="#303030"/>
<path d="M241.899 168.819C241.991 168.81 242.044 168.798 242.097 168.799C242.382 168.805 242.622 168.932 242.721 169.352C242.81 169.735 242.567 170.18 242.183 170.271C240.924 170.572 239.664 170.862 238.401 171.127C231.14 172.652 223.879 174.176 216.616 175.686C210.406 176.977 204.192 178.233 197.983 179.533C191.09 180.976 184.2 182.453 177.308 183.91C174.362 184.533 171.415 185.149 168.467 185.752C168.048 185.838 167.62 185.858 167.196 185.861C166.984 185.862 166.774 185.737 166.731 185.371C166.678 184.924 166.838 184.641 167.12 184.521C167.425 184.391 167.737 184.276 168.051 184.21C171.893 183.406 175.736 182.617 179.577 181.815C183.682 180.958 187.784 180.085 191.889 179.229C195.889 178.395 199.89 177.582 203.89 176.746C207.889 175.91 211.886 175.053 215.885 174.214C219.832 173.387 223.779 172.572 227.726 171.748C231.778 170.902 235.829 170.05 239.882 169.204C240.566 169.062 241.252 168.943 241.899 168.819Z" fill="#303030"/>
<path d="M214.078 83.0242C214.716 82.9698 215.353 82.9 215.991 82.8681C216.253 82.8549 216.522 82.8874 216.777 82.969C216.917 83.0138 217.053 83.1688 217.07 83.4429C217.091 83.7868 216.99 84.0555 216.789 84.1777C216.599 84.2935 216.379 84.3271 216.169 84.3526C215.161 84.4751 214.153 84.6009 213.144 84.6923C207.407 85.2114 201.668 85.7018 195.931 86.2391C190.354 86.7612 184.779 87.3425 179.202 87.8705C175.165 88.2528 171.126 88.5754 167.089 88.9523C163.105 89.3242 159.123 89.7446 155.14 90.1188C151.05 90.5028 146.958 90.8607 142.867 91.2163C142.448 91.2528 142.009 91.3906 141.613 91.0994C141.499 91.0156 141.394 90.7416 141.392 90.5527C141.391 90.3562 141.487 90.0995 141.599 89.9761C141.714 89.8486 141.897 89.822 142.054 89.7993C142.795 89.6917 143.537 89.5776 144.28 89.5073C150.654 88.9047 157.028 88.3035 163.402 87.7175C167.492 87.3414 171.585 87.0084 175.675 86.6259C179.658 86.2534 183.64 85.8344 187.623 85.4518C189.907 85.2327 192.193 85.0567 194.477 84.8414C198.62 84.4516 202.762 84.0413 206.904 83.6506C209.295 83.4252 211.686 83.222 214.077 83.009C214.077 83.0141 214.078 83.0191 214.078 83.0242Z" fill="#303030"/>
<path d="M237.248 157.488C237.366 157.497 237.634 157.484 237.893 157.55C238.037 157.587 238.176 157.732 238.199 158.003C238.227 158.342 238.139 158.668 237.94 158.754C237.484 158.951 237.012 159.091 236.539 159.185C234.695 159.552 232.848 159.887 231.004 160.246C227.473 160.935 223.943 161.635 220.413 162.326C216.935 163.006 213.456 163.68 209.977 164.356C206.499 165.032 203.021 165.706 199.542 166.384C195.959 167.083 192.376 167.785 188.793 168.487C185.315 169.168 181.837 169.851 178.359 170.534C174.934 171.207 171.51 171.891 168.084 172.547C167.561 172.647 167.026 172.654 166.497 172.653C166.273 172.652 166.099 172.418 166.1 172.071C166.101 171.752 166.223 171.478 166.445 171.385C166.698 171.278 166.962 171.213 167.224 171.16C169.278 170.744 171.332 170.33 173.387 169.924C176.969 169.216 180.552 168.511 184.135 167.811C187.561 167.141 190.987 166.48 194.412 165.812C197.996 165.112 201.579 164.407 205.162 163.708C208.64 163.029 212.119 162.358 215.597 161.679C219.128 160.99 222.659 160.295 226.189 159.601C229.561 158.939 232.933 158.275 236.306 157.616C236.57 157.565 236.836 157.543 237.248 157.488Z" fill="#303030"/>
<path d="M189.264 250.822C188.566 250.898 188.289 250.551 188.028 250.154C187.335 249.101 186.64 248.05 185.948 246.996C184.928 245.443 183.908 243.889 182.889 242.333C182.708 242.055 182.522 241.78 182.36 241.479C182.123 241.04 182.211 240.541 182.561 240.384C182.967 240.202 183.379 240.044 183.795 239.921C196.546 236.152 209.297 232.388 222.049 228.625C222.257 228.563 222.467 228.515 222.676 228.456C223.25 228.292 223.683 228.493 224.045 229.234C225.324 231.855 226.651 234.429 227.942 237.038C228.436 238.038 228.316 238.437 227.437 238.748C226.406 239.112 225.365 239.421 224.327 239.749C212.963 243.344 201.6 246.938 190.236 250.531C189.822 250.662 189.405 250.78 189.264 250.822ZM189.218 249.671C189.585 249.579 189.954 249.505 190.317 249.39C201.937 245.707 213.556 242.021 225.175 238.333C225.641 238.185 226.11 238.044 226.571 237.866C227.04 237.684 227.128 237.309 226.822 236.687C225.841 234.697 224.812 232.754 223.868 230.728C223.415 229.757 222.895 229.424 222.133 229.747C221.93 229.833 221.715 229.859 221.507 229.92C219.167 230.618 216.828 231.325 214.486 232.015C204.963 234.819 195.438 237.618 185.915 240.423C185.239 240.622 184.566 240.848 183.898 241.091C183.563 241.213 183.484 241.565 183.709 241.921C184.279 242.824 184.864 243.709 185.446 244.597C186.428 246.097 187.412 247.594 188.396 249.091C188.619 249.431 188.859 249.726 189.218 249.671Z" fill="#303030"/>
<path d="M269.823 236.648C269.844 236.998 269.713 237.272 269.514 237.371C269.063 237.594 268.6 237.771 268.135 237.923C248.501 244.32 228.867 250.713 209.233 257.107C208.353 257.393 207.474 257.695 206.59 257.959C206.125 258.098 205.651 258.203 205.177 258.26C204.96 258.287 204.763 258.076 204.719 257.743C204.678 257.435 204.728 257.098 204.954 256.977C205.35 256.764 205.756 256.573 206.168 256.439C216.581 253.05 226.996 249.671 237.409 246.285C247.46 243.017 257.51 239.741 267.561 236.473C268.13 236.288 268.703 236.12 269.279 235.981C269.532 235.919 269.816 236.307 269.823 236.648Z" fill="#303030"/>
<path d="M173.972 208.143C173.641 208.135 173.418 207.916 173.361 207.511C173.301 207.087 173.488 206.735 173.76 206.65C174.486 206.423 175.222 206.257 175.957 206.087C181.1 204.895 186.243 203.701 191.387 202.521C197.004 201.232 202.624 199.969 208.241 198.673C213.857 197.378 219.469 196.052 225.084 194.748C229.02 193.834 232.957 192.933 236.894 192.029C237.607 191.866 238.066 192.122 238.051 192.665C238.037 193.146 237.747 193.444 237.084 193.597C233.096 194.522 229.106 195.436 225.117 196.358C220.761 197.364 216.406 198.376 212.049 199.38C207.798 200.36 203.545 201.333 199.293 202.311C194.989 203.301 190.685 204.292 186.381 205.286C182.34 206.22 178.299 207.159 174.258 208.095C174.154 208.12 174.047 208.13 173.972 208.143Z" fill="#303030"/>
<path d="M147.844 101.732C147.262 101.799 146.679 101.897 146.096 101.915C145.905 101.921 145.673 101.78 145.527 101.597C145.368 101.395 145.345 101.077 145.518 100.791C145.712 100.471 145.967 100.423 146.235 100.39C148.565 100.104 150.895 99.8094 153.225 99.5283C156.774 99.1003 160.323 98.6757 163.872 98.2604C166.998 97.8946 170.125 97.5527 173.251 97.183C176.535 96.7949 179.818 96.3848 183.102 95.9877C184.691 95.7954 186.281 95.6113 187.87 95.4227C191.472 94.9956 195.074 94.5651 198.677 94.1449C199.045 94.1021 199.419 94.0934 199.788 94.1225C200.016 94.1407 200.184 94.3952 200.219 94.703C200.267 95.1343 200.077 95.437 199.807 95.5541C199.556 95.6629 199.285 95.6898 199.021 95.7203C194.729 96.215 190.436 96.6889 186.146 97.1993C181.696 97.7284 177.249 98.3044 172.799 98.836C169.621 99.2158 166.44 99.5434 163.261 99.9181C160.082 100.293 156.906 100.704 153.728 101.085C151.768 101.321 149.806 101.53 147.846 101.752C147.845 101.745 147.845 101.739 147.844 101.732Z" fill="#303030"/>
<path d="M240.085 257.172C239.722 257.138 239.55 256.992 239.479 256.664C239.409 256.335 239.499 256.075 239.678 255.872C239.939 255.576 240.258 255.523 240.57 255.425C245.866 253.759 251.16 252.086 256.455 250.415C263.514 248.187 270.574 245.96 277.633 243.734C278.049 243.603 278.465 243.477 278.883 243.364C279.47 243.206 279.893 243.421 279.945 243.889C279.991 244.301 279.733 244.662 279.201 244.853C278.428 245.13 277.65 245.385 276.872 245.63C264.88 249.405 252.887 253.178 240.895 256.949C240.585 257.046 240.271 257.121 240.085 257.172Z" fill="#303030"/>
<path d="M202.582 189.161C202.773 189.161 202.826 189.155 202.879 189.162C203.167 189.2 203.406 189.374 203.427 189.817C203.447 190.256 203.222 190.492 202.953 190.609C202.75 190.697 202.542 190.765 202.332 190.806C199.807 191.3 197.281 191.779 194.756 192.278C191.337 192.954 187.921 193.652 184.502 194.326C180.82 195.053 177.136 195.762 173.453 196.479C173.243 196.519 173.033 196.582 172.822 196.586C172.541 196.593 172.298 196.442 172.192 196.036C172.098 195.676 172.366 195.198 172.743 195.114C174.107 194.81 175.473 194.516 176.84 194.247C183.363 192.966 189.887 191.699 196.41 190.417C198.251 190.055 200.089 189.659 201.928 189.281C202.191 189.227 202.455 189.184 202.582 189.161Z" fill="#303030"/>
<path d="M203.765 121.848C203.24 121.848 202.868 121.876 202.5 121.834C202.361 121.818 202.203 121.712 202.162 121.429C202.112 121.088 202.18 120.786 202.377 120.661C202.612 120.51 202.883 120.447 203.142 120.407C204.727 120.167 206.311 119.924 207.898 119.721C212.025 119.194 216.154 118.701 220.28 118.17C223.137 117.802 225.99 117.387 228.846 117.009C229.477 116.926 230.115 116.732 230.743 116.984C230.867 117.034 231.01 117.296 231.031 117.486C231.051 117.667 230.959 117.946 230.852 118.069C230.552 118.416 230.17 118.463 229.799 118.511C227.154 118.849 224.508 119.18 221.863 119.522C218.742 119.925 215.622 120.342 212.501 120.743C209.538 121.124 206.574 121.493 203.765 121.848Z" fill="#303030"/>
<path d="M68.6379 227.069C68.1652 227.152 67.6935 227.268 67.219 227.304C67.0244 227.318 66.8135 227.191 66.6279 227.072C66.3921 226.92 66.3888 226.351 66.5766 226.102C66.7883 225.82 67.0385 225.765 67.3032 225.728C70.0428 225.347 72.7822 224.965 75.5216 224.583C75.5743 224.576 75.6263 224.558 75.679 224.555C76.0172 224.535 76.3205 224.64 76.4538 225.143C76.5654 225.563 76.2431 226.013 75.7505 226.086C73.3814 226.437 71.0109 226.773 68.641 227.113C68.64 227.099 68.6391 227.084 68.6379 227.069Z" fill="#303030"/>
<path d="M305.607 64.7892C314.227 64.8808 322.847 64.9705 331.467 65.0709C331.884 65.0756 332.328 64.9271 332.711 65.2774C332.827 65.3839 332.943 65.619 332.952 65.806C332.961 65.9907 332.866 66.241 332.762 66.3704C332.504 66.6891 332.169 66.6686 331.85 66.6636C330.999 66.6496 330.148 66.6103 329.297 66.6028C317.164 66.4952 305.032 66.3979 292.9 66.2827C288.536 66.2412 284.173 66.16 279.81 66.0927C279.438 66.0871 279.065 66.0762 278.695 66.021C278.423 65.9803 278.185 65.8113 278.141 65.355C278.101 64.9529 278.367 64.6177 278.788 64.5835C279.159 64.5532 279.533 64.5639 279.905 64.5664C288.472 64.6236 297.039 64.6821 305.607 64.7407C305.607 64.7567 305.607 64.7729 305.607 64.7892Z" fill="#303030"/>
<path d="M306.725 72.8551C307.151 72.8554 307.578 72.854 308.003 72.891C308.288 72.9156 308.502 73.1432 308.576 73.553C308.642 73.9181 308.33 74.4117 307.98 74.4464C307.503 74.4941 307.022 74.4907 306.543 74.4857C300.047 74.4145 282.901 74.2379 280.824 74.2214C280.399 74.218 279.973 74.2063 279.547 74.1894C279.251 74.1777 279.037 73.975 278.957 73.5616C278.881 73.1687 279.155 72.7881 279.569 72.7525C280.047 72.7116 280.527 72.7172 281.006 72.7169C285.266 72.7144 302.412 72.8529 306.725 72.8551Z" fill="#303030"/>
<path d="M257.765 81.4639C256.122 81.4639 254.478 81.4693 252.834 81.46C252.465 81.4578 252.09 81.4496 251.728 81.3574C251.528 81.3067 251.37 81.0553 251.356 80.7081C251.342 80.3572 251.477 80.1055 251.682 80.0133C251.928 79.9026 252.197 79.8468 252.456 79.8477C255.956 79.8589 259.455 79.8835 262.955 79.9068C263.326 79.9093 263.713 79.8816 264.02 80.2358C264.126 80.3586 264.214 80.6288 264.201 80.816C264.188 81.0029 264.058 81.2784 263.943 81.3241C263.644 81.4427 263.326 81.5012 263.015 81.504C261.265 81.5194 259.515 81.5116 257.766 81.5116C257.765 81.4956 257.765 81.4796 257.765 81.4639Z" fill="#303030"/>
<path d="M32.7697 51.4754C40.0572 51.7531 47.3446 52.0317 54.6321 52.308C55.2704 52.3321 55.9091 52.3406 56.5475 52.3619C56.8132 52.3705 57.0805 52.3725 57.3437 52.4168C57.6248 52.4641 57.8385 52.673 57.8976 53.099C57.9507 53.4807 57.6544 53.9025 57.2777 53.9383C56.9608 53.9686 56.6407 53.9397 56.3221 53.926C55.0454 53.8708 53.7691 53.7968 52.4925 53.7562C45.6295 53.5378 38.766 53.3425 31.9033 53.1099C24.3491 52.854 16.7953 52.5684 9.24159 52.2865C8.82197 52.2708 8.39569 52.2198 7.9886 52.0855C7.80767 52.0258 7.64006 51.7453 7.6663 51.3806C7.69097 51.039 7.85682 50.7571 8.03951 50.7161C8.45561 50.6228 8.88619 50.6256 9.30993 50.641C12.5547 50.7593 15.7993 50.8947 19.0442 51.016C23.6189 51.1873 28.1938 51.3509 32.7687 51.518C32.7693 51.5034 32.7695 51.4894 32.7697 51.4754Z" fill="#303030"/>
<path d="M23.4644 62.729C19.8613 62.6125 14.5968 62.4429 9.33244 62.2697C8.90969 62.2557 8.46774 62.3277 8.09316 61.974C7.98037 61.8675 7.89813 61.6245 7.86857 61.4239C7.81844 61.0819 7.96628 60.7927 8.18245 60.7476C8.59894 60.6607 9.0258 60.6293 9.44699 60.6442C12.2118 60.7417 14.9763 60.8712 17.7411 60.9648C24.9199 61.2078 32.0989 61.4331 39.2775 61.6797C40.0202 61.7053 40.7629 61.8005 41.5019 61.9126C41.778 61.9547 42.0123 62.2268 41.9741 62.6744C41.9369 63.1094 41.6779 63.2899 41.3965 63.3022C40.8653 63.3257 40.3331 63.3269 39.8016 63.3084C34.9097 63.1382 30.0178 62.9622 23.4644 62.729Z" fill="#303030"/>
<path d="M42.387 70.5633C46.1559 70.7066 49.9249 70.8498 53.6936 70.9927C53.7997 70.9966 53.908 70.9795 54.0118 71.0033C54.4496 71.1042 55.0382 70.7713 55.1931 71.7334C55.2797 72.2718 54.9002 72.4977 53.9161 72.4975C53.1195 72.4972 52.3227 72.482 51.5264 72.4571C48.4473 72.3604 45.3682 72.2472 42.2889 72.1583C38.6783 72.0541 35.0676 71.9742 31.457 71.8685C30.983 71.8548 30.5062 71.7873 30.0392 71.6737C29.8404 71.6255 29.6689 71.3856 29.6577 71.0328C29.6431 70.5675 29.8406 70.3195 30.1251 70.2825C30.5465 70.2279 30.973 70.2284 31.3967 70.2422C35.06 70.3607 38.7228 70.4877 42.3858 70.6121C42.3864 70.5961 42.3866 70.5796 42.387 70.5633Z" fill="#303030"/>
<path d="M322.77 151.009C315.888 151.144 308.491 151.291 301.094 151.428C300.672 151.436 300.245 151.399 299.828 151.311C299.607 151.264 299.465 150.961 299.508 150.635C299.534 150.438 299.658 150.154 299.773 150.116C300.13 149.996 300.502 149.932 300.869 149.923C306.35 149.786 311.831 149.654 317.312 149.537C326.572 149.339 335.831 149.15 345.091 148.965C345.62 148.954 346.152 148.993 346.68 149.046C346.916 149.069 347.08 149.335 347.082 149.651C347.084 150.073 346.883 150.349 346.59 150.391C346.22 150.443 345.847 150.449 345.475 150.458C338.078 150.639 330.682 150.818 322.77 151.009Z" fill="#303030"/>
<path d="M302.408 168.229C302.036 168.231 301.663 168.213 301.294 168.166C301.061 168.137 300.891 167.88 300.857 167.586C300.808 167.161 300.999 166.83 301.278 166.749C301.639 166.646 302.014 166.619 302.383 166.613C304.619 166.578 306.854 166.551 309.089 166.534C318.19 166.466 327.291 166.411 336.393 166.334C339 166.312 341.608 166.231 344.216 166.184C344.641 166.176 345.068 166.175 345.492 166.221C345.841 166.259 346.156 166.747 346.092 167.108C346.02 167.522 345.803 167.74 345.517 167.762C345.039 167.798 344.559 167.802 344.081 167.807C337.588 167.872 309.433 168.18 302.408 168.229Z" fill="#303030"/>
<path d="M328.921 158.7C323.927 158.7 318.933 158.704 313.939 158.695C313.464 158.694 312.984 158.656 312.516 158.552C312.307 158.506 312.17 158.18 312.239 157.852C312.278 157.661 312.397 157.462 312.519 157.362C312.65 157.256 312.825 157.237 312.982 157.226C313.353 157.201 313.725 157.198 314.097 157.197C323.819 157.15 333.542 157.102 343.264 157.065C343.846 157.062 344.43 157.104 345.008 157.193C345.297 157.237 345.481 157.576 345.441 158.005C345.413 158.307 345.247 158.567 345.016 158.591C344.54 158.642 344.062 158.666 343.585 158.667C338.697 158.672 333.809 158.67 328.922 158.67C328.921 158.68 328.921 158.69 328.921 158.7Z" fill="#303030"/>
<path d="M198.908 14.3208C199.355 13.8244 199.759 13.3345 200.191 12.9024C201.848 11.2474 203.661 10.6538 205.646 11.332C207.67 12.0232 208.832 14.0442 208.927 17.0225C209.002 19.3753 208.558 21.5407 207.771 23.583C206.643 26.5117 205.028 28.8085 203.181 30.7956C201.984 32.0842 200.656 33.0467 199.289 33.9144C198.706 34.2843 198.189 34.2546 197.612 33.8659C195.388 32.3653 193.275 30.6126 191.376 28.3657C189.732 26.4207 188.526 24.0569 188.082 21.0071C187.872 19.571 187.874 18.1369 188.123 16.7044C188.667 13.5848 190.149 11.6958 192.365 11.3637C194.283 11.0764 196.071 11.6185 197.688 13.1717C198.082 13.5509 198.481 13.9192 198.908 14.3208ZM188.686 18.9634C188.688 20.6038 188.973 22.1306 189.516 23.5636C190.054 24.9848 190.757 26.22 191.621 27.2575C193.504 29.5195 195.568 31.3749 197.783 32.9018C198.209 33.1952 198.557 33.1756 198.986 32.9219C201.799 31.2603 204.163 28.753 206.061 25.352C206.694 24.2172 207.212 22.9762 207.604 21.6343C208.106 19.9115 208.267 18.1164 208.102 16.2669C207.956 14.6187 207.323 13.4629 206.283 12.776C205.752 12.4248 205.19 12.2118 204.594 12.1611C202.549 11.987 200.851 12.9909 199.462 15.1352C198.992 15.8614 198.941 15.8454 198.423 15.3062C197.951 14.8143 197.505 14.2569 197.003 13.839C195.383 12.4909 193.661 11.938 191.799 12.6159C190.127 13.2244 189.154 14.763 188.821 17.1506C188.739 17.7442 188.729 18.3586 188.686 18.9634Z" fill="#303030"/>
<path d="M352.623 262.795C352.589 261.348 352.622 259.898 352.575 258.452C352.555 257.851 352.124 256.097 351.184 255.705C350.244 255.312 338.393 251.976 338.263 251.942C337.528 251.745 328.357 249.032 327.927 248.984L327.466 248.872C325.766 248.384 324.07 247.874 322.372 247.378C320.705 246.89 305.903 242.662 305.591 242.573C301.263 241.334 278.298 234.572 278.052 234.562C277.735 234.55 269.985 207.236 267.591 197.869C265.91 191.29 264.219 184.716 262.56 178.126C262.153 176.51 258.874 163.658 258.676 162.888C257.061 156.598 255.465 150.298 253.855 144.005C251.312 134.065 248.762 124.129 246.216 114.191C245.848 112.758 245.405 111.375 244.878 110.047C244.228 108.408 243.246 107.354 241.938 107.285C240.115 107.188 240.353 106.893 239.713 104.801C239.628 104.522 239.547 104.24 239.462 103.96C237.21 96.6066 234.503 89.639 231.097 83.231C229.185 79.6344 226.836 76.8564 224.034 74.8446C219.1 71.3038 213.833 69.5597 208.348 69.3315C204.358 69.1656 200.362 69.3198 196.369 69.4044C190.247 69.5342 184.129 69.8957 178.013 70.3301C176.046 70.47 174.08 70.6552 172.115 70.8354C167.653 71.2443 163.19 71.6477 158.729 72.0823C155.437 72.4032 152.144 72.7292 148.856 73.1266C144.666 73.633 140.48 74.191 136.295 74.7701C132.799 75.2538 129.303 75.7499 125.815 76.3314C121.851 76.992 117.896 77.758 113.937 78.4704C110.716 79.05 107.499 79.6764 104.341 80.7677C96.004 83.6486 89.9501 90.663 86.2191 101.681C84.0178 108.181 82.7942 115.103 82.3065 122.302C82.111 125.187 82.0214 128.077 81.907 130.968C81.666 137.061 81.7139 143.154 81.8827 149.249C82.0347 154.732 82.2467 160.208 82.629 165.669C82.6554 166.047 82.6622 166.43 82.6572 166.811C82.6517 167.224 82.5307 167.54 82.2219 167.632C81.8571 167.74 81.4935 167.863 81.1255 167.94C77.9673 168.604 74.8077 169.255 71.6493 169.917C67.6489 170.755 63.6491 171.602 59.6489 172.443C55.6487 173.284 51.6475 174.117 47.6477 174.962C44.2796 175.674 40.913 176.402 37.5451 177.116C35.6085 177.527 34.0683 178.902 32.8457 181.052C31.9226 182.676 31.3172 184.533 30.9516 186.545C30.5758 188.612 30.3303 190.713 30.2524 192.853C30.1219 196.434 30.1417 200.015 30.2238 203.596C30.3601 209.536 30.5308 215.475 30.651 221.416C30.7423 225.914 30.6904 230.411 30.2621 234.877C30.1178 236.383 29.8531 237.864 29.678 239.365C29.5664 240.321 29.2537 240.82 28.5437 240.931C27.3816 241.115 26.2304 241.437 25.0722 241.677C20.5441 242.615 16.0144 243.537 11.4873 244.485C11.0168 244.583 10.549 244.769 10.1 244.994C9.82351 245.133 9.72638 245.533 9.81979 245.939C9.88499 246.222 9.9923 246.498 10.117 246.738C11.1388 248.707 12.289 250.49 13.7366 251.846C15.2429 253.257 16.859 254.03 18.69 254.021C20.6733 254.012 22.6079 253.529 24.5564 253.136C29.456 252.149 34.3585 251.194 39.2573 250.199C44.0503 249.226 48.84 248.216 53.6319 247.231C54.5661 247.039 54.6215 247.073 55.0775 248.424C55.6824 250.216 56.3769 251.93 57.272 253.452C60.5561 259.035 64.7327 261.648 69.8334 260.925C72.2142 260.587 74.5792 260.019 76.9516 259.558C83.225 258.338 89.4986 257.118 95.7721 255.9C101.895 254.711 121.987 251.168 121.789 251.003C123.997 250.369 132.823 248.711 133.49 248.573C135.015 248.26 136.546 247.997 138.07 247.67C138.699 247.535 141.407 246.939 141.453 246.931C141.618 246.904 143.332 251.8 143.696 253.114C144.044 254.369 147.215 263.683 147.541 264.626C148.189 266.5 149.16 267.641 150.691 267.454C151.136 267.4 151.393 267.603 151.561 268.167C151.844 269.117 152.363 269.546 153.076 269.517C153.13 269.515 153.183 269.508 153.236 269.515C153.875 269.591 153.939 269.596 153.913 270.362C153.823 272.954 154.869 274.262 156.409 275.025C156.96 275.299 157.53 275.504 158.098 275.701C167.092 278.815 176.087 281.922 185.083 285.029C201.367 290.653 217.651 296.279 233.938 301.889C234.763 302.172 235.608 302.373 236.452 302.497C239.016 302.872 241.547 302.526 244.06 301.718C252.311 299.065 260.565 296.438 268.819 293.803C279.148 290.504 289.477 287.204 299.807 283.91C302.039 283.198 323.994 276.198 327.731 275.006C328.821 274.659 329.914 274.33 331.008 274.012C331.31 273.924 338.734 271.552 339.029 271.43C339.387 271.282 339.746 271.136 340.109 271.021C341.719 270.51 343.336 270.047 344.939 269.498C346.749 268.878 348.586 268.35 350.339 267.483C352.708 266.311 352.681 265.321 352.623 262.795ZM329.698 250.655C334.008 251.895 340.332 253.663 341.423 253.983C343.97 254.728 346.518 255.462 349.057 256.25C349.726 256.457 350.369 256.838 351.019 257.157C351.275 257.282 351.496 257.493 351.572 257.922C351.263 258.512 350.779 258.576 350.318 258.722C347.523 259.611 344.729 260.509 341.933 261.393C340.794 261.753 306.405 272.613 305.696 272.844C302.897 273.757 300.095 274.65 297.292 275.537C287.896 278.511 278.498 281.474 269.103 284.449C260.33 287.226 251.559 290.01 242.788 292.798C240.776 293.437 238.784 293.343 236.78 292.676C228.547 289.937 220.307 287.236 212.071 284.506C200.367 280.627 188.665 276.731 176.96 272.848C170.901 270.838 164.839 268.844 158.779 266.837C158.374 266.703 157.933 266.66 157.63 266.089C158.677 265.428 159.803 265.361 160.885 265.075C166.271 263.656 171.666 262.308 177.058 260.94C177.372 260.86 177.696 260.849 178.006 260.75C178.515 260.588 178.933 260.769 179.337 261.238C179.998 262.005 180.687 262.724 181.366 263.457C188.795 271.474 197.147 276.61 206.17 279.57C213.146 281.859 220.224 282.91 227.389 282.709C229.57 282.647 231.754 282.624 233.935 282.709C236.625 282.815 239.221 282.029 241.825 281.254C250.414 278.697 259.004 276.155 267.593 273.6C277.066 270.782 286.539 267.956 296.012 265.134C299.135 264.204 302.258 263.276 305.382 262.353C305.589 262.292 322.962 257.158 325.981 256.256C326.866 255.991 328.381 255.532 329.341 255.108C330.303 254.684 329.856 252.105 329.698 250.655ZM281.533 236.709C289.459 238.983 323.918 248.915 326.841 249.76C327.149 249.857 327.454 249.948 327.757 250.033C327.808 250.052 327.86 250.069 327.909 250.097C328.136 250.227 328.52 250.186 328.521 250.625C328.522 251.146 328.145 251.022 327.903 251.053C327.692 251.079 327.478 251.04 327.265 251.039C325.722 251.038 319.553 250.791 318.011 250.771C317.588 250.766 306.546 249.55 306.18 249.492C305.229 249.341 304.276 249.195 303.332 248.971C299.125 247.977 295.001 246.507 290.968 244.523C287.427 242.781 284.111 240.38 280.944 237.541C280.732 237.351 280.465 237.224 280.338 236.687C280.809 236.433 281.176 236.607 281.533 236.709ZM241.735 108.214C243.13 108.636 244.142 109.749 244.672 111.689C245.407 114.382 246.186 117.051 246.881 119.764C250.613 134.336 254.324 148.918 258.042 163.496C258.133 163.853 258.233 164.206 258.317 164.567C258.625 165.888 261.45 177.107 261.581 177.545C261.728 178.034 261.861 178.532 261.989 179.032C266.288 195.912 270.587 212.791 274.877 229.675C275.014 230.213 275.29 230.747 275.095 231.385C274.676 231.334 274.423 230.911 274.142 230.574C271.935 227.926 269.892 225.04 268.015 221.91C267.519 221.083 267.184 220.168 266.938 219.143C263.945 206.69 254.426 167.254 254.256 166.551C251.244 154.116 248.239 141.678 245.26 129.227C244.744 127.071 244.339 124.859 243.904 122.665C243.02 118.199 242.125 113.738 240.975 109.393C240.689 108.31 241.024 108 241.735 108.214ZM251.428 170.32C249.695 160.534 248.125 150.698 246.84 140.437C247.34 141.035 247.436 141.579 247.564 142.111C249.364 149.581 251.17 157.048 252.973 164.516C253.302 165.881 256.877 180.729 257.59 183.668C260.044 193.799 262.482 203.937 264.923 214.074C265.092 214.777 265.223 215.497 265.44 216.536C264.673 215.888 264.461 215.16 264.169 214.54C262.291 210.559 260.678 206.366 259.293 201.989C257.495 196.303 255.898 190.503 254.445 184.62C254.322 184.12 251.491 170.676 251.428 170.32ZM112.146 79.8916C114.835 79.3701 117.524 78.8591 120.217 78.3866C123.491 77.8121 126.767 77.2577 130.045 76.7322C132.478 76.3423 134.914 75.9934 137.35 75.661C140.529 75.2277 143.708 74.8032 146.889 74.4223C150.071 74.0414 153.256 73.6967 156.441 73.3755C160.794 72.9369 165.149 72.531 169.504 72.1202C171.522 71.9296 173.541 71.7457 175.56 71.5832C183.374 70.9543 191.192 70.4963 199.02 70.4296C201.575 70.4077 204.13 70.3029 206.685 70.3071C211.408 70.315 216.008 71.396 220.445 73.7589C221.291 74.2098 222.129 74.7053 222.948 75.2479C225.594 76.9987 227.88 79.4026 229.745 82.6595C231.2 85.2018 232.531 87.8618 233.735 90.6468C235.472 94.6661 236.934 98.8916 238.318 103.188C241.639 113.499 243.596 124.399 245.29 135.417C246.72 144.712 247.856 154.096 249.457 163.338C249.904 165.925 250.352 168.512 250.783 171.104C250.953 172.124 253.703 184.876 253.88 185.579C255.361 191.456 256.944 197.275 258.781 202.944C261.857 212.433 265.83 221.05 271.201 228.211C278.176 237.512 286.209 244.145 295.5 247.526C298.855 248.746 302.23 249.782 305.67 250.364C305.829 250.391 316.408 251.601 317.018 251.614C318.611 251.647 326.306 251.98 328.163 252.071C328.791 252.103 328.99 252.447 329.002 253.359C329.011 254.063 328.871 254.294 328.214 254.49C325.566 255.282 322.916 256.06 320.266 256.838C319.071 257.19 302.235 262.214 300.517 262.724C290.936 265.57 281.356 268.418 271.775 271.259C263.287 273.776 254.798 276.284 246.309 278.796C244.226 279.412 242.127 279.938 240.065 280.671C238.185 281.338 236.289 281.544 234.371 281.544C230.059 281.542 225.745 281.627 221.435 281.466C217.228 281.309 213.068 280.42 208.931 279.303C202.456 277.555 196.242 274.673 190.422 270.273C179.31 261.873 170.37 250.077 163.767 234.71C161.219 228.783 159.261 222.454 157.364 216.073C153.897 204.41 151.317 192.33 149.087 180.088C147.342 170.51 145.707 160.891 143.924 151.329C141.988 140.951 139.804 130.681 136.945 120.73C134.955 113.807 132.564 107.186 129.68 100.938C127.914 97.1131 125.928 93.5419 123.636 90.3276C122.493 88.7242 121.274 87.2522 119.977 85.912C117.399 83.2486 114.591 81.328 111.421 80.6324C111.505 79.9177 111.876 79.944 112.146 79.8916ZM172.631 253.275C172.53 253.591 172.285 253.564 172.084 253.615C170.461 254.031 168.838 254.452 167.214 254.856C164.227 255.6 161.239 256.335 158.251 257.07C157.367 257.288 157.277 257.246 156.907 256.067C154.967 249.883 153.041 243.69 151.108 237.502C140.53 203.64 129.951 169.78 119.373 135.919C119.221 135.432 119.066 134.946 118.929 134.45C118.686 133.572 118.77 133.348 119.399 133.264C122.949 132.79 126.501 132.33 130.051 131.858C132.436 131.542 134.819 131.214 136.392 131.001C138.87 130.766 138.719 130.476 139.294 132.947C141.886 144.083 143.966 155.422 145.928 166.812C148.068 179.236 150.311 191.623 153.248 203.722C155.101 211.353 157.233 218.829 159.665 226.12C162.807 235.543 166.858 244.086 171.906 251.642C172.053 251.862 172.21 252.069 172.347 252.302C172.51 252.582 172.772 252.833 172.631 253.275ZM20.8404 252.646C17.6481 253.601 14.9747 252.361 12.6455 249.254C11.9518 248.329 11.3189 247.323 10.6383 245.819C16.8574 244.358 22.8357 243.247 28.8361 241.974C28.8361 242.467 28.8825 242.711 28.8294 242.896C27.334 248.101 24.7793 251.467 20.8404 252.646ZM53.5821 246.198C52.7946 246.381 52.0033 246.53 51.2134 246.69C46.8429 247.579 42.4725 248.466 38.102 249.354C34.2582 250.135 30.4149 250.923 26.5698 251.69C26.1605 251.772 25.7366 251.943 25.1793 251.569C25.3765 251.251 25.4623 251.061 25.5805 250.93C27.9518 248.306 29.3187 244.751 30.1881 240.74C30.6628 238.55 30.9318 236.294 31.0985 234.022C31.5273 228.174 31.5059 222.314 31.3281 216.445C31.1278 209.825 30.8132 203.209 30.8613 196.576C30.8825 193.673 31.0618 190.797 31.4783 187.954C31.7534 186.076 32.1967 184.29 32.9408 182.678C33.4435 181.589 34.0362 180.619 34.7859 179.86C36.6967 177.923 38.7186 177.681 40.8151 179.134C42.2263 180.112 43.3704 181.594 44.3614 183.318C45.4868 185.277 46.3141 187.489 47.0117 189.805C48.1331 193.529 48.8318 197.437 49.4323 201.382C50.2377 206.674 50.6597 212.046 51.0577 217.424C51.5788 224.465 52.0082 231.524 52.9502 238.488C53.2438 240.657 53.6231 242.795 54.0903 244.902C54.2733 245.729 54.132 246.071 53.5821 246.198ZM65.7758 259.639C62.4032 258.632 59.6673 256.204 57.578 252.282C56.1042 249.515 55.149 246.391 54.4801 243.07C53.6967 239.18 53.2207 235.201 52.8905 231.189C52.3238 224.305 51.8343 217.408 51.2547 210.526C50.7638 204.695 49.9733 198.943 48.7268 193.335C48.1443 190.714 47.4122 188.184 46.4527 185.797C45.2091 182.703 43.6029 180.108 41.4035 178.336C41.2702 178.229 41.1564 178.071 40.9526 177.848C41.3197 177.268 41.7051 177.276 42.0683 177.199C47.7525 175.999 53.4361 174.794 59.1212 173.605C64.5434 172.471 69.9677 171.361 75.3903 170.23C77.3908 169.813 79.3856 169.336 81.3887 168.949C82.7717 168.681 82.8334 168.788 82.9481 170.744C83.0993 173.326 83.227 175.91 83.3936 178.49C83.5033 180.187 83.5027 180.334 82.1682 180.557C79.0503 181.078 75.9405 181.697 72.8275 182.277C69.9254 182.816 67.0233 183.355 64.1212 183.896C63.1715 184.073 62.2218 184.251 61.2728 184.437C61.0628 184.478 60.8502 184.527 60.6503 184.623C60.4304 184.727 60.3137 184.998 60.3178 185.32C60.3223 185.664 60.4891 185.895 60.7145 185.912C61.0828 185.938 61.4574 185.931 61.8234 185.868C63.9364 185.501 66.048 185.12 68.1592 184.732C71.0619 184.2 73.9636 183.656 76.8661 183.12C78.5549 182.809 80.244 182.5 81.9334 182.198C82.2503 182.141 82.5692 182.099 82.8882 182.08C83.4018 182.048 83.5882 182.245 83.6378 182.929C83.731 184.217 83.8216 185.507 83.8743 186.8C83.9517 188.702 84.0082 190.606 84.0464 192.511C84.064 193.385 83.9297 193.579 83.3268 193.682C80.6321 194.142 77.9364 194.591 75.2407 195.042C71.8581 195.607 68.4754 196.171 65.0922 196.729C64.4576 196.834 63.8204 196.905 63.1848 196.995C62.9158 197.033 62.6464 197.117 62.4672 197.422C62.3769 197.576 62.2996 197.837 62.326 198.017C62.3548 198.211 62.4964 198.485 62.6148 198.515C62.9232 198.595 63.2502 198.613 63.5622 198.561C66.628 198.053 69.6912 197.512 72.7572 197.006C76.1406 196.448 79.526 195.915 82.9107 195.374C83.1751 195.331 83.4429 195.271 83.7057 195.296C83.9231 195.316 84.1124 195.52 84.1488 195.851C84.1982 196.301 84.2274 196.76 84.2303 197.215C84.2532 200.949 84.27 204.683 84.2822 208.418C84.2838 208.873 84.2622 209.332 84.2227 209.783C84.1858 210.204 83.9898 210.472 83.7018 210.525C82.9101 210.669 82.1167 210.795 81.3225 210.908C78.7803 211.27 76.2377 211.624 73.6951 211.98C71.1525 212.334 68.6094 212.68 66.0676 213.047C65.699 213.1 65.3354 213.235 64.9732 213.354C64.7394 213.431 64.5951 213.705 64.6017 214.012C64.6113 214.452 64.8486 214.687 65.1363 214.678C65.7742 214.658 66.4137 214.62 67.0486 214.53C71.1267 213.955 75.2036 213.364 79.2812 212.778C80.6581 212.58 82.0343 212.371 83.4126 212.195C84.0147 212.118 84.2131 212.367 84.1784 213.213C84.0909 215.342 84.0063 217.474 83.8524 219.596C83.5007 224.445 83.102 229.286 82.3442 234.05C81.5381 239.119 80.4267 244.036 78.7766 248.681C78.0515 250.723 77.2395 252.689 76.2035 254.448C74.573 257.217 72.5765 259.125 70.0548 259.792C68.6215 260.171 67.2021 260.065 65.7758 259.639ZM140.22 246.221C139.795 246.227 113.242 251.421 112.896 251.489C100.045 254.011 87.1911 256.515 74.3489 259.02C74.2661 258.536 74.401 258.319 74.5741 258.136C76.5011 256.094 77.8534 253.377 78.9832 250.409C80.8032 245.628 82.0406 240.532 82.9105 235.246C83.7419 230.195 84.2105 225.065 84.5561 219.905C84.9528 213.981 85.1465 208.046 85.0423 202.101C84.9195 195.095 84.7271 188.093 84.3006 181.104C83.7308 171.771 83.1126 162.438 82.7437 153.087C82.3926 144.188 82.3838 135.269 82.8213 126.36C83.0456 121.79 83.4026 117.257 84.2095 112.818C84.9211 108.904 85.8308 105.081 87.1109 101.468C90.041 93.1978 94.4471 87.1494 100.473 83.6399C104.742 81.1542 109.116 80.5598 113.592 82.4409C115.606 83.2876 117.428 84.6833 119.145 86.3778C121.797 88.9935 124.057 92.2087 126.088 95.7644C129.309 101.402 131.825 107.668 134.065 114.174C134.606 115.745 135.104 117.346 135.595 118.95C135.91 119.982 135.772 120.291 134.948 120.407C133.518 120.609 132.085 120.765 130.654 120.946C127.315 121.369 123.976 121.805 120.636 122.215C117.614 122.586 114.592 122.944 111.567 123.271C110.977 123.335 110.407 123.475 109.846 123.721C108.954 124.111 108.213 124.792 107.689 125.935C107.223 126.954 106.758 127.983 106.23 128.935C104.773 131.563 104.635 134.489 105.2 137.592C105.497 139.219 105.962 140.753 106.471 142.267C112.006 158.739 117.533 175.216 123.064 191.69C128.849 208.919 134.635 226.146 140.42 243.375C140.582 243.855 140.742 244.337 140.892 244.825C141.18 245.764 140.953 246.21 140.22 246.221ZM151.803 265.833C151.383 266.154 150.938 266.437 150.486 266.405C149.617 266.442 148.986 265.921 148.565 264.956C148.228 264.184 147.955 263.351 147.679 262.528C140.254 240.425 132.833 218.32 125.411 196.215C119.395 178.298 113.381 160.379 107.36 142.465C106.642 140.33 105.999 138.171 105.717 135.813C105.439 133.474 105.848 131.438 106.907 129.645C107.115 129.293 107.402 129.364 107.501 129.84C107.979 132.121 108.83 134.158 109.555 136.273C123.943 178.261 138.343 220.24 152.741 262.222C153.62 264.785 153.736 264.352 151.803 265.833ZM154.056 267.58C153.787 268.222 153.362 268.449 152.862 268.376C152.661 268.347 152.46 268.239 152.35 267.943C152.211 267.57 152.262 267.206 152.427 266.904C152.736 266.338 153.15 266.065 153.658 266.222C153.926 266.305 154.123 266.533 154.179 267.039C154.15 267.172 154.131 267.4 154.056 267.58ZM153.972 263.359C144.136 234.715 134.313 206.062 124.488 177.411C119.634 163.257 114.781 149.102 109.928 134.946C109.483 133.647 109.036 132.348 108.611 131.036C108.364 130.276 108.167 129.491 108.136 128.632C108.074 126.905 108.565 125.714 109.656 124.978C110.098 124.68 110.562 124.564 111.044 124.503C114.49 124.066 117.935 123.617 121.38 123.171C124.402 122.78 127.423 122.385 130.444 121.998C132.088 121.788 133.733 121.605 135.375 121.38C135.978 121.297 136.389 121.535 136.611 122.404C137.14 124.478 137.7 126.536 138.24 128.606C138.312 128.882 138.361 129.187 138.179 129.598C137.576 129.719 136.9 129.892 136.219 129.983C133.41 130.356 130.599 130.691 127.79 131.064C124.823 131.458 121.857 131.877 118.891 132.29C118.626 132.327 118.357 132.365 118.104 132.468C117.88 132.559 117.746 132.852 117.816 133.171C117.959 133.821 118.126 134.464 118.32 135.086C120.918 143.436 123.519 151.783 126.126 160.126C136.119 192.111 146.114 224.094 156.107 256.078C156.173 256.287 156.23 256.5 156.295 256.709C156.786 258.298 156.85 258.47 158.076 258.159C160.957 257.429 163.844 256.753 166.728 256.042C168.72 255.551 170.713 255.067 172.697 254.522C173.454 254.314 174.008 254.6 174.553 255.37C175.424 256.599 176.372 257.715 177.277 258.895C177.581 259.291 177.486 259.763 177.077 259.87C175.141 260.379 173.203 260.87 171.265 261.361C166.76 262.503 162.255 263.641 157.75 264.778C157.279 264.897 156.795 264.943 156.334 265.115C154.442 265.817 154.676 265.407 153.972 263.359ZM350.152 266.515C349.457 266.878 348.734 267.142 348.012 267.382C345.325 268.274 328.655 273.587 327.617 273.92C324.039 275.071 306.573 280.656 305.58 280.982C304.076 281.475 302.568 281.937 301.063 282.417C288.917 286.293 276.771 290.168 264.626 294.048C257.411 296.352 250.2 298.673 242.983 300.962C241.527 301.424 240.049 301.724 238.503 301.613C236.764 301.792 235.055 301.154 233.351 300.567C215.98 294.579 198.613 288.565 181.245 282.563C173.594 279.92 165.941 277.289 158.29 274.648C157.722 274.451 157.15 274.257 156.6 273.979C154.994 273.165 154.511 271.963 154.796 269.601C154.833 269.301 154.874 269 154.936 268.709C155.38 266.596 155.275 266.781 156.665 267.239C162.884 269.286 169.1 271.352 175.317 273.414C186.558 277.144 197.798 280.877 209.04 284.604C217.537 287.421 226.033 290.239 234.533 293.037C236.138 293.565 237.748 294.083 239.402 294.242C240.802 294.377 242.166 294.042 243.516 293.62C250.841 291.328 258.161 289.006 265.483 286.692C275.401 283.556 285.319 280.42 295.236 277.279C298.403 276.276 347.127 260.859 350.648 259.744C350.855 259.678 351.058 259.581 351.266 259.533C351.58 259.461 351.789 259.682 351.824 260.118C351.885 260.871 351.907 261.631 351.929 262.07C351.929 262.543 351.928 262.695 351.929 262.846C351.944 265.238 351.752 265.678 350.152 266.515Z" fill="#303030"/>
</svg>
